<!DOCTYPE svg PUBLIC "-//W3C//DTD SVG 20010904//EN" "http://www.w3.org/TR/2001/REC-SVG-20010904/DTD/svg10.dtd">
<svg height="1015px"
    preserveAspectRatio="xMidYMid meet"
    version="1.0"
    viewBox="0 0 12800 10150"
    width="1280px"
    xmlns="http://www.w3.org/2000/svg">
    <g
        fill="#bf6f7c"
        id="layer101"
        stroke="none">
        <path
            title="yuefangyan"
            d="M7390 10019 c0 -6 -18 -28 -41 -50 -22 -21 -35 -39 -29 -39 7 0 30 17 51 39 38 38 49 61 29 61 -5 0 -10 -5 -10 -11z" />
        <path
            title="yuefangyan"
            d="M8110 10019 c-56 -11 -80 -35 -91 -90 -21 -109 -7 -179 45 -228 23 -21 28 -23 56 -11 16 7 30 15 30 17 0 3 -13 18 -30 33 -16 15 -30 35 -30 44 0 9 -4 16 -10 16 -5 0 -10 9 -10 20 0 13 -7 20 -20 20 -17 0 -20 7 -20 45 0 39 5 51 35 80 26 27 43 35 70 35 24 0 35 4 35 15 0 8 -3 15 -7 14 -5 -1 -28 -5 -53 -10z" />
        <path
            title="yuefangyan"
            d="M7259 9893 c-8 -16 -18 -31 -23 -34 -5 -4 -7 -12 -5 -18 3 -7 19 8 36 33 20 28 28 46 19 46 -7 0 -19 -12 -27 -27z" />
        <path
            title="yuefangyan"
            d="M7230 9754 c0 -11 9 -30 20 -42 11 -12 20 -33 20 -47 0 -14 5 -25 10 -25 18 0 10 34 -20 85 -21 35 -30 44 -30 29z" />
        <path
            title="yuefangyan"
            d="M8238 9620 c2 -21 10 -44 18 -51 10 -8 14 -8 14 0 0 6 -4 11 -10 11 -5 0 -10 18 -10 40 0 22 -3 40 -8 40 -4 0 -6 -18 -4 -40z" />
        <path
            title="yuefangyan"
            d="M8294 9545 c26 -20 42 -19 22 0 -8 8 -21 15 -28 15 -8 -1 -6 -6 6 -15z" />
        <path
            title="yuefangyan"
            d="M7290 9526 c0 -3 24 -17 53 -31 28 -15 61 -35 73 -46 30 -28 41 -23 13 7 -34 36 -139 89 -139 70z" />
        <path
            title="yuefangyan"
            d="M7560 9240 c25 -4 53 -11 64 -15 14 -6 18 -5 14 6 -3 10 -23 14 -64 15 -57 2 -58 2 -14 -6z" />
        <path
            title="yuefangyan"
            d="M8076 9137 c-18 -19 -38 -37 -46 -40 -12 -4 -12 -6 1 -6 11 -1 19 -13 23 -36 9 -47 0 -58 -40 -52 -29 5 -34 3 -34 -14 0 -21 -19 -27 -22 -6 -1 6 -2 41 -3 77 0 65 0 65 -30 68 -16 1 -47 10 -68 19 -34 15 -41 15 -71 1 -30 -15 -33 -15 -44 1 -10 14 -11 13 -11 -6 -1 -20 -8 -22 -71 -29 -65 -6 -72 -9 -86 -36 -9 -18 -25 -31 -44 -35 -37 -7 -42 -13 -68 -94 -27 -80 -27 -90 -3 -130 10 -17 16 -39 14 -50 -5 -17 0 -19 56 -19 37 0 61 4 61 11 0 7 22 9 68 5 37 -3 71 -5 75 -6 5 0 -16 -28 -47 -62 -31 -34 -56 -65 -56 -69 0 -8 -53 -39 -67 -40 -5 0 -19 -10 -32 -22 -13 -12 -21 -15 -16 -7 4 8 -6 2 -23 -14 -18 -16 -30 -32 -27 -34 2 -2 -2 -11 -10 -19 -8 -8 -15 -26 -15 -39 0 -22 4 -25 28 -21 16 3 37 9 48 15 63 34 163 75 186 77 4 0 13 6 20 13 6 6 15 12 19 12 4 0 20 5 36 12 15 6 36 13 46 15 10 1 28 10 41 18 31 20 132 33 122 16 -15 -24 4 -62 39 -77 19 -8 41 -27 50 -43 16 -32 57 -47 103 -37 111 25 138 22 173 -15 16 -17 33 -28 39 -24 6 3 7 0 4 -9 -3 -9 -1 -16 5 -16 6 0 11 -7 11 -15 0 -20 65 -85 85 -85 8 0 15 -4 15 -10 0 -6 40 -10 100 -10 60 0 100 4 100 10 0 6 18 10 40 10 22 0 40 5 40 10 0 6 14 10 30 10 17 0 30 5 30 10 0 18 31 10 55 -15 19 -18 25 -35 25 -70 l0 -45 60 0 c33 0 60 4 60 10 0 6 9 10 20 10 16 0 20 7 20 36 0 37 18 64 44 64 12 0 15 10 14 47 -2 29 2 48 10 51 6 2 12 12 12 23 0 10 5 19 11 19 5 0 8 -4 5 -8 -2 -4 -1 -14 4 -22 7 -11 28 -15 81 -13 57 2 74 6 89 22 9 12 25 21 34 21 9 0 16 8 16 20 0 11 5 20 10 20 6 0 10 7 10 16 0 18 -23 44 -40 44 -6 0 -22 11 -35 25 -36 35 -33 79 6 116 17 16 28 33 25 38 -4 5 -1 13 5 17 8 4 9 3 5 -4 -12 -20 9 -13 24 8 8 11 22 20 32 20 10 0 18 5 18 10 0 6 -4 10 -8 10 -4 0 -6 15 -4 33 3 28 0 35 -23 45 -43 20 -71 14 -99 -19 -14 -17 -26 -36 -26 -43 0 -7 -9 -21 -20 -31 -16 -15 -20 -15 -25 -3 -3 8 -1 27 5 42 16 43 13 51 -32 74 -24 12 -51 27 -60 34 -14 10 -20 9 -36 -5 -18 -16 -20 -16 -26 -2 -3 9 -6 25 -6 34 0 22 -102 81 -108 63 -6 -20 -22 -13 -22 9 0 15 -5 19 -17 15 -75 -21 -84 -18 -188 58 -19 14 -131 34 -228 40 -44 3 -49 1 -58 -22 -6 -15 -8 -36 -4 -49 6 -27 -22 -103 -40 -103 -7 0 -19 -7 -26 -16 -10 -13 -29 -15 -89 -12 -71 3 -79 5 -103 33 -31 35 -35 86 -12 142 8 19 15 37 15 39 0 6 -74 24 -99 24 -14 0 -37 -14 -55 -33z m634 -248 c0 -10 4 -20 9 -23 23 -15 17 -46 -16 -81 -47 -50 -76 -45 -111 17 l-27 47 34 35 c48 50 111 53 111 5z" />
        <path
            title="yuefangyan"
            d="M9501 8833 c-1 -7 -9 -10 -18 -7 -16 5 -16 4 0 -6 21 -13 32 -8 24 12 -4 9 -6 9 -6 1z" />
    </g>
    <g
        fill="#a6ae87"
        id="layer101"
        stroke="none">
        <path
            title="xiangfangyan"
            d="M8384 8165 c-64 -38 -74 -59 -67 -148 6 -82 -1 -99 -72 -168 -86 -83 -92 -92 -108 -149 -21 -75 -21 -76 3 -100 11 -11 16 -20 10 -20 -5 0 0 -15 10 -33 l20 -34 -25 -11 c-29 -13 -42 -55 -28 -91 13 -31 22 -60 15 -46 -3 5 -11 -6 -17 -25 -8 -23 -19 -36 -32 -38 -13 -2 -24 -13 -27 -28 -8 -30 3 -142 16 -166 14 -28 43 -21 72 17 15 19 32 35 39 35 9 0 9 -2 0 -8 -9 -6 -8 -12 7 -24 20 -18 90 -41 90 -30 0 4 5 0 10 -8 15 -23 98 -20 116 4 8 11 14 16 14 10 0 -5 5 -2 10 6 5 8 10 10 10 5 0 -7 32 -9 90 -7 64 3 101 0 128 -11 20 -8 72 -15 115 -16 65 -2 81 1 103 18 20 15 41 21 80 21 46 0 58 4 85 31 25 25 30 37 27 64 -2 18 0 31 4 29 14 -9 8 19 -8 37 -12 14 -13 22 -4 38 9 17 8 21 -5 21 -15 0 -15 1 -1 16 19 19 20 30 4 38 -10 5 -10 7 0 12 16 7 15 26 -2 49 -13 18 -14 18 -9 -8 3 -15 1 -27 -5 -27 -16 0 -20 35 -6 61 13 25 9 64 -10 88 -8 10 -8 13 0 8 6 -3 20 6 32 22 l20 28 -61 68 c-59 63 -65 67 -97 61 -58 -9 -98 10 -110 52 -5 20 -10 42 -10 49 0 22 -23 63 -36 63 -6 0 -14 -7 -17 -15 -4 -8 -24 -23 -46 -35 -23 -11 -40 -26 -38 -33 1 -6 -3 -11 -8 -10 -14 2 -18 -44 -5 -66 11 -22 -5 -41 -34 -40 -21 0 -21 0 -1 9 18 7 18 9 3 15 -20 8 -41 -2 -33 -16 4 -5 -2 -6 -11 -2 -11 4 -13 8 -6 11 14 4 -9 32 -27 32 -6 0 -13 11 -17 25 -6 25 19 68 68 117 24 24 23 83 -3 171 -23 75 -31 90 -51 93 -112 15 -123 14 -164 -11z m134 -1017 c-16 -5 -28 -15 -28 -20 0 -6 -2 -9 -5 -6 -13 13 9 38 34 37 l26 -1 -27 -10z" />
        <path
            title="xiangfangyan"
            d="M9081 7543 c0 -5 4 -17 9 -28 8 -18 9 -17 9 8 1 15 -3 27 -9 27 -5 0 -10 -3 -9 -7z" />
        <path
            title="xiangfangyan"
            d="M9110 7387 c0 -32 4 -57 10 -57 6 0 8 20 4 53 -9 71 -14 72 -14 4z" />
    </g>
    <g
        fill="#c8c7a8"
        id="layer101"
        stroke="none">
        <path
            title="wufangyan"
            d="M10033 7593 c-9 -3 -13 -34 -12 -106 l1 -102 12 57 c7 31 11 69 8 86 -2 16 1 33 7 36 12 8 15 36 4 35 -5 0 -14 -3 -20 -6z" />
        <path
            title="wufangyan"
            d="M10470 7300 c-8 -5 -19 -28 -25 -52 -8 -36 -14 -44 -37 -46 -15 -2 -41 4 -59 13 -30 16 -33 16 -60 -4 -44 -32 -79 -43 -95 -30 -11 9 -14 6 -14 -17 -1 -57 -30 -73 -127 -73 -18 0 -33 -5 -33 -11 0 -6 5 -8 11 -4 6 3 15 0 20 -7 13 -21 11 -32 -5 -26 -17 7 -29 -64 -13 -75 22 -14 -20 -104 -69 -151 l-48 -46 14 -128 c11 -109 16 -130 36 -150 13 -13 28 -23 34 -23 14 0 60 -46 60 -59 0 -6 14 -24 30 -39 17 -16 30 -34 30 -41 0 -17 107 -121 125 -121 8 0 15 -4 15 -10 0 -5 20 -10 45 -10 56 0 95 -32 95 -79 0 -46 69 -108 118 -108 61 0 85 -11 78 -37 -7 -27 45 -83 65 -71 7 5 10 4 5 -3 -8 -14 27 -34 47 -27 7 3 20 -2 28 -12 7 -10 9 -15 4 -10 -10 8 -45 -41 -44 -63 0 -10 3 -8 9 5 5 11 9 16 9 12 1 -5 11 -1 23 7 12 9 30 16 40 16 9 0 21 6 25 13 11 18 116 77 138 77 23 0 95 75 95 99 0 10 -7 24 -16 32 -8 7 -14 20 -11 28 2 9 -6 25 -19 36 l-22 19 21 11 c15 7 23 22 25 43 2 18 8 30 13 27 14 -9 11 3 -7 23 -8 10 -27 44 -41 75 -23 52 -24 57 -9 72 9 9 16 28 16 43 0 15 7 35 14 45 11 14 18 16 41 7 42 -16 55 -6 55 39 0 21 9 69 21 106 11 37 18 73 15 80 -3 8 -23 19 -46 26 -63 19 -71 36 -30 69 32 26 33 30 23 62 -8 27 -7 41 3 59 7 13 13 31 14 40 0 27 -50 69 -96 80 -36 9 -49 20 -80 64 -23 35 -38 69 -41 98 -5 38 -9 45 -37 55 -43 16 -85 15 -179 -3 -43 -8 -80 -15 -82 -15 -1 0 -14 18 -29 40 -27 41 -54 50 -86 30z m-85 -866 c44 -23 88 -51 98 -62 65 -72 -101 -96 -174 -26 -35 33 -53 88 -38 116 13 23 14 23 114 -28z m300 -506 c38 -40 42 -47 18 -30 -18 13 -37 31 -42 40 -5 9 -12 16 -16 14 -3 -1 -13 4 -21 13 -12 11 -12 15 -2 15 7 0 36 -24 63 -52z m-55 -2 c0 -5 -7 -3 -15 4 -8 7 -12 17 -9 22 7 10 24 -9 24 -26z m132 -33 c-6 -2 -10 -9 -7 -13 3 -5 12 -7 20 -3 17 6 19 -5 6 -26 -7 -10 -12 -8 -24 10 -17 23 -14 40 6 38 9 0 8 -2 -1 -6z" />
        <path
            title="wufangyan"
            d="M9992 7114 c-24 -27 -7 -36 17 -10 17 18 20 26 10 26 -8 -1 -20 -7 -27 -16z" />
    </g>
    <g
        fill="#b1bab7"
        id="layer101"
        stroke="none">
        <path
            title="minfangyan"
            d="M8209 10026 c-3 -3 -49 -12 -104 -20 -124 -18 -140 -32 -151 -133 -8 -82 6 -147 43 -185 27 -28 43 -29 93 -3 25 13 34 14 46 4 24 -20 44 -65 44 -98 0 -25 8 -36 40 -57 37 -25 45 -26 113 -20 70 7 96 2 169 -28 20 -9 98 58 98 84 0 17 -40 58 -88 90 -28 18 -51 80 -52 139 0 39 -5 49 -52 96 -29 28 -74 63 -99 78 -25 14 -51 33 -59 41 -12 15 -32 21 -41 12z m-5 -338 c-15 -7 -14 -8 9 -5 15 3 27 0 27 -4 0 -5 -14 -9 -31 -9 -21 0 -28 -4 -23 -12 4 -7 -2 -4 -13 7 -17 17 -18 21 -5 31 9 6 25 9 36 6 20 -5 20 -6 0 -14z" />
        <path
            title="minfangyan"
            d="M8318 9430 c-76 -23 -110 -102 -105 -242 l2 -68 75 0 c64 0 78 -3 90 -20 17 -24 36 -25 56 -5 9 8 11 15 5 15 -6 0 -11 19 -11 44 0 33 -7 52 -26 75 l-25 30 30 38 c40 51 47 84 24 110 -21 24 -75 35 -115 23z" />
        <path
            title="minfangyan"
            d="M11030 8734 c-6 -14 -10 -31 -10 -37 -1 -21 -27 -47 -58 -58 -24 -8 -35 -21 -48 -57 -10 -26 -27 -60 -38 -75 -17 -22 -21 -45 -22 -120 -3 -128 10 -183 57 -256 34 -52 44 -61 69 -61 17 0 33 0 38 -1 17 -2 31 83 22 134 -14 71 -49 157 -65 157 -45 0 -59 86 -28 172 16 46 18 47 55 45 21 -1 38 -7 38 -14 0 -6 12 -39 26 -72 24 -55 28 -59 40 -44 11 16 14 16 28 3 25 -25 30 -65 10 -84 -14 -15 -17 -37 -17 -129 0 -129 7 -172 31 -183 29 -13 60 -13 64 -1 8 22 -11 311 -23 360 -9 39 -19 53 -49 73 -48 32 -70 77 -70 146 0 79 -10 128 -27 128 -7 0 -18 -12 -23 -26z" />
        <path
            title="minfangyan"
            d="M9648 8672 c-27 -15 -48 -30 -48 -34 0 -24 59 -69 98 -76 36 -6 46 -13 65 -47 18 -32 30 -41 67 -50 40 -10 47 -16 69 -62 29 -60 63 -83 125 -83 39 0 48 -4 57 -24 9 -18 7 -31 -7 -57 -11 -21 -18 -59 -19 -100 -1 -62 -3 -69 -33 -94 -41 -35 -44 -88 -7 -151 26 -45 25 -68 -6 -85 -23 -12 -25 -65 -4 -115 11 -26 26 -40 60 -55 31 -14 45 -26 45 -39 0 -11 -6 -20 -12 -21 -7 0 -26 -2 -43 -2 -21 -2 -31 -8 -33 -22 -2 -11 -7 -29 -12 -40 -21 -47 -29 -253 -11 -265 7 -4 13 -10 12 -13 -1 -17 65 -77 85 -77 14 0 31 -12 45 -31 19 -27 26 -30 53 -25 17 4 43 15 58 26 25 18 78 24 78 9 0 -4 11 -10 25 -13 39 -10 64 9 71 55 5 30 13 44 32 52 26 12 33 7 73 -53 l15 -23 98 18 c92 16 122 16 172 0 18 -5 23 -1 33 26 6 17 11 47 11 64 0 30 -4 34 -37 42 -34 8 -39 13 -47 50 -9 41 -11 42 -54 45 -35 2 -49 9 -65 30 l-20 27 30 90 c27 82 29 95 19 139 -6 27 -17 56 -24 65 -7 9 -15 35 -18 59 -2 24 -10 64 -16 91 -10 38 -17 47 -34 47 -31 0 -54 10 -54 24 0 24 -19 38 -61 47 -47 11 -59 22 -59 57 0 12 -9 30 -20 40 -12 9 -36 44 -55 77 -34 61 -131 155 -159 155 -8 0 -20 9 -26 20 -14 27 -48 44 -90 44 -33 1 -36 4 -44 43 -6 27 -17 45 -28 49 -13 4 -18 16 -18 45 0 37 -2 39 -30 39 -17 0 -54 12 -83 27 -32 16 -70 26 -99 27 -49 1 -64 9 -70 38 -3 15 -9 14 -50 -10z" />
        <path
            title="minfangyan"
            d="M11195 7983 c-16 -3 -42 -16 -58 -29 -16 -13 -32 -22 -35 -20 -4 2 -7 -9 -8 -26 -1 -16 -8 -37 -17 -45 -14 -15 -13 -18 21 -36 20 -11 41 -26 45 -33 11 -19 61 -18 77 1 7 8 10 24 7 34 -3 12 1 22 9 25 8 3 14 17 14 31 0 14 7 39 15 56 25 47 13 54 -70 42z" />
        <path
            title="minfangyan"
            d="M4750 7032 c0 -5 19 -16 42 -25 23 -9 78 -38 122 -63 89 -51 122 -89 170 -191 27 -56 46 -79 46 -54 0 26 -78 169 -110 202 -22 23 -107 74 -180 108 -67 32 -90 37 -90 23z" />
    </g>
    <g
        fill="#fbf4c6"
        id="layer101"
        stroke="none">

        <path
            title="kongbai"
            d="M12250 9384 c-6 -14 -10 -31 -10 -37 0 -24 -30 -55 -59 -62 -26 -6 -51 -38 -51 -67 0 -7 -12 -30 -27 -51 -25 -36 -27 -48 -29 -136 0 -53 3 -116 8 -140 9 -43 76 -166 86 -157 2 3 -5 20 -17 38 -55 86 -64 117 -65 232 -1 96 2 115 19 141 12 16 29 51 38 76 14 38 25 49 57 62 33 13 40 21 50 58 7 24 15 49 18 54 9 15 19 -41 21 -113 1 -80 23 -127 73 -158 21 -13 38 -26 38 -28 0 -2 5 -28 11 -57 5 -30 14 -120 18 -200 6 -124 11 -152 30 -184 17 -30 20 -43 12 -69 -5 -17 -13 -44 -18 -61 -6 -23 -15 -31 -38 -33 -17 -2 -33 -9 -37 -15 -6 -9 -16 -7 -39 6 -42 23 -61 22 -24 -3 32 -21 75 -27 75 -10 0 6 12 10 26 10 31 0 53 25 54 60 0 14 7 36 14 50 13 22 12 29 -12 69 -23 39 -26 59 -33 185 -7 130 -19 218 -34 256 -3 8 -21 25 -41 38 -43 28 -64 74 -64 144 0 79 -10 128 -27 128 -7 0 -18 -12 -23 -26z" />
        <path
            title="kongbai"
            d="M11051 8683 c0 -6 -10 -66 -21 -133 l-21 -121 21 -47 c25 -56 37 -168 22 -209 -9 -26 -5 -40 29 -108 49 -101 69 -115 109 -75 14 14 33 20 65 20 49 0 54 8 33 57 -18 39 -49 68 -73 68 -19 0 -20 8 -25 140 -6 149 -8 157 -68 235 -27 36 -31 49 -26 77 5 25 3 33 -8 33 -8 0 -19 16 -25 38 -6 20 -11 32 -12 25z" />
        <path
            title="kongbai"
            d="M7577 8113 c-4 -3 -7 -24 -7 -45 0 -30 -7 -47 -30 -71 -26 -28 -30 -40 -30 -88 0 -41 5 -61 20 -77 11 -12 20 -33 20 -47 0 -14 5 -25 10 -25 6 0 10 -9 10 -20 0 -11 5 -20 10 -20 6 0 10 -27 10 -60 0 -51 3 -60 18 -59 10 0 12 3 5 6 -9 3 -13 26 -13 64 0 33 -4 59 -10 59 -5 0 -10 9 -10 20 0 11 -4 20 -10 20 -5 0 -10 13 -10 28 0 16 -8 34 -20 42 -16 11 -20 26 -20 68 0 47 4 58 30 82 25 23 30 36 30 74 l0 46 75 0 75 0 55 -55 c33 -32 55 -63 55 -76 0 -12 10 -30 23 -41 17 -15 22 -30 22 -69 0 -37 2 -44 9 -30 12 27 0 83 -24 109 -11 12 -20 30 -20 40 0 11 -26 45 -57 76 l-58 56 -76 0 c-42 0 -79 -3 -82 -7z" />
        <path
            title="kongbai"
            d="M5571 7638 c2 -2 18 -14 34 -28 l30 -25 -24 28 c-14 15 -29 27 -34 27 -6 0 -8 -1 -6 -2z" />
        <path
            title="kongbai"
            d="M6377 7510 c-4 -16 -4 -37 0 -46 3 -9 -3 -21 -16 -31 -12 -8 -20 -21 -17 -29 3 -8 0 -11 -8 -8 -32 12 -27 -99 6 -127 10 -9 18 -28 18 -43 0 -14 5 -26 10 -26 6 0 10 -9 10 -19 0 -11 5 -23 10 -26 6 -4 9 -30 8 -58 -3 -44 0 -52 16 -55 12 -3 29 7 47 27 14 17 34 31 43 31 9 0 16 5 16 10 0 6 8 10 18 10 14 0 19 8 19 30 0 17 -4 30 -9 30 -4 0 -8 17 -8 39 0 30 4 40 20 44 11 3 18 0 17 -6 -3 -15 85 -30 98 -16 6 8 7 13 0 15 -5 2 -25 13 -42 24 -31 19 -33 23 -33 77 0 46 -6 69 -31 111 -34 60 -56 72 -133 72 -51 0 -54 -1 -59 -30z" />
        <path
            title="kongbai"
            d="M5335 7415 c-50 -31 -95 -32 -121 -4 -16 18 -27 21 -75 16 -119 -11 -150 -50 -141 -184 6 -99 -1 -110 -94 -154 -60 -28 -65 -29 -131 -19 -56 9 -75 8 -105 -4 -20 -9 -39 -20 -43 -26 -3 -5 -15 -10 -26 -10 -13 0 -19 -7 -19 -24 0 -19 -4 -22 -25 -18 -14 2 -25 8 -25 13 0 5 -18 9 -40 9 -22 0 -40 5 -40 10 0 6 -9 10 -20 10 -11 0 -25 9 -32 20 -7 11 -17 20 -22 20 -6 0 -25 14 -42 31 -28 27 -42 33 -102 38 -80 7 -90 14 -143 93 -49 71 -72 87 -163 110 -128 32 -165 22 -197 -54 l-12 -29 -81 7 c-44 4 -87 7 -96 8 -10 1 -14 -7 -12 -25 3 -37 -25 -47 -38 -14 -12 30 -40 33 -47 4 -4 -16 -11 -19 -29 -15 -17 5 -24 2 -24 -8 0 -19 -29 -29 -46 -15 -8 6 -25 8 -40 5 -22 -6 -34 1 -78 42 -29 27 -63 53 -77 57 -13 4 -39 21 -57 36 -37 33 -45 35 -64 15 -44 -45 -74 -90 -78 -118 l-5 -33 -75 -5 c-76 -5 -82 -7 -263 -96 -87 -42 -144 -51 -185 -30 -30 15 -30 15 -69 -27 -21 -23 -44 -55 -51 -72 -9 -19 -38 -46 -84 -75 -75 -47 -98 -72 -98 -105 0 -15 -9 -24 -32 -30 -23 -7 -40 -24 -61 -60 -25 -42 -28 -56 -23 -95 8 -57 1 -65 -32 -40 -32 26 -58 25 -107 -4 -22 -14 -55 -32 -73 -42 -18 -9 -47 -34 -63 -54 -21 -26 -52 -46 -97 -65 -77 -32 -163 -91 -208 -144 -31 -35 -34 -36 -104 -36 l-71 0 -80 -85 c-77 -83 -79 -86 -77 -132 1 -48 -10 -71 -43 -89 -21 -11 -72 8 -62 24 3 6 1 7 -5 3 -7 -4 -8 -15 -4 -29 12 -34 9 -42 -25 -71 -47 -39 -66 -108 -50 -181 8 -42 8 -71 -1 -125 -13 -76 -16 -169 -6 -194 9 -24 61 -20 82 6 52 64 73 72 113 40 l22 -19 -17 -69 c-10 -38 -20 -98 -23 -134 l-6 -65 47 -55 c53 -62 58 -92 26 -161 -30 -67 -29 -69 48 -69 50 0 63 -3 52 -11 -12 -8 -9 -10 12 -6 15 2 25 0 22 -5 -4 -5 9 -7 29 -3 22 4 37 3 42 -5 4 -6 16 -8 27 -4 12 4 18 2 15 -4 -4 -5 11 -17 32 -26 36 -17 39 -17 84 5 25 12 44 26 42 30 -3 4 2 10 11 13 8 3 12 2 9 -4 -4 -6 5 -5 19 1 14 7 23 17 19 22 -4 6 0 8 10 4 20 -8 49 2 42 13 -3 5 5 6 17 2 13 -3 19 -1 15 5 -5 7 1 9 15 5 12 -3 19 -1 15 4 -7 12 69 11 80 -1 5 -4 1 -5 -7 0 -12 6 -13 5 -3 -6 8 -8 13 -41 13 -85 0 -72 -1 -73 -35 -100 -20 -15 -48 -45 -63 -67 -22 -33 -42 -46 -117 -77 -80 -32 -90 -40 -93 -64 -7 -54 46 -73 109 -40 17 8 40 14 52 12 19 -3 24 -13 34 -75 12 -72 27 -113 42 -113 4 0 18 11 31 25 13 14 20 25 15 25 -4 0 -16 -10 -27 -22 -25 -29 -33 -16 -48 77 -6 38 -13 76 -16 84 -5 16 -62 11 -112 -10 -40 -17 -67 -4 -67 32 0 21 12 29 90 60 76 31 94 43 118 78 16 23 44 53 62 67 33 25 34 29 37 102 2 53 7 77 17 80 8 3 11 0 7 -7 -5 -7 1 -11 14 -11 12 0 18 4 15 10 -4 7 3 8 21 4 20 -5 25 -4 19 5 -5 9 1 11 24 8 17 -3 29 -1 26 3 -3 5 18 7 47 4 40 -3 48 -2 33 6 -16 8 -12 9 18 4 29 -4 37 -2 31 7 -4 8 -3 10 5 5 15 -9 53 3 46 15 -3 5 0 6 8 3 8 -3 20 3 28 12 12 15 12 17 0 9 -9 -5 -12 -4 -7 3 4 6 13 9 20 6 7 -3 19 3 27 13 13 17 13 17 -6 3 -18 -14 -19 -14 -7 2 8 10 20 14 29 11 11 -4 14 -2 9 5 -9 16 -4 15 44 -4 36 -14 56 -44 30 -44 -5 0 -10 -9 -10 -20 0 -11 -4 -20 -10 -20 -5 0 -10 -9 -10 -20 0 -11 -4 -20 -10 -20 -5 0 -10 -9 -10 -20 0 -11 -4 -20 -10 -20 -6 0 -10 -27 -10 -60 0 -33 -4 -60 -10 -60 -5 0 -10 -7 -10 -16 0 -8 -22 -37 -50 -64 -27 -27 -50 -54 -50 -60 0 -15 -46 -60 -61 -60 -6 0 -19 -8 -28 -18 -9 -11 -23 -21 -31 -25 -13 -5 -13 -6 1 -6 8 -1 25 8 37 19 12 11 25 20 30 20 11 0 62 53 62 66 1 5 23 32 50 59 28 28 50 56 50 63 0 6 5 12 10 12 6 0 10 27 10 60 0 33 4 60 10 60 6 0 10 9 10 20 0 11 5 20 10 20 6 0 10 9 10 20 0 11 5 20 10 20 6 0 10 9 10 20 0 11 5 20 10 20 6 0 10 9 10 19 0 15 10 20 43 25 74 12 220 14 205 4 -9 -7 -5 -8 13 -4 16 3 33 0 45 -10 10 -8 13 -12 5 -8 -9 5 -12 3 -7 -5 5 -7 16 -9 28 -5 15 4 18 3 13 -6 -6 -10 0 -12 24 -7 22 5 30 3 25 -4 -4 -8 1 -9 16 -4 14 4 20 3 16 -3 -7 -11 21 -25 34 -17 5 3 12 0 16 -6 5 -8 2 -10 -7 -5 -8 4 -3 -2 11 -13 19 -15 34 -19 60 -15 28 4 32 3 20 -6 -12 -9 -8 -11 18 -6 19 3 31 2 27 -4 -3 -5 9 -6 30 -3 20 3 35 1 35 -4 0 -5 14 -8 30 -5 19 3 30 0 30 -7 0 -9 14 -10 48 -6 34 5 43 4 32 -4 -12 -9 -9 -11 15 -11 24 0 27 2 15 11 -12 8 -8 9 16 5 23 -3 41 2 67 20 21 14 37 27 37 31 0 3 -6 2 -13 -3 -7 -5 -5 -2 5 8 14 13 31 15 80 11 49 -3 60 -2 48 7 -12 9 -7 10 23 5 22 -3 37 -2 34 2 -3 5 23 7 58 5 52 -4 70 0 104 19 22 12 38 26 35 31 -3 4 1 9 8 9 7 1 20 3 28 4 8 1 21 3 28 4 7 0 10 6 7 11 -4 6 5 10 20 10 17 0 24 -4 19 -12 -5 -8 -2 -9 9 -5 10 4 16 2 14 -6 -1 -7 6 -12 15 -12 10 0 23 -7 30 -15 11 -12 11 -12 -4 -1 -38 29 -15 3 29 -34 l48 -38 -30 34 -30 34 33 -30 c33 -29 41 -69 15 -71 -7 -1 -18 -2 -24 -3 -5 0 -7 -6 -3 -13 5 -8 2 -9 -10 -5 -14 6 -16 3 -11 -14 4 -12 3 -19 -2 -16 -10 7 -9 -57 1 -91 4 -12 12 -20 17 -17 5 3 7 0 4 -7 -2 -7 12 -31 32 -53 20 -22 32 -33 28 -25 -6 11 -5 12 4 4 18 -16 10 -89 -9 -90 -36 -2 -41 -5 -34 -15 4 -8 0 -9 -15 -4 -13 4 -21 2 -21 -5 0 -7 -8 -9 -21 -5 -16 5 -19 4 -14 -6 6 -9 4 -11 -8 -6 -16 6 -32 -18 -21 -34 3 -5 0 -9 -6 -9 -6 0 -8 -4 -5 -10 3 -5 1 -10 -5 -10 -6 0 -8 -11 -4 -27 4 -22 3 -25 -5 -13 -17 24 -14 -31 5 -75 11 -28 12 -35 2 -30 -7 3 -5 0 5 -8 14 -11 34 -14 75 -10 45 4 54 2 42 -7 -12 -9 2 -10 60 -6 41 3 69 2 62 -3 -14 -8 30 -11 167 -12 47 0 61 -3 50 -10 -10 -7 1 -9 36 -4 38 4 46 3 35 -5 -12 -9 -9 -10 13 -5 18 3 26 2 23 -4 -8 -12 30 -25 45 -15 8 5 9 3 4 -6 -6 -9 0 -11 26 -5 26 5 31 4 19 -5 -11 -8 -3 -9 35 -5 38 5 47 4 35 -5 -12 -9 -6 -10 26 -5 26 4 45 2 49 -4 3 -6 14 -11 23 -11 15 0 15 2 2 11 -11 8 -8 9 13 4 20 -4 27 -2 22 6 -5 8 -1 9 15 4 14 -4 20 -3 16 3 -3 6 12 8 42 5 37 -4 44 -2 32 7 -12 9 -10 11 12 6 32 -7 60 2 51 17 -4 6 0 8 10 4 19 -7 69 12 62 23 -3 5 2 11 11 14 10 4 13 2 7 -7 -4 -7 4 -5 17 4 14 9 25 24 25 32 0 9 7 22 15 29 12 11 12 11 1 -4 -25 -33 -6 -18 39 29 35 37 37 41 10 18 l-35 -30 29 32 c16 18 33 30 37 28 11 -7 59 16 54 26 -8 11 22 16 100 15 67 -1 70 -2 68 -24 -2 -14 1 -21 8 -17 6 4 10 1 8 -6 -3 -29 3 -34 45 -34 24 0 42 3 40 7 -3 4 10 5 28 2 26 -4 30 -3 18 5 -11 9 -1 11 43 9 31 -2 57 -6 57 -9 0 -4 7 -10 16 -13 12 -5 14 -3 8 7 -5 7 0 3 11 -10 19 -21 40 -25 96 -14 3 0 36 30 73 66 46 45 71 62 83 58 9 -4 14 -2 11 3 -4 5 10 9 29 8 27 -1 43 -10 71 -40 l37 -39 -40 35 -40 35 39 -40 c23 -24 40 -35 43 -28 2 7 10 10 17 7 7 -3 12 4 12 15 0 11 -2 18 -5 16 -10 -10 -39 28 -34 43 4 8 2 13 -3 10 -5 -4 -9 4 -9 17 0 13 3 21 6 19 4 -2 15 6 25 19 19 21 19 21 -1 7 -18 -14 -19 -14 -6 2 7 10 17 16 21 13 11 -7 61 16 55 25 -3 5 2 11 11 14 9 4 13 2 8 -5 -11 -18 30 7 47 28 13 17 12 17 -7 3 -11 -8 -6 -2 10 14 17 16 24 25 16 22 -9 -5 -8 -2 3 7 11 9 15 21 10 32 -4 13 -3 16 5 11 22 -13 13 30 -10 50 l-23 19 20 -25 20 -25 -21 17 c-28 24 -26 93 2 93 12 0 19 7 18 17 -1 12 6 16 24 15 19 -2 27 4 30 18 2 11 14 31 25 45 l22 25 -27 -24 -26 -23 -4 28 c-3 25 -7 29 -35 29 -17 0 -31 4 -30 10 1 5 -4 9 -10 8 -17 -4 -11 33 7 50 11 9 11 7 0 -7 -10 -13 -10 -17 -3 -12 7 4 18 16 24 28 8 14 8 18 0 14 -7 -5 -9 -1 -5 8 3 9 10 13 15 10 5 -3 6 50 2 122 -5 105 -4 126 7 119 10 -6 12 -4 7 9 -5 11 -3 15 5 10 7 -5 9 -2 5 9 -4 12 -2 14 10 10 11 -4 14 -2 9 5 -5 8 -1 10 10 5 11 -4 15 -3 10 5 -7 12 29 26 44 17 15 -9 38 12 61 56 21 41 25 63 8 39 -9 -13 -10 -13 -6 0 2 8 14 16 28 18 20 2 21 1 9 -8 -12 -9 -8 -10 18 -6 23 4 31 2 26 -6 -5 -8 -1 -9 12 -4 10 4 15 4 12 1 -4 -4 -3 -18 3 -32 5 -15 5 -22 0 -18 -18 10 -5 -42 17 -70 12 -15 22 -24 22 -19 0 4 -10 19 -22 33 -13 14 -6 10 15 -9 26 -24 36 -29 31 -16 -6 14 -4 17 6 11 10 -6 11 -2 6 19 -4 16 -3 25 2 22 6 -3 16 2 23 11 12 14 12 16 0 8 -10 -6 -12 -4 -7 4 5 7 14 10 22 7 19 -7 45 4 38 16 -4 6 2 7 16 3 14 -4 20 -3 16 3 -3 5 3 12 14 15 12 3 18 1 14 -5 -3 -5 9 -2 27 7 40 21 52 31 25 21 -19 -7 -19 -6 -1 14 18 20 18 20 -16 14 -26 -4 -31 -3 -19 5 12 9 9 11 -14 9 -26 -3 -29 0 -29 28 -1 34 10 57 23 49 10 -6 70 21 70 31 0 3 -4 2 -10 -1 -23 -14 -7 3 23 25 l32 23 -20 -24 -20 -24 22 19 c17 14 21 25 17 50 -5 25 -3 28 6 16 9 -12 10 -1 5 45 -4 46 -3 56 5 45 9 -12 10 -4 6 32 -3 30 -1 50 6 54 7 5 8 3 3 -6 -5 -8 6 -5 25 6 41 24 69 68 65 103 -2 21 -7 26 -29 24 -16 -1 -24 2 -20 9 4 6 -1 8 -14 4 -12 -4 -23 -2 -28 5 -5 8 -3 10 7 4 16 -9 8 -2 -36 35 l-30 25 25 -30 25 -30 -26 23 c-18 16 -25 30 -22 45 4 18 3 19 -6 7 -8 -11 -11 10 -11 81 0 72 4 100 16 115 8 10 13 12 9 4 -4 -8 0 -6 9 4 26 32 13 75 -38 124 -29 27 -53 42 -62 38 -10 -4 -13 -2 -8 6 5 8 2 9 -9 5 -11 -4 -17 -1 -17 9 0 8 4 13 9 9 6 -3 9 9 8 28 -2 35 -21 67 -39 67 -6 0 0 -9 13 -21 l24 -20 -25 14 c-28 16 -94 31 -86 19 2 -4 -13 -7 -34 -7 -21 0 -36 4 -33 8 3 5 -3 7 -13 5 -15 -2 -18 2 -16 22 2 19 0 21 -7 11 -6 -10 -9 9 -7 57 3 68 2 72 -28 100 -44 41 -93 73 -106 70 -7 -2 -12 14 -14 39 -1 23 2 39 7 36 5 -3 6 4 2 17 -5 15 -4 20 4 16 12 -8 13 -6 16 46 1 24 -2 35 -8 31 -6 -4 -8 0 -4 10 8 22 -2 49 -15 41 -6 -4 -7 2 -3 16 5 16 4 20 -5 15 -8 -5 -10 3 -5 32 5 30 4 35 -5 23 -9 -12 -11 -8 -6 18 3 18 2 31 -3 28 -4 -3 -13 6 -20 20 -6 14 -7 23 -1 19 6 -3 7 1 4 9 -3 9 -10 14 -14 11 -5 -3 -6 5 -2 17 3 15 2 19 -7 14 -9 -6 -10 0 -5 20 5 20 4 25 -6 19 -9 -5 -10 -2 -6 12 4 13 -1 30 -15 47 -19 24 -27 26 -69 23 -27 -1 -47 0 -45 4 3 3 -8 6 -24 5 -17 -1 -28 -6 -27 -15 1 -10 -9 -15 -29 -15 -20 0 -30 5 -30 15 0 8 -12 15 -27 17 -16 2 -28 -2 -28 -8 0 -7 -8 -9 -19 -5 -11 3 -23 0 -27 -6 -4 -8 -3 -9 4 -5 8 5 10 2 6 -8 -3 -9 -10 -14 -14 -11 -11 7 -21 -21 -14 -39 3 -8 0 -17 -7 -22 -8 -5 -10 -3 -5 7 4 8 -2 3 -13 -11 -11 -14 -19 -30 -17 -35 2 -6 -5 -11 -15 -11 -14 0 -17 5 -13 18 3 11 -1 20 -11 24 -10 4 -13 13 -9 26 4 15 3 18 -6 13 -9 -5 -10 -1 -5 15 5 16 4 20 -5 15 -9 -5 -10 -2 -5 14 6 19 4 20 -19 12 -17 -7 -26 -7 -30 2 -2 7 -3 -33 -1 -88 3 -71 1 -96 -6 -85 -8 11 -9 1 -6 -37 2 -34 0 -50 -6 -46 -6 4 -8 -2 -5 -14 7 -26 -26 -24 -50 2 -16 18 -15 18 8 0 l25 -20 -19 23 c-11 12 -26 20 -33 18 -7 -3 -15 0 -19 6 -5 7 -2 8 7 3 12 -8 12 -6 0 8 -7 9 -17 14 -22 11 -5 -3 -6 10 -3 28 5 26 3 30 -6 18 -9 -12 -10 -4 -5 35 4 38 3 46 -5 35 -9 -12 -10 -6 -5 23 5 29 3 37 -5 32 -9 -5 -10 -1 -6 13 7 19 -5 35 -29 38 -5 0 -16 2 -23 2 -7 1 -11 6 -8 11 3 4 -6 13 -20 20 -31 14 -22 15 -69 -14z m1054 -708 c-2 -2 -17 12 -33 32 l-30 36 34 -32 c19 -18 32 -34 29 -36z m311 -322 c19 -19 32 -35 29 -35 -3 0 -20 16 -39 35 -19 19 -32 35 -29 35 3 0 20 -16 39 -35z" />
        <path
            title="kongbai"
            d="M7903 6745 c0 -33 2 -45 4 -27 2 18 2 45 0 60 -2 15 -4 0 -4 -33z" />
        <path
            title="kongbai"
            d="M2018 6763 c-30 -15 -37 -33 -14 -33 7 0 21 11 30 25 9 14 15 25 14 24 -2 -1 -15 -8 -30 -16z" />
        <path
            title="kongbai"
            d="M7926 5281 c-30 -31 -37 -44 -33 -67 l4 -29 2 28 c0 17 14 41 36 62 l34 35 111 0 c106 0 112 -1 137 -26 14 -14 27 -23 30 -20 3 3 -8 16 -23 30 -27 24 -36 25 -144 26 l-116 0 -38 -39z" />
        <path
            title="kongbai"
            d="M8648 5255 c-48 -47 -56 -84 -28 -132 30 -52 21 -83 -25 -83 -26 0 -44 -9 -72 -36 -42 -41 -48 -40 -120 27 -35 33 -41 35 -58 23 -10 -8 -31 -14 -47 -14 -15 0 -28 -4 -28 -10 0 -6 -33 -10 -80 -10 -75 0 -83 2 -106 27 -23 25 -32 27 -95 28 -59 0 -69 3 -69 18 0 9 -4 17 -9 17 -5 0 -12 8 -14 18 -4 15 -5 15 -6 0 0 -9 4 -20 9 -23 15 -9 12 -35 -4 -35 -7 0 -25 -11 -40 -25 -15 -14 -29 -25 -32 -25 -3 0 -12 -6 -19 -12 -35 -32 -45 -38 -60 -38 -8 0 -15 -4 -15 -10 0 -5 -6 -7 -14 -4 -7 3 -20 -2 -29 -10 -9 -9 -20 -16 -26 -16 -14 0 -23 -34 -15 -64 9 -35 -7 -33 -44 8 -22 25 -32 46 -34 77 -2 24 -8 44 -16 45 -7 1 -8 0 -2 -3 5 -2 10 -25 10 -49 0 -40 5 -50 46 -90 31 -31 51 -44 64 -41 10 3 26 -3 34 -12 14 -15 13 -18 -3 -28 -10 -6 -21 -26 -25 -43 -6 -30 -8 -32 -40 -26 -23 4 -37 2 -45 -8 -21 -26 -107 -76 -129 -76 -34 0 -81 -47 -88 -88 -4 -20 -11 -46 -17 -56 -13 -25 11 -124 36 -149 18 -18 18 -19 -5 -36 -30 -24 -92 -55 -84 -43 3 5 -11 24 -30 43 -20 19 -40 44 -45 57 -5 14 -14 20 -21 16 -6 -4 -8 -3 -5 3 4 6 4 25 1 43 -4 19 -10 27 -14 20 -5 -8 -9 -4 -13 9 -3 14 0 21 10 21 12 0 12 2 -1 16 -9 8 -16 30 -16 47 0 18 -2 62 -3 100 -2 37 1 67 5 67 4 0 8 11 8 25 0 26 39 75 60 75 6 0 46 36 90 80 58 58 86 80 105 80 14 0 25 5 25 10 0 6 9 10 20 10 11 0 20 4 20 9 0 5 8 12 18 14 13 4 11 5 -5 6 -13 0 -23 -3 -23 -9 0 -5 -9 -10 -20 -10 -11 0 -20 -4 -20 -10 0 -5 -10 -10 -22 -10 -15 0 -51 -28 -103 -80 -44 -44 -84 -80 -89 -80 -20 0 -66 -55 -66 -77 0 -13 -4 -23 -10 -23 -5 0 -10 -7 -10 -15 0 -11 -5 -12 -23 -6 -13 5 -35 7 -50 4 -21 -4 -33 1 -55 25 -27 28 -32 30 -122 32 -124 4 -140 2 -140 -12 0 -7 -13 -22 -29 -33 -33 -21 -40 -45 -35 -111 3 -42 2 -44 -24 -44 -29 0 -82 -44 -82 -68 0 -7 -4 -12 -10 -12 -5 0 -9 -15 -9 -32 2 -31 2 -31 6 -5 2 15 9 27 14 27 5 0 9 7 9 15 0 27 47 65 80 65 19 0 30 -5 30 -14 0 -8 4 -18 10 -21 6 -4 7 1 3 12 -6 16 -5 16 10 4 9 -7 14 -18 11 -23 -7 -10 24 -48 38 -48 5 0 2 7 -6 16 -22 21 -20 27 4 12 13 -8 19 -20 16 -30 -2 -12 2 -18 12 -18 8 0 12 -3 9 -7 -9 -9 23 -44 35 -37 4 3 7 2 6 -3 -1 -4 3 -18 10 -30 11 -20 10 -23 -22 -28 -23 -5 -36 -14 -40 -28 -8 -31 -7 -37 5 -37 5 0 7 5 3 12 -4 7 -3 8 5 4 6 -4 8 -12 5 -18 -4 -6 2 -17 12 -25 17 -12 11 -14 -54 -12 -64 2 -75 5 -82 23 -5 12 -9 15 -9 7 -1 -8 -13 0 -29 19 -26 29 -33 32 -75 29 l-46 -4 -4 35 c-3 32 -4 31 -5 -9 -2 -34 -5 -42 -18 -37 -8 3 -13 2 -10 -3 6 -8 -25 -21 -52 -21 -6 0 -22 11 -34 25 -11 13 -25 22 -30 19 -4 -3 -8 2 -8 10 0 9 -5 16 -10 16 -6 0 -9 3 -9 8 1 4 1 26 0 50 -1 40 -3 42 -31 42 -16 0 -30 -4 -30 -10 0 -5 -7 -10 -15 -10 -8 0 -23 -4 -33 -9 -9 -5 -29 -14 -44 -21 -15 -7 -25 -17 -22 -22 3 -4 -2 -8 -10 -8 -9 0 -15 -6 -14 -12 2 -7 -3 -12 -9 -10 -7 1 -13 -5 -13 -14 0 -8 -3 -13 -7 -11 -10 6 -34 -19 -26 -27 4 -3 2 -6 -4 -6 -6 0 -22 -12 -36 -26 -14 -14 -31 -23 -37 -19 -6 4 -9 1 -8 -7 2 -7 -3 -12 -10 -10 -6 1 -11 -4 -10 -10 2 -7 -2 -12 -7 -11 -6 1 -12 -10 -13 -25 -1 -15 -7 -28 -12 -30 -6 -2 -10 -12 -10 -21 0 -18 -38 -41 -65 -41 -27 0 -19 -69 11 -96 14 -13 30 -24 35 -24 15 0 59 -47 59 -63 0 -17 -22 -36 -80 -69 -44 -25 -68 -31 -62 -15 1 4 -7 7 -18 7 -11 0 -20 3 -20 8 0 8 -49 32 -67 32 -7 0 -13 5 -13 11 0 5 -4 8 -9 4 -5 -3 -16 2 -24 10 -9 8 -21 15 -28 15 -7 0 -10 3 -6 6 8 8 -19 35 -31 32 -6 -2 -20 8 -31 22 -19 21 -30 24 -91 24 -47 -1 -73 -6 -84 -16 -8 -9 -12 -18 -9 -22 4 -3 0 -6 -8 -6 -8 0 -15 -10 -16 -22 -1 -11 -7 -24 -13 -28 -6 -4 -12 -17 -13 -28 -1 -12 -5 -22 -9 -22 -4 0 -8 -12 -8 -26 0 -14 -4 -23 -9 -19 -6 3 -13 -15 -16 -40 -8 -47 1 -135 13 -135 4 0 7 -44 8 -98 0 -53 4 -106 9 -117 4 -11 9 -36 9 -55 l1 -35 125 2 c147 2 247 10 275 23 35 15 79 23 110 21 17 -2 85 -5 151 -7 109 -5 125 -3 158 15 20 12 54 21 75 21 33 0 48 8 94 50 53 48 57 50 115 50 51 0 73 7 163 51 99 49 106 50 175 48 59 -3 76 0 93 15 26 24 97 18 139 -13 17 -11 39 -21 50 -21 12 0 24 -4 27 -10 3 -5 14 -10 25 -10 10 0 44 -13 75 -30 31 -16 65 -30 75 -30 11 0 22 -4 25 -10 3 -5 21 -10 38 -10 51 -1 129 -25 143 -45 10 -13 21 -16 43 -11 17 3 44 9 60 12 22 4 38 0 60 -15 32 -23 56 -27 66 -11 4 6 54 10 117 10 108 0 111 -1 145 -30 25 -22 44 -30 72 -30 42 0 75 -28 106 -93 32 -67 82 -122 131 -147 94 -47 104 -57 104 -106 0 -55 -18 -92 -59 -122 -28 -21 -31 -26 -25 -65 11 -81 29 -129 57 -153 42 -35 68 -38 111 -15 20 12 45 21 54 21 10 0 23 5 28 10 6 6 50 11 98 12 l87 2 44 -47 c23 -26 48 -47 54 -47 6 0 21 -20 33 -45 12 -25 27 -46 32 -46 6 -1 27 -3 46 -4 96 -9 127 -19 187 -64 35 -25 63 -53 64 -61 2 -45 11 -85 22 -98 22 -27 129 -92 152 -92 13 0 37 -17 59 -40 23 -25 46 -40 61 -40 13 0 27 -5 30 -10 3 -5 16 -10 29 -10 12 0 26 -4 31 -8 24 -20 89 -33 133 -28 26 3 70 3 97 -2 44 -6 50 -10 53 -32 2 -16 -14 -58 -39 -105 -46 -87 -75 -125 -96 -125 -15 0 -86 -46 -137 -87 -34 -29 -90 -53 -121 -53 -24 0 -78 54 -106 107 -15 28 -21 31 -69 31 -29 0 -64 -7 -79 -14 -40 -21 -64 -17 -112 21 -24 19 -47 35 -51 35 -4 0 -21 -20 -38 -44 -27 -40 -29 -48 -19 -73 6 -15 15 -37 20 -48 4 -11 13 -51 20 -90 6 -38 21 -95 31 -125 11 -30 25 -70 32 -87 9 -27 14 -31 31 -25 22 8 85 8 212 0 89 -6 85 -7 161 60 65 58 86 65 171 57 110 -10 130 -13 199 -29 12 -4 30 -8 40 -10 72 -17 75 -20 111 -106 6 -13 5 -60 -1 -108 -1 -8 -13 -21 -27 -30 -14 -9 -46 -31 -71 -50 -44 -33 -47 -34 -120 -29 -41 2 -102 12 -135 22 -56 16 -64 16 -98 2 -35 -15 -37 -18 -32 -54 5 -41 27 -108 38 -119 4 -4 7 -17 7 -29 0 -11 4 -25 9 -30 5 -6 11 -44 13 -86 3 -80 3 -79 90 -199 28 -39 33 -52 31 -98 -1 -35 -9 -62 -24 -83 -19 -27 -27 -30 -59 -27 -24 2 -36 0 -32 -7 3 -5 16 -25 29 -44 13 -19 23 -40 23 -48 0 -26 45 -82 80 -100 19 -10 38 -22 42 -28 5 -7 8 -7 8 0 0 6 14 16 30 23 24 11 30 20 30 46 0 34 -20 86 -32 86 -5 0 -8 9 -8 20 0 11 -4 20 -10 20 -5 0 -10 14 -10 30 0 23 4 30 20 30 11 0 20 5 20 10 0 6 9 10 19 10 11 0 23 4 26 10 7 11 55 9 55 -2 0 -4 7 -8 16 -8 8 0 13 -4 10 -8 -3 -5 8 -9 24 -10 20 0 30 4 30 14 0 8 9 23 20 34 11 11 20 26 20 33 0 7 9 19 20 27 11 8 20 21 20 30 0 9 9 22 20 30 11 8 20 22 20 32 0 9 9 23 20 31 11 8 17 17 13 20 -3 4 1 7 10 7 9 0 17 5 17 10 0 18 55 5 80 -20 3 -3 18 -6 33 -8 42 -4 79 -21 72 -32 -3 -5 3 -10 14 -10 12 0 21 -5 21 -11 0 -6 14 -9 36 -6 24 4 37 1 41 -9 3 -8 9 -11 14 -8 6 3 15 1 22 -4 15 -12 55 2 63 23 4 8 15 15 25 15 10 0 19 4 19 10 0 5 3 9 8 9 33 -5 42 2 36 29 -4 15 -11 31 -15 37 -5 5 -9 37 -9 72 0 35 -4 63 -8 63 -11 0 -13 171 -1 198 41 100 41 101 16 126 -25 25 -59 89 -64 121 -2 11 -6 27 -10 35 -3 8 -7 21 -9 29 -3 17 -18 32 -35 35 -8 2 -23 6 -34 10 -11 5 -27 10 -35 13 -27 10 -90 11 -84 2 5 -8 -10 -13 -29 -10 -5 1 -6 -3 -2 -8 3 -6 -13 -16 -35 -22 -35 -11 -43 -10 -51 2 -5 8 -9 11 -9 7 0 -4 -12 4 -26 18 -26 27 -30 71 -6 66 7 -1 15 5 18 13 3 8 11 12 17 8 5 -3 7 -1 3 5 -6 11 30 28 49 23 5 -1 7 1 3 4 -4 4 3 16 15 27 21 17 20 17 -12 -1 -19 -11 -39 -17 -44 -14 -6 3 -7 1 -3 -5 6 -11 -6 -16 -26 -13 -5 0 -8 -4 -8 -10 0 -5 -4 -7 -10 -4 -5 3 -10 1 -10 -5 0 -7 -16 -10 -42 -8 l-43 3 -1 60 c-1 33 4 74 11 91 15 36 63 77 82 70 7 -3 13 -1 13 5 0 6 4 8 9 5 4 -3 22 23 39 58 29 59 74 106 101 106 6 0 11 4 11 10 0 5 3 9 8 8 4 0 18 4 32 10 14 6 19 11 13 11 -7 1 -13 9 -13 20 0 10 -12 31 -26 46 -24 26 -30 27 -85 22 -48 -4 -61 -2 -70 11 -9 15 -10 14 -6 -5 4 -17 -2 -24 -26 -32 -48 -17 -64 -14 -72 17 -3 15 -18 44 -32 65 l-26 37 33 66 c17 36 38 67 46 70 8 2 22 7 32 10 9 4 36 6 60 5 32 -2 42 1 42 13 0 9 7 16 15 16 8 0 19 9 25 20 6 11 17 20 25 20 8 0 15 4 15 10 0 5 -6 7 -14 4 -11 -4 -15 7 -18 49 -2 33 1 55 7 54 6 -1 11 24 12 55 l2 58 -80 0 -79 0 -1 53 c-2 87 -18 127 -50 127 -12 0 -20 3 -16 6 3 4 0 13 -8 21 -9 9 -13 24 -9 38 5 18 0 26 -27 39 -18 9 -43 16 -56 16 -12 0 -23 3 -23 8 0 13 -59 34 -80 27 -14 -4 -20 -2 -18 7 2 8 -5 12 -19 11 -14 -2 -23 3 -23 10 0 10 -21 13 -82 13 -61 -1 -82 -4 -80 -14 1 -6 -4 -11 -10 -10 -7 2 -14 -7 -16 -19 -2 -13 -8 -23 -13 -23 -6 0 -9 -19 -7 -42 2 -24 8 -42 13 -41 6 1 11 -7 11 -17 0 -10 -5 -18 -10 -17 -5 1 -11 -11 -12 -27 -4 -38 -17 -50 -40 -38 -11 5 -24 8 -30 5 -6 -2 -17 4 -25 14 -13 16 -12 17 4 4 31 -24 28 -6 -3 22 -16 15 -40 27 -53 27 -13 0 -38 7 -55 16 -18 8 -37 12 -43 9 -6 -4 -9 -1 -7 8 2 9 -1 16 -7 17 -20 3 -36 23 -30 38 6 15 -42 75 -54 68 -3 -2 -6 15 -6 37 0 23 -4 41 -10 40 -6 -1 -10 45 -10 120 0 90 -3 121 -12 120 -8 -2 -10 4 -6 14 4 9 -1 21 -11 28 -9 7 -16 17 -15 21 1 5 -3 23 -10 39 -19 47 -2 182 25 198 8 4 14 16 14 25 0 10 15 33 34 53 31 31 34 41 37 101 2 37 0 70 -5 75 -5 4 -6 3 -3 -3 6 -10 -21 -30 -28 -22 -24 29 -28 97 -5 83 9 -5 18 45 12 64 -2 6 -21 20 -41 31 -50 25 -62 41 -72 96 -10 52 -30 73 -70 74 -39 0 -50 -20 -43 -74 6 -39 4 -46 -10 -46 -9 0 -31 14 -49 30 -18 17 -44 36 -59 43 -16 6 -28 19 -28 28 0 13 9 15 54 11 49 -4 54 -2 59 19 17 61 -4 147 -40 168 -15 9 -13 10 15 11 17 0 32 -4 32 -10 0 -5 7 -10 16 -10 8 0 33 -18 54 -40 33 -35 44 -40 82 -40 32 0 47 5 58 20 12 16 26 20 78 20 43 0 68 5 78 15 9 8 11 15 5 15 -5 0 -13 -4 -16 -10 -3 -5 -34 -10 -69 -10 -48 0 -67 -4 -84 -20 -35 -33 -80 -26 -127 20 -22 22 -46 40 -52 40 -7 0 -13 5 -13 10 0 6 -19 10 -42 11 -43 0 -135 16 -109 18 13 1 12 16 -4 71 -4 12 7 15 55 15 74 0 94 18 103 94 3 29 12 59 18 67 7 9 10 34 7 65 -4 38 -12 57 -32 76 -29 27 -27 43 7 43 12 0 34 6 49 14 23 12 29 12 39 0 19 -23 36 -16 49 19 6 17 16 40 21 50 7 12 5 32 -6 64 -21 60 -26 141 -12 165 9 14 9 23 -1 38 -6 11 -12 25 -12 32 0 30 -209 142 -297 159 -32 6 -107 13 -168 16 l-110 4 -37 -36z" />
        <path
            title="kongbai"
            d="M8347 5232 c6 -4 13 -23 16 -42 4 -33 4 -33 5 8 2 34 -1 42 -15 42 -12 0 -14 -3 -6 -8z" />
        <path
            title="kongbai"
            d="M1055 4703 c-21 -44 -144 -174 -192 -204 -18 -12 -47 -41 -64 -65 -16 -24 -35 -44 -42 -44 -7 1 -42 -14 -79 -32 l-67 -33 -1 -107 0 -107 -35 -24 c-19 -13 -48 -43 -65 -66 -17 -23 -45 -48 -63 -55 -104 -45 -146 -66 -152 -76 -4 -7 3 -23 17 -37 l25 -25 41 21 c23 12 55 21 71 21 32 0 34 -3 45 -80 10 -68 18 -100 28 -106 6 -4 27 12 48 35 21 22 45 41 54 41 9 0 16 5 16 10 0 6 9 10 20 10 11 0 20 5 20 10 0 6 9 10 20 10 11 0 20 5 20 10 0 6 8 10 18 10 10 0 24 9 32 20 8 11 22 20 32 20 10 0 23 9 30 20 7 11 18 20 25 20 15 0 63 47 63 61 0 6 23 32 50 59 28 27 50 55 50 64 0 8 5 16 11 18 7 2 13 26 14 54 1 27 9 65 18 83 9 19 17 40 17 48 0 7 5 13 10 13 6 0 10 9 10 20 0 11 5 20 10 20 6 0 10 9 10 19 0 11 5 21 10 23 15 5 16 251 1 256 -6 2 -11 12 -11 23 0 10 -4 19 -10 19 -5 0 -10 14 -10 30 0 42 -24 38 -45 -7z" />
        <path
            title="kongbai"
            d="M3480 4427 c0 -5 23 -30 50 -57 28 -27 50 -56 50 -64 0 -9 5 -16 10 -16 6 0 10 -13 10 -30 0 -16 5 -30 10 -30 6 0 10 -13 10 -30 0 -16 5 -30 10 -30 6 0 10 -9 10 -20 0 -11 5 -20 10 -20 17 0 13 -189 -4 -206 -23 -22 -95 -18 -117 8 -11 11 -19 17 -19 11 0 -23 38 -43 81 -43 73 1 79 11 79 134 0 64 -4 106 -10 106 -5 0 -10 9 -10 20 0 11 -4 20 -10 20 -5 0 -10 14 -10 30 0 17 -4 30 -10 30 -5 0 -10 14 -10 30 0 17 -4 30 -10 30 -5 0 -10 6 -10 13 0 7 -25 37 -55 67 -30 30 -55 51 -55 47z" />
        <path
            title="kongbai"
            d="M1920 4380 c0 -5 -9 -10 -20 -10 -11 0 -20 -4 -20 -10 0 -5 -7 -10 -16 -10 -8 0 -22 -7 -30 -15 -14 -13 -14 -15 0 -15 9 0 16 5 16 10 0 6 9 10 20 10 11 0 20 5 20 10 0 6 9 10 20 10 11 0 20 7 20 15 0 8 -2 15 -5 15 -3 0 -5 -4 -5 -10z" />
        <path
            title="kongbai"
            d="M2310 4371 c0 -5 -9 -11 -20 -14 -19 -5 -21 -12 -18 -69 2 -52 6 -63 21 -64 12 -1 13 -1 2 3 -11 3 -15 19 -15 64 0 52 2 59 20 59 11 0 20 4 20 9 0 5 10 12 23 14 19 4 18 4 -5 6 -16 0 -28 -3 -28 -8z" />
        <path
            title="kongbai"
            d="M2388 4373 c12 -2 32 -2 45 0 12 2 2 4 -23 4 -25 0 -35 -2 -22 -4z" />
        <path
            title="kongbai"
            d="M2500 4361 c0 -6 4 -11 9 -11 6 0 12 -17 14 -37 l4 -38 1 36 c1 22 -4 42 -13 49 -10 9 -15 9 -15 1z" />
        <path
            title="kongbai"
            d="M5709 4333 l-24 -26 27 19 c15 10 28 22 28 27 0 12 -5 8 -31 -20z" />
        <path
            title="kongbai"
            d="M2500 4260 c0 -5 -9 -10 -20 -10 -11 0 -20 -4 -20 -9 0 -6 -15 -12 -32 -14 -32 -4 -32 -4 5 -5 20 -1 37 3 37 8 0 6 9 10 19 10 10 0 21 7 25 15 3 8 1 15 -4 15 -6 0 -10 -4 -10 -10z" />
        <path
            title="kongbai"
            d="M9755 4251 c-6 -5 -21 -11 -35 -14 -24 -4 -24 -4 3 -6 16 0 35 6 43 14 16 16 5 22 -11 6z" />
        <path
            title="kongbai"
            d="M9824 4235 c25 -25 76 -35 76 -15 0 6 18 10 40 10 30 0 40 -4 40 -16 0 -18 -23 -44 -40 -44 -18 0 -40 -27 -39 -47 0 -14 2 -15 6 -3 9 21 29 40 44 40 17 0 38 31 39 58 0 20 -5 22 -44 22 -25 0 -48 -4 -51 -10 -10 -16 -41 -11 -60 10 -10 11 -22 20 -27 20 -5 0 2 -11 16 -25z" />
        <path
            title="kongbai"
            d="M1563 4222 c-13 -2 -23 -8 -23 -13 0 -5 -9 -9 -20 -9 -13 0 -20 -7 -20 -20 0 -11 -4 -20 -10 -20 -5 0 -10 -9 -10 -19 0 -11 -6 -21 -12 -24 -10 -3 -13 -32 -11 -105 2 -106 9 -125 49 -134 10 -2 18 -9 17 -15 -1 -6 15 -24 37 -42 28 -22 45 -48 61 -92 25 -68 62 -103 131 -124 l43 -13 -83 -3 c-46 -2 -86 -1 -89 4 -2 4 -31 7 -64 7 l-59 0 -2 -32 c-2 -51 3 -83 13 -86 5 -2 9 -16 9 -31 0 -22 -5 -27 -26 -29 -15 -1 -32 -7 -39 -12 -7 -6 -21 -9 -31 -9 -55 5 -64 0 -64 -36 0 -29 -9 -44 -50 -84 -27 -27 -50 -55 -50 -63 0 -7 -9 -20 -20 -28 -11 -8 -20 -20 -20 -28 0 -7 -13 -27 -30 -45 -16 -18 -30 -40 -30 -49 0 -16 15 -18 169 -18 103 0 172 -4 176 -10 3 -5 13 -10 21 -10 8 0 33 -9 57 -19 63 -29 94 -31 113 -10 10 11 23 19 31 19 7 0 13 5 13 10 0 6 8 10 18 10 9 0 26 11 36 25 10 13 22 22 27 20 4 -3 10 -1 14 5 3 5 15 10 26 10 10 0 19 5 19 10 0 6 7 10 16 10 29 0 44 27 46 84 1 31 6 56 10 56 4 0 8 7 8 16 0 8 5 12 10 9 6 -3 10 -2 10 3 0 15 74 8 90 -8 31 -31 73 -45 128 -43 30 2 58 6 61 9 3 3 6 39 6 80 -1 64 1 74 17 74 10 0 23 -9 30 -20 7 -11 19 -20 26 -20 7 0 10 -4 7 -10 -13 -21 81 -15 103 6 18 19 23 191 5 202 -6 4 -13 18 -14 32 -4 24 -2 25 76 31 l80 5 -82 2 c-66 2 -83 5 -83 17 0 8 -5 15 -11 15 -18 0 -1 81 21 100 11 10 20 23 20 29 0 7 22 34 50 61 41 40 50 55 50 84 0 32 3 35 33 39 l32 5 -35 -2 c-32 -1 -35 -4 -38 -35 -3 -24 -17 -48 -50 -83 -26 -27 -49 -55 -51 -61 -2 -6 -12 -20 -23 -31 -10 -11 -18 -26 -18 -33 0 -19 -19 -16 -27 4 -10 26 -88 100 -129 123 -24 14 -55 21 -95 21 -32 1 -59 5 -59 9 0 17 -36 19 -80 6 -40 -12 -45 -17 -53 -52 -5 -21 -7 -74 -4 -116 3 -69 1 -80 -17 -97 -43 -39 -61 -42 -135 -27 -118 25 -156 54 -186 146 -11 33 -29 60 -53 80 -35 29 -36 30 -12 30 22 0 54 14 135 57 38 20 91 33 137 33 65 0 76 17 75 113 0 42 -4 77 -9 77 -4 0 -5 7 -2 15 8 21 189 22 209 1 8 -7 16 -40 18 -72 l3 -59 2 61 c3 89 -7 95 -148 93 -102 -1 -113 0 -126 19 -8 11 -22 21 -32 21 -9 0 -66 2 -127 3 -60 2 -120 2 -132 0z" />
        <path
            title="kongbai"
            d="M10083 3973 c20 -2 37 -8 37 -14 0 -5 9 -9 20 -9 11 0 20 -4 20 -10 0 -6 37 -10 90 -10 53 0 90 4 90 10 0 6 23 10 50 10 41 0 50 -3 50 -18 0 -10 9 -24 20 -32 11 -8 20 -22 20 -32 0 -10 5 -18 10 -18 6 0 10 -9 10 -20 0 -11 5 -20 10 -20 6 0 10 -9 10 -20 0 -11 5 -20 10 -20 6 0 10 -47 10 -120 0 -73 4 -120 10 -120 6 0 10 -16 10 -36 0 -27 7 -43 30 -64 17 -15 30 -33 30 -39 0 -17 67 -81 85 -81 8 0 15 -4 15 -10 0 -5 16 -10 36 -10 27 0 43 -7 64 -30 15 -16 38 -30 50 -30 25 0 50 22 50 44 0 9 5 16 10 16 6 0 10 9 10 20 0 11 -4 20 -10 20 -5 0 -10 18 -10 40 0 22 5 40 10 40 6 0 10 7 10 16 0 33 26 44 104 44 44 0 76 -4 76 -10 0 -5 9 -10 20 -10 11 0 20 -4 20 -10 0 -5 14 -10 30 -10 17 0 30 -4 30 -10 0 -5 9 -10 20 -10 11 0 20 -4 20 -10 0 -5 14 -10 30 -10 17 0 30 -4 30 -10 0 -5 9 -10 20 -10 16 0 20 -7 20 -36 0 -38 18 -64 44 -64 9 0 16 -8 16 -20 0 -11 5 -20 10 -20 6 0 10 -30 10 -70 l0 -70 80 0 80 0 0 -50 c0 -27 -4 -50 -10 -50 -6 0 -10 -28 -10 -65 0 -56 -4 -69 -24 -90 -13 -13 -36 -25 -52 -28 l-29 -4 29 -2 c20 -1 39 8 58 26 25 24 28 34 28 90 0 35 4 63 10 63 6 0 10 27 10 60 l0 60 -80 0 -80 0 0 70 c0 40 -4 70 -10 70 -5 0 -10 7 -10 15 0 9 -8 19 -17 22 -30 12 -43 30 -43 63 0 23 -5 33 -20 37 -11 3 -20 9 -20 14 0 5 -13 9 -30 9 -16 0 -30 5 -30 10 0 6 -9 10 -20 10 -11 0 -20 5 -20 10 0 6 -13 10 -30 10 -16 0 -30 5 -30 10 0 6 -9 10 -20 10 -11 0 -20 5 -20 10 0 6 -34 10 -83 10 -69 0 -87 -3 -100 -18 -10 -10 -17 -24 -17 -30 0 -7 -4 -12 -10 -12 -15 0 -12 -97 3 -104 10 -5 10 -7 0 -12 -7 -3 -13 -12 -13 -21 0 -18 -24 -43 -42 -43 -8 0 -27 14 -43 30 -21 22 -38 30 -62 30 -18 0 -33 5 -33 10 0 6 -7 10 -16 10 -17 0 -84 61 -84 77 0 4 -14 22 -30 40 -22 23 -30 42 -30 67 0 20 -4 36 -10 36 -6 0 -10 47 -10 120 0 73 -4 120 -10 120 -5 0 -10 9 -10 20 0 11 -4 20 -10 20 -5 0 -10 9 -10 20 0 11 -4 20 -10 20 -5 0 -10 6 -10 13 0 7 -8 22 -18 33 -10 10 -21 27 -25 37 -5 13 -18 17 -62 17 -30 0 -55 -4 -55 -10 0 -6 -33 -10 -80 -10 -47 0 -80 4 -80 10 0 6 -9 10 -20 10 -11 0 -20 5 -20 10 0 6 -19 9 -42 8 l-43 -1 38 -4z" />
        <path
            title="kongbai"
            d="M2100 3950 c0 -11 -4 -20 -10 -20 -5 0 -10 -5 -10 -11 0 -8 4 -8 14 0 17 14 28 51 15 51 -5 0 -9 -9 -9 -20z" />
        <path
            title="kongbai"
            d="M1143 3803 c-13 -3 -23 -9 -23 -14 0 -5 -9 -9 -20 -9 -18 0 -20 -7 -20 -59 0 -54 2 -59 24 -63 44 -9 150 -1 154 10 2 7 11 12 19 12 27 0 53 40 46 69 -3 14 -11 31 -17 37 -12 11 -126 23 -163 17z" />
        <path
            title="kongbai"
            d="M3040 3660 c0 -5 -8 -10 -18 -10 -10 0 -24 -9 -32 -20 -8 -11 -22 -20 -32 -20 -10 0 -18 -4 -18 -10 0 -5 -8 -10 -18 -10 -10 0 -24 -8 -31 -19 -16 -21 -44 -17 -143 25 -37 15 -75 24 -105 23 l-48 -2 55 -7 c30 -4 75 -17 100 -28 25 -12 64 -25 87 -30 35 -8 45 -7 62 9 11 11 27 19 36 19 8 0 15 5 15 10 0 6 6 10 13 10 7 0 23 9 35 20 12 11 28 20 37 20 8 0 15 4 15 9 0 5 10 12 23 14 19 4 18 4 -5 6 -16 0 -28 -3 -28 -9z" />
        <path
            title="kongbai"
            d="M748 3602 c-27 -2 -48 -6 -48 -10 0 -4 -13 -13 -30 -20 -16 -8 -30 -19 -30 -26 0 -17 -106 -126 -123 -126 -7 0 -19 -9 -27 -20 -8 -11 -22 -20 -32 -20 -10 0 -18 -4 -18 -10 0 -5 -9 -10 -19 -10 -11 0 -23 -5 -26 -10 -3 -6 -17 -7 -30 -4 -20 5 -25 1 -31 -21 -6 -24 -1 -32 35 -62 22 -19 41 -40 41 -47 0 -21 47 -110 66 -127 30 -27 105 -57 159 -63 28 -4 71 -9 97 -13 70 -8 93 1 106 43 10 34 7 64 -7 64 -10 0 -11 74 -1 80 5 3 11 30 13 59 3 41 11 62 31 83 14 16 26 35 26 42 0 8 4 16 10 18 10 3 15 57 12 129 -3 67 -35 80 -174 71z" />
        <path
            title="kongbai"
            d="M10756 1621 c1 -26 7 -57 13 -71 13 -34 14 0 1 35 -8 20 -7 35 4 55 12 26 12 28 -3 27 -14 -1 -17 -10 -15 -46z" />
        <path
            title="kongbai"
            d="M11862 1473 c-1 -50 2 -83 8 -83 6 0 10 -30 10 -70 0 -40 4 -70 10 -70 6 0 10 -13 10 -30 0 -23 -4 -30 -20 -30 -11 0 -20 -4 -20 -10 0 -5 -8 -10 -18 -10 -10 0 -24 -9 -32 -20 -10 -14 -26 -20 -52 -20 -21 0 -38 5 -38 10 0 6 -18 10 -40 10 -22 0 -40 5 -40 10 0 6 -9 10 -20 10 -11 0 -20 5 -20 10 0 6 -5 10 -11 10 -8 0 -8 -5 1 -15 7 -8 19 -15 26 -15 8 0 14 -4 14 -10 0 -5 18 -10 40 -10 22 0 40 -4 40 -10 0 -19 85 -11 108 10 12 11 28 20 37 20 8 0 15 5 15 10 0 6 9 10 20 10 17 0 20 7 20 40 0 22 -4 40 -10 40 -6 0 -10 30 -10 70 0 39 -4 70 -10 70 -5 0 -11 35 -13 78 l-3 77 -2 -82z" />
        <path
            title="kongbai"
            d="M11020 933 c0 -13 5 -23 10 -23 6 0 10 -9 10 -20 0 -11 5 -20 10 -20 6 0 10 -9 10 -20 0 -11 5 -20 10 -20 15 0 12 -70 -4 -86 -17 -17 -51 -21 -86 -10 -20 7 -23 6 -12 -5 18 -19 78 -16 102 6 14 13 20 30 20 62 0 23 -4 43 -10 43 -5 0 -10 9 -10 19 0 11 -4 21 -8 23 -4 2 -15 19 -25 38 -14 29 -17 31 -17 13z" />
    </g>
    <g
        fill="#bf6f7c"
        id="layer101"
        stroke="none">
        <path
            title="kejiafangyan"
            d="M8212 9729 c-26 -10 -26 -9 6 -61 l23 -36 39 16 c43 18 49 35 24 70 -16 23 -51 28 -92 11z" />
        <path
            title="kejiafangyan"
            d="M8245 9146 c-23 -8 -46 -23 -56 -39 -17 -29 -26 -146 -12 -156 4 -3 13 -15 19 -26 10 -18 22 -20 145 -20 129 0 134 1 144 23 5 12 13 22 17 22 5 0 8 34 8 76 0 79 -7 95 -55 120 -29 15 -161 15 -210 0z" />
        <path
            title="kejiafangyan"
            d="M7923 9086 c-11 -13 -18 -66 -15 -118 3 -37 75 -72 127 -62 l35 6 0 94 0 94 -32 -7 c-18 -3 -38 -13 -44 -21 -12 -17 -34 -8 -34 14 0 18 -21 18 -37 0z" />
        <path
            title="kejiafangyan"
            d="M8610 8930 c0 -5 -7 -10 -16 -10 -31 0 -44 -27 -44 -94 0 -50 3 -66 14 -66 9 0 12 -7 9 -20 -5 -19 0 -20 66 -20 69 0 71 1 71 24 0 14 5 28 11 32 8 4 9 -1 4 -17 -7 -21 -6 -22 9 -7 9 9 16 24 16 32 0 9 5 16 10 16 6 0 10 16 10 36 0 34 -18 64 -38 64 -6 0 -8 9 -5 20 5 18 0 20 -56 20 -34 0 -61 -4 -61 -10z" />
        <path
            title="kejiafangyan"
            d="M9405 8780 c-4 -6 -11 -8 -16 -5 -5 4 -16 -1 -25 -9 -8 -9 -23 -21 -33 -28 -10 -7 -30 -37 -45 -66 -24 -47 -25 -54 -11 -68 8 -9 15 -27 15 -42 0 -33 9 -46 35 -57 18 -7 16 -9 -12 -15 -33 -8 -63 -31 -63 -49 0 -17 14 -13 33 9 9 11 26 20 37 20 33 0 7 -36 -35 -50 -33 -11 -38 -10 -60 14 -45 49 -91 29 -101 -45 -5 -37 -13 -54 -30 -66 -17 -11 -24 -25 -24 -48 0 -27 -6 -37 -35 -55 -19 -12 -35 -28 -35 -35 0 -26 19 -63 44 -88 14 -14 21 -27 16 -29 -5 -2 2 -25 16 -53 13 -27 24 -62 24 -77 0 -21 5 -28 19 -28 31 0 50 -11 45 -24 -3 -7 2 -34 11 -60 9 -26 13 -56 10 -67 -4 -12 -1 -41 5 -65 11 -37 10 -47 -4 -68 -10 -16 -16 -46 -16 -83 0 -80 8 -103 34 -103 32 1 60 48 66 109 3 31 10 56 18 59 7 2 25 -10 41 -27 35 -37 40 -38 74 -8 32 27 37 80 10 96 -14 8 -15 10 -3 11 13 0 13 1 0 11 -12 8 -9 9 10 4 14 -4 35 -19 48 -33 54 -62 70 -82 64 -82 -3 0 13 -18 36 -40 37 -36 46 -40 93 -40 44 0 55 -4 80 -31 16 -17 26 -35 23 -40 -3 -5 5 -9 18 -9 18 0 20 2 8 10 -13 8 -12 10 4 10 12 0 16 5 12 15 -3 8 -1 15 4 15 6 0 10 7 10 15 0 26 22 63 44 72 12 6 62 7 121 3 57 -4 105 -3 112 2 6 5 23 6 37 2 36 -9 58 11 52 48 -5 34 -2 31 -41 51 -51 27 -56 33 -70 73 -12 37 -12 40 16 72 35 39 36 56 8 102 -42 68 -42 87 -1 132 34 37 37 46 38 102 0 34 9 82 19 107 18 44 18 48 2 73 -15 22 -25 26 -66 26 -59 0 -85 18 -115 81 -18 38 -28 46 -71 60 -42 13 -52 21 -65 52 -12 30 -21 37 -53 43 -23 3 -55 21 -83 45 -25 21 -52 39 -61 39 -9 0 -14 3 -10 6 10 10 -52 64 -73 64 -11 0 -28 4 -38 9 -35 17 -93 41 -102 41 -5 0 -12 -5 -15 -10z" />
        <path
            title="kejiafangyan"
            d="M10995 8536 c-22 -51 -26 -73 -20 -103 9 -47 21 -63 50 -63 28 0 31 8 46 116 12 81 11 88 -6 100 -32 23 -42 16 -70 -50z" />
        <path
            title="kejiafangyan"
            d="M11166 8471 c-13 -14 -16 -24 -9 -33 6 -7 13 -25 17 -40 4 -19 13 -28 26 -28 17 0 20 7 20 39 0 22 -8 48 -18 61 l-17 22 -19 -21z" />
        <path
            title="kejiafangyan"
            d="M11000 8078 c0 -7 4 -29 9 -48 6 -19 15 -54 21 -77 8 -32 20 -49 48 -68 46 -31 56 -31 70 0 17 37 15 49 -17 102 -16 27 -31 60 -35 76 -6 24 -11 27 -51 27 -29 0 -45 -4 -45 -12z" />
    </g>
    <g
        fill="#edb36a"
        id="layer102"
        stroke="none">
        <path
            title="kejiafangyan"
            d="M8212 9729 c-26 -10 -26 -9 6 -61 l23 -36 39 16 c43 18 49 35 24 70 -16 23 -51 28 -92 11z" />
        <path
            title="kejiafangyan"
            d="M8270 9149 c-68 -14 -106 -95 -78 -167 20 -53 57 -70 156 -73 81 -3 83 -2 107 26 43 53 66 175 33 175 -5 0 -7 4 -3 9 3 5 1 12 -5 16 -5 3 -10 2 -10 -4 0 -6 -16 -3 -37 6 -42 17 -111 22 -163 12z" />
        <path
            title="kejiafangyan"
            d="M7928 9071 c-12 -12 -18 -33 -18 -63 0 -46 13 -66 55 -83 35 -14 54 -15 80 -5 23 9 25 15 25 68 0 85 -41 130 -76 85 -13 -17 -15 -17 -28 0 -16 21 -16 20 -38 -2z" />
        <path
            title="kejiafangyan"
            d="M8618 8905 c-21 -14 -44 -37 -51 -52 -13 -24 -12 -31 11 -75 24 -46 27 -48 66 -48 31 0 45 5 56 21 8 12 20 27 25 33 6 7 16 22 24 36 12 21 11 25 -7 39 -12 9 -26 28 -31 44 -13 35 -44 35 -93 2z" />
        <path
            title="kejiafangyan"
            d="M9395 8746 c-27 -18 -65 -53 -82 -79 -29 -40 -32 -50 -27 -90 4 -25 9 -49 13 -53 13 -18 49 -32 74 -30 16 2 28 -3 32 -12 7 -18 13 -13 -66 -51 -81 -38 -116 -40 -121 -8 -2 13 -11 23 -23 25 -34 5 -57 -21 -62 -71 -5 -42 -26 -77 -42 -69 -3 1 -7 -13 -9 -32 -2 -25 -13 -43 -35 -62 -22 -18 -32 -36 -32 -55 0 -15 5 -27 10 -26 6 1 9 -6 9 -15 -1 -10 3 -16 10 -15 6 1 10 -4 8 -11 -1 -6 3 -11 9 -10 6 2 20 -13 30 -32 15 -26 19 -48 16 -87 -3 -45 -1 -53 14 -53 29 0 48 -11 43 -24 -3 -7 2 -34 11 -60 9 -26 13 -56 10 -67 -4 -12 -1 -41 5 -65 11 -37 10 -47 -4 -68 -10 -16 -16 -46 -16 -83 0 -80 8 -103 34 -103 32 1 60 48 66 109 3 31 10 56 18 59 7 2 25 -10 41 -27 35 -37 40 -38 74 -8 32 27 37 80 10 96 -14 8 -15 10 -3 11 13 0 13 1 0 11 -12 8 -9 9 10 4 14 -4 35 -19 48 -33 54 -62 70 -82 64 -82 -3 0 13 -18 36 -40 37 -36 46 -40 93 -40 44 0 55 -4 80 -31 16 -17 26 -35 23 -40 -3 -5 5 -9 18 -9 18 0 20 2 8 10 -13 8 -12 10 4 10 12 0 16 5 12 15 -3 8 -1 15 4 15 6 0 10 7 10 15 0 26 22 63 44 72 12 6 63 7 121 3 55 -4 102 -4 105 0 9 11 40 20 40 11 0 -13 25 -8 44 8 11 9 14 21 10 34 -7 24 -29 48 -36 41 -3 -2 -13 5 -23 16 -10 11 -24 20 -32 20 -8 0 -12 4 -9 9 4 5 1 11 -6 13 -6 2 -13 20 -14 39 -2 26 4 41 28 65 l30 32 -28 58 c-41 85 -41 98 2 139 19 19 32 35 27 35 -4 0 -2 4 6 9 10 7 11 18 3 54 -5 26 -7 49 -3 52 3 4 6 10 7 13 0 4 6 19 12 33 6 15 12 33 13 40 4 17 -10 59 -19 60 -4 0 -29 2 -55 4 -29 1 -56 10 -69 21 -15 13 -19 14 -14 4 4 -8 1 -6 -8 4 -8 10 -13 23 -10 27 3 5 0 9 -6 9 -6 0 -8 5 -5 11 4 6 -1 17 -11 25 -11 9 -13 13 -4 9 8 -4 5 2 -7 13 -12 11 -40 22 -62 26 -31 5 -43 13 -55 37 -9 17 -14 35 -11 39 4 7 -3 8 -50 11 -14 1 -25 5 -25 10 0 5 -7 9 -15 9 -8 0 -15 5 -15 11 0 5 -4 8 -9 4 -5 -3 -13 4 -16 16 -4 11 -21 27 -38 34 -18 8 -28 14 -24 15 4 0 -7 14 -24 31 -20 19 -38 29 -50 26 -10 -3 -23 1 -29 8 -6 7 -21 15 -33 18 -12 2 -29 7 -37 10 -8 3 -37 -9 -65 -27z" />
        <path
            title="kejiafangyan"
            d="M11022 8587 c-6 -7 -20 -35 -32 -62 -33 -77 -15 -155 35 -155 28 0 31 8 46 116 12 81 11 88 -6 100 -23 17 -30 17 -43 1z" />
        <path
            title="kejiafangyan"
            d="M11166 8471 c-13 -14 -16 -24 -9 -33 6 -7 13 -25 17 -40 4 -19 13 -28 26 -28 17 0 20 7 20 39 0 22 -8 48 -18 61 l-17 22 -19 -21z" />
        <path
            title="kejiafangyan"
            d="M11000 8078 c0 -7 4 -29 9 -48 6 -19 15 -54 21 -77 8 -32 20 -49 48 -68 46 -31 56 -31 70 0 17 37 15 49 -17 102 -16 27 -31 60 -35 76 -6 24 -11 27 -51 27 -29 0 -45 -4 -45 -12z" />
        <path
            title="kejiafangyan"
            d="M9066 8033 c23 -54 38 -66 29 -23 -8 36 -22 60 -36 60 -4 0 -1 -17 7 -37z" />
    </g>
    <g
        fill="#ad8762"
        id="layer101"
        stroke="none">
        <path
            title="guanhuafangyan"
            d="M6077 9243 c-4 -3 -7 -19 -7 -34 0 -18 -11 -37 -36 -58 -35 -32 -36 -32 -62 -15 -15 10 -38 30 -52 45 -14 15 -51 35 -83 45 l-57 18 -24 -23 c-13 -13 -27 -37 -30 -55 -11 -57 -30 -74 -94 -82 -31 -3 -65 -11 -74 -16 -26 -13 -23 -77 7 -160 14 -38 25 -75 25 -81 0 -7 -24 -22 -53 -33 -60 -25 -67 -39 -87 -185 -6 -47 -15 -91 -20 -98 -13 -22 -112 -14 -200 15 -88 29 -106 27 -116 -11 -7 -28 3 -54 36 -95 13 -16 27 -63 40 -128 28 -149 46 -177 148 -227 127 -63 135 -74 144 -197 4 -57 10 -133 14 -169 l6 -67 -31 -7 c-23 -5 -37 -17 -51 -46 -20 -38 -41 -153 -33 -175 2 -6 28 -21 57 -33 64 -26 74 -44 89 -160 l12 -84 52 -38 c29 -22 56 -39 62 -39 18 0 30 61 37 185 7 122 15 151 28 100 16 -63 49 -135 61 -135 19 0 64 61 80 107 17 50 53 63 94 34 36 -26 57 -27 71 -2 9 17 18 19 67 14 32 -3 64 -10 71 -16 7 -5 19 -35 28 -66 9 -31 24 -72 34 -91 10 -19 23 -60 29 -90 6 -30 19 -74 27 -97 15 -38 15 -46 -1 -92 -27 -83 -19 -109 47 -155 l56 -39 -19 -34 c-10 -18 -19 -49 -19 -67 0 -38 18 -96 30 -96 5 0 11 -8 15 -19 6 -21 72 -53 108 -53 34 0 93 20 107 38 23 26 32 15 26 -28 -6 -42 -5 -43 35 -62 22 -10 53 -36 69 -58 l29 -39 -19 -42 c-21 -45 -25 -117 -11 -201 10 -58 42 -90 109 -108 24 -7 42 -18 42 -26 0 -8 -22 -36 -49 -62 -48 -46 -48 -47 -55 -130 -4 -45 -12 -93 -18 -105 -5 -12 -39 -38 -74 -59 -58 -33 -64 -39 -64 -69 0 -39 15 -57 47 -57 34 0 28 -15 -14 -33 -21 -9 -59 -25 -86 -36 -39 -16 -48 -26 -53 -51 l-7 -31 -22 21 c-19 18 -22 29 -18 61 5 35 3 39 -21 49 -15 5 -44 10 -65 10 -35 0 -40 -4 -62 -47 -21 -39 -32 -49 -71 -62 -78 -26 -81 -33 -85 -177 -3 -120 -5 -130 -30 -167 -22 -31 -25 -43 -17 -65 8 -23 16 -27 53 -30 33 -3 41 -7 37 -18 -3 -9 -6 -24 -6 -35 0 -12 -7 -19 -20 -19 -12 0 -32 -11 -45 -25 -32 -31 -34 -93 -6 -119 16 -15 18 -23 9 -46 -11 -32 -80 -100 -102 -100 -7 0 -32 -14 -54 -30 -34 -24 -42 -36 -42 -61 0 -17 9 -42 20 -56 32 -41 13 -40 -28 0 -56 55 -110 48 -177 -23 -16 -18 -52 -43 -80 -57 l-49 -26 -44 24 c-45 24 -55 24 -227 -3 -14 -2 -25 8 -40 37 -21 40 -22 40 -84 43 -102 5 -153 -18 -238 -105 -61 -63 -84 -79 -145 -104 -40 -15 -87 -28 -104 -29 -17 0 -51 -7 -76 -16 -41 -14 -54 -14 -139 1 -51 9 -100 20 -110 25 -30 17 -112 31 -229 40 -326 26 -342 28 -362 47 -25 23 -21 92 9 149 17 33 28 41 72 54 29 8 59 24 68 35 21 29 11 89 -24 128 -61 70 -79 158 -35 174 24 9 32 23 32 59 0 26 -10 39 -62 80 -78 61 -112 63 -208 14 -45 -24 -86 -36 -135 -42 -224 -24 -224 -24 -273 -59 -43 -31 -53 -34 -112 -32 -109 3 -258 38 -333 77 -38 20 -77 36 -88 36 -11 0 -39 10 -62 22 -37 19 -65 22 -222 28 -99 4 -187 5 -195 2 -8 -3 -41 -23 -72 -44 -36 -24 -76 -42 -110 -48 -29 -6 -87 -16 -128 -24 -71 -13 -77 -13 -108 6 -50 30 -112 19 -240 -42 l-107 -51 -50 15 c-83 25 -197 46 -245 46 -97 0 -121 -58 -70 -167 29 -61 32 -76 31 -152 -2 -76 -6 -91 -46 -175 -24 -50 -47 -113 -51 -141 -9 -65 -14 -75 -96 -172 -77 -91 -153 -150 -274 -213 -121 -63 -153 -94 -163 -160 -7 -44 -15 -60 -42 -83 -19 -15 -46 -31 -61 -34 -41 -8 -48 -23 -55 -117 l-6 -86 25 0 c70 0 197 78 277 169 60 70 73 78 137 90 64 12 110 -2 129 -40 14 -27 14 -36 0 -92 -9 -34 -28 -80 -42 -102 -15 -22 -31 -60 -36 -85 -12 -55 -15 -159 -5 -183 7 -16 10 -16 48 4 37 19 46 20 81 10 22 -7 54 -25 73 -41 38 -34 98 -41 132 -15 10 8 15 15 11 15 -5 0 5 12 22 26 17 14 46 51 65 82 19 32 53 73 76 91 34 27 40 37 38 66 -3 44 14 62 65 70 116 18 109 15 104 49 -2 17 -10 45 -17 62 -8 18 -10 42 -6 58 7 27 9 28 49 22 90 -14 321 -18 359 -6 69 20 92 89 69 208 -12 61 2 72 97 73 101 2 110 0 155 -22 60 -31 122 -98 142 -154 10 -27 29 -77 43 -110 29 -68 32 -132 8 -188 -19 -47 -44 -48 -95 -2 -21 19 -52 38 -68 41 l-29 6 -1 -82 c-1 -115 -17 -123 -136 -65 -75 37 -100 41 -140 26 -27 -11 -47 -56 -47 -107 0 -28 -7 -39 -42 -64 -22 -16 -45 -30 -50 -30 -7 0 -140 -85 -166 -106 -2 -1 2 -12 8 -24 12 -22 16 -22 99 -16 70 5 90 3 109 -9 30 -22 52 -67 52 -107 0 -18 18 -69 40 -113 40 -83 51 -121 69 -235 6 -36 22 -103 36 -150 28 -91 27 -125 -4 -169 -11 -15 -22 -43 -26 -62 -6 -32 -3 -39 27 -64 l33 -28 149 7 c99 5 162 12 185 23 85 36 125 37 134 3 3 -13 -4 -25 -20 -36 -38 -24 -26 -71 36 -143 63 -72 81 -106 81 -151 0 -41 5 -49 47 -78 40 -28 54 -28 84 4 35 38 90 63 183 83 90 20 126 35 126 54 0 8 19 12 55 12 30 0 55 -2 55 -5 3 -66 47 -268 69 -310 4 -8 49 -33 99 -55 85 -38 92 -42 107 -83 24 -60 42 -66 177 -56 l113 9 -4 87 -3 86 88 89 c74 74 99 93 150 111 79 28 145 89 170 157 10 28 29 65 41 84 32 48 63 158 63 225 0 44 -6 68 -27 103 -20 34 -27 63 -31 118 -6 102 12 126 116 150 324 75 437 121 527 216 39 41 57 52 120 70 66 19 75 25 80 50 4 15 3 48 0 72 -6 38 -2 52 25 100 19 35 29 64 26 75 -5 14 7 34 39 70 25 27 45 57 45 66 0 22 26 33 96 41 88 10 89 10 75 91 -6 38 -16 132 -22 209 l-10 141 32 84 c22 58 44 97 69 122 52 53 84 51 152 -7 29 -25 89 -63 133 -85 44 -22 91 -49 105 -60 14 -11 46 -23 71 -26 60 -8 82 12 100 90 10 48 10 58 -5 81 -9 14 -36 34 -60 46 -48 22 -58 36 -49 68 5 18 11 20 38 15 33 -6 33 -5 49 50 14 46 25 63 74 103 31 26 86 78 122 115 49 51 72 68 92 68 15 0 30 4 33 10 3 6 15 10 25 10 20 0 24 -10 34 -85 3 -24 14 -47 27 -57 27 -23 97 -23 144 -1 34 16 37 16 78 -5 23 -12 56 -32 74 -43 34 -22 117 -35 156 -25 42 10 44 43 6 82 l-33 34 35 0 c71 0 82 55 19 95 -22 14 -40 30 -40 35 0 6 -24 37 -54 69 -86 93 -85 142 1 208 32 25 45 28 109 28 69 0 75 -2 106 -32 28 -28 42 -33 80 -33 26 0 50 -6 57 -14 6 -7 16 -62 21 -122 12 -128 22 -161 66 -231 43 -68 69 -83 140 -86 l58 -2 9 48 c8 43 7 51 -19 90 -23 34 -28 51 -26 95 2 64 23 117 52 132 12 6 43 18 69 26 26 7 58 25 71 39 18 19 34 25 66 25 39 0 43 3 49 29 3 16 17 37 31 45 36 25 31 58 -16 99 -22 19 -40 39 -40 45 0 7 30 25 66 42 36 16 88 46 115 66 44 32 57 36 120 39 l70 2 19 -38 c15 -29 28 -40 53 -44 40 -8 103 8 169 41 65 33 84 30 134 -16 52 -48 80 -50 119 -10 18 19 43 33 68 37 21 3 45 12 53 20 20 20 17 74 -6 103 -28 35 -25 53 15 96 l35 37 113 -6 c71 -4 132 -13 167 -25 66 -23 192 -86 233 -116 l29 -21 -6 -81 c-5 -64 -3 -90 10 -123 14 -35 15 -49 5 -81 l-11 -39 -31 17 c-28 16 -30 16 -40 0 -5 -10 -21 -18 -35 -18 -55 0 -86 -81 -39 -102 14 -6 28 -22 31 -35 6 -21 -7 -113 -22 -165 -7 -25 -54 -45 -102 -42 l-43 2 7 -34 c3 -19 2 -34 -3 -34 -5 0 -10 -22 -11 -49 l-2 -48 42 -6 c56 -8 89 -42 95 -101 l6 -46 -41 0 c-23 0 -44 5 -47 10 -11 18 -24 11 -41 -21 -22 -44 -12 -75 31 -89 19 -6 48 -29 65 -50 33 -42 59 -55 90 -45 17 5 20 15 20 65 0 32 5 62 11 65 18 12 59 -36 59 -70 0 -38 27 -78 47 -71 8 3 12 2 9 -3 -3 -5 5 -12 19 -15 26 -7 32 -20 15 -31 -11 -7 -14 -94 -4 -119 4 -10 18 -16 36 -16 28 0 30 -2 24 -27 -4 -14 -23 -45 -42 -68 -19 -23 -34 -47 -34 -54 0 -6 -5 -19 -10 -29 -6 -9 -19 -38 -30 -65 -11 -26 -26 -50 -35 -53 -24 -10 -17 -55 16 -104 16 -25 44 -72 61 -105 29 -55 32 -71 39 -196 8 -151 13 -165 81 -242 33 -37 53 -51 87 -58 29 -6 60 -24 88 -49 61 -57 105 -55 135 5 27 53 31 86 13 105 -15 16 -15 21 -1 47 8 16 30 37 49 48 l35 18 98 -31 c55 -18 124 -45 154 -60 51 -25 55 -30 60 -67 4 -32 9 -41 28 -43 28 -4 49 -44 58 -113 4 -30 12 -57 18 -61 6 -4 42 -8 80 -8 67 0 68 0 62 -24 -3 -14 -11 -59 -17 -102 -6 -42 -17 -87 -26 -100 -15 -24 -24 -28 -83 -39 -19 -4 -43 -9 -52 -11 -19 -6 -60 -72 -77 -126 -11 -33 -10 -41 7 -65 11 -16 27 -45 35 -65 19 -45 37 -48 115 -18 78 30 126 27 151 -9 31 -43 26 -57 -31 -88 -44 -23 -59 -39 -88 -92 -26 -48 -45 -70 -74 -85 -64 -34 -81 -66 -81 -149 l0 -72 38 -3 c29 -3 53 5 102 33 36 20 65 34 65 32 0 -3 -29 -23 -65 -46 -65 -40 -74 -56 -59 -96 10 -24 62 -48 93 -40 14 3 43 17 64 31 42 28 32 29 159 -18 29 -11 37 -26 69 -142 18 -60 28 -81 46 -89 23 -10 23 -11 6 -36 -10 -14 -21 -55 -25 -91 -3 -36 -10 -89 -14 -118 -6 -45 -3 -58 13 -81 15 -20 22 -47 24 -103 l4 -76 -39 -5 c-35 -5 -50 -15 -59 -42 -2 -5 -19 -1 -39 8 -20 9 -47 17 -60 17 -12 0 -41 12 -63 25 -22 14 -47 25 -56 25 -9 0 -36 9 -60 20 -24 11 -60 20 -80 20 -40 0 -32 9 -158 -185 -25 -38 -48 -74 -52 -78 -4 -5 -18 -1 -32 8 -23 14 -33 15 -84 5 -78 -16 -113 -35 -113 -62 0 -12 18 -52 40 -90 44 -72 43 -99 0 -113 -54 -17 -4 -51 150 -102 94 -32 118 -36 225 -38 80 -1 133 3 159 12 21 7 60 13 87 13 70 0 93 12 140 77 24 32 66 83 96 113 29 30 66 84 84 120 17 36 44 81 59 100 15 19 35 51 45 70 10 19 53 68 96 108 44 41 79 79 79 86 0 20 66 150 84 165 12 10 27 11 59 5 65 -13 236 -7 287 10 116 38 187 70 214 94 45 42 85 111 107 185 11 37 27 71 35 74 9 3 70 -3 135 -15 156 -27 184 -45 184 -122 0 -58 4 -63 73 -80 34 -9 46 -18 60 -46 15 -32 19 -35 47 -28 16 3 51 6 76 5 44 -2 49 1 88 45 51 58 52 81 6 187 -39 91 -41 102 -20 172 11 36 14 70 9 122 -5 52 -3 77 6 88 7 8 13 38 15 67 1 29 5 69 9 88 7 33 5 38 -31 68 -93 79 -154 122 -173 122 -22 0 -34 23 -52 100 -6 25 -14 54 -19 65 -18 46 -17 75 1 150 11 44 20 92 20 106 0 15 9 46 19 70 11 25 21 73 23 109 l3 65 -48 25 c-38 20 -49 32 -58 63 -12 43 -18 45 -55 13 -27 -23 -28 -24 -11 -49 9 -15 17 -35 17 -46 0 -18 -3 -19 -30 -9 -37 13 -55 46 -65 118 -12 96 -25 131 -68 177 -50 54 -77 69 -142 78 -89 12 -88 11 -41 59 24 23 48 57 54 74 10 30 9 33 -21 55 -18 13 -39 26 -47 29 -22 8 -188 -20 -221 -37 -49 -26 -59 -20 -59 31 0 71 -20 132 -55 170 -27 28 -40 34 -73 34 -41 0 -72 25 -72 58 0 8 -23 39 -50 69 -63 69 -75 92 -96 183 l-16 73 -61 -7 c-76 -8 -139 19 -170 72 -15 25 -38 42 -84 63 -56 25 -65 33 -84 76 -12 26 -25 55 -29 63 -10 21 -139 98 -177 106 -46 9 -43 -9 12 -76 30 -37 45 -64 45 -84 0 -23 -4 -27 -19 -23 -21 5 -24 -3 -37 -86 -6 -45 -4 -51 25 -81 36 -37 51 -81 51 -146 l-1 -45 -64 -29 c-60 -26 -69 -28 -105 -17 -48 14 -68 42 -79 111 -10 61 -34 89 -106 123 -55 27 -92 78 -165 224 -22 45 -52 91 -65 101 -14 11 -50 23 -82 27 -50 6 -63 12 -99 49 -22 23 -55 48 -72 55 -18 8 -32 18 -32 24 0 18 99 103 141 122 34 16 45 16 77 6 32 -11 44 -10 80 4 56 23 66 42 47 95 -34 96 -8 130 96 130 90 0 111 -10 143 -65 40 -67 83 -113 114 -119 24 -6 89 6 250 45 45 11 60 10 106 -4 29 -9 63 -17 75 -17 30 0 44 38 24 69 -11 16 -13 36 -9 63 l7 40 -75 -7 -75 -7 -15 35 c-13 32 -20 36 -70 47 -88 18 -125 59 -141 153 l-6 39 -49 -7 c-64 -9 -78 0 -45 30 25 24 34 55 15 55 -6 0 -20 20 -32 45 -14 28 -32 48 -51 56 -64 27 -98 199 -39 199 10 0 31 14 47 30 19 20 52 37 96 50 51 16 75 29 100 57 32 37 91 153 104 206 4 15 23 39 41 54 25 18 38 40 50 79 8 30 22 60 29 66 35 31 45 38 59 38 47 0 11 56 -44 67 -29 5 -32 7 -15 14 19 7 18 8 -3 8 -30 1 -64 20 -57 31 3 5 12 7 20 4 12 -5 14 1 9 27 -8 41 -18 54 -34 44 -9 -6 -9 -10 1 -16 10 -6 10 -9 2 -9 -6 0 -15 4 -18 10 -3 5 -15 15 -27 21 -15 8 -19 8 -14 0 10 -16 -11 -13 -39 5 -16 10 -25 12 -25 5 0 -14 -73 -9 -111 7 -30 12 -39 30 -39 75 -1 50 -29 73 -112 91 -35 8 -144 107 -251 230 -32 36 -69 69 -83 72 -13 3 -24 11 -24 16 0 6 -17 8 -44 4 -42 -7 -45 -5 -62 24 -15 24 -25 30 -51 30 -39 0 -73 -30 -73 -62 1 -13 7 -41 15 -63 15 -42 19 -87 9 -98 -12 -11 -64 23 -64 42 0 10 -9 44 -21 77 l-20 59 33 65 c27 54 34 78 37 145 3 63 8 87 27 115 35 51 32 70 -12 70 -30 0 -43 -8 -83 -51 l-47 -51 -56 12 c-68 16 -101 8 -116 -25 -19 -41 -14 -53 23 -66 42 -15 44 -32 9 -64 l-25 -23 -52 24 c-63 29 -116 31 -148 5 -23 -19 -23 -19 -73 25 -46 40 -106 75 -148 88 -16 5 -18 20 -19 113 -1 59 -4 122 -8 138 -6 29 -8 30 -67 33 -47 2 -66 -1 -83 -15 -18 -15 -35 -17 -95 -13 -66 4 -78 9 -122 43 -58 45 -79 51 -142 42 -38 -6 -54 -15 -87 -51 -51 -55 -76 -56 -133 -6 -53 47 -109 55 -142 22 -12 -12 -23 -20 -24 -18 -2 2 -7 31 -13 64 l-9 61 33 12 c55 20 64 60 32 138 -12 29 -11 35 4 50 16 16 19 16 52 0 50 -24 82 -22 101 8 26 40 15 60 -34 60 -36 0 -45 5 -62 29 -10 17 -30 36 -44 43 -44 23 -33 62 25 86 43 18 75 66 85 126 4 27 18 57 37 77 29 33 29 35 22 112 l-7 79 43 36 c44 39 67 45 87 25 9 -9 18 -9 37 0 15 7 31 10 36 7 10 -7 59 -162 59 -188 0 -9 -20 -39 -45 -67 -48 -55 -56 -86 -34 -149 13 -37 41 -51 103 -51 56 0 70 17 62 72 -6 42 -4 44 38 76 23 17 46 32 49 32 3 0 11 -27 18 -60 14 -73 34 -90 102 -90 70 0 102 21 136 88 25 49 30 73 36 173 8 124 4 140 -40 189 -13 14 -32 41 -43 60 -11 19 -25 34 -31 32 -6 -1 -11 2 -11 7 0 5 -9 11 -20 14 -17 4 -20 14 -20 55 0 32 -5 54 -15 62 -20 17 -97 8 -209 -25 -47 -14 -100 -25 -117 -25 -61 0 -114 41 -198 151 -14 17 -49 42 -78 55 -50 22 -58 23 -121 12 -83 -14 -97 -9 -116 37 -9 20 -22 35 -32 35 -11 0 -14 5 -10 16 3 8 3 27 0 41 -7 25 -8 25 -78 21 -47 -4 -98 -16 -151 -37 -77 -31 -271 -117 -328 -146 -25 -13 -27 -13 -18 3 16 30 55 60 106 83 54 24 85 45 193 133 39 32 72 64 72 71 0 47 -128 77 -150 35 -9 -16 -15 -18 -30 -10 -26 14 -80 12 -110 -4 -17 -10 -31 -11 -49 -5 -19 8 -29 5 -46 -11 -24 -23 -45 -26 -63 -8 -17 17 -119 -18 -167 -59 -42 -36 -47 -38 -142 -52 -97 -15 -144 0 -261 85 -35 26 -186 64 -297 75 -55 6 -116 14 -135 19 -58 14 -183 60 -207 75 -33 22 -38 72 -14 150 12 37 21 71 21 76 0 5 -16 27 -36 49 -34 37 -70 51 -87 33z m474 -1753 c10 -6 32 -34 49 -63 23 -41 30 -64 30 -109 0 -45 -3 -56 -14 -52 -21 8 -76 -24 -76 -44 0 -9 10 -37 21 -62 11 -24 16 -46 12 -47 -35 -12 -81 -45 -99 -71 -12 -17 -24 -28 -28 -25 -3 4 -6 33 -6 66 0 65 -25 166 -45 182 -29 23 -27 53 5 87 29 30 31 36 25 79 -6 45 -5 47 22 57 37 14 80 14 104 2z m4229 -1509 c0 -5 -7 -12 -16 -15 -22 -9 -24 -8 -24 9 0 8 9 15 20 15 11 0 20 -4 20 -9z m-8976 -1800 c91 -22 150 -128 114 -206 -13 -28 -13 -28 -85 -25 -56 2 -114 -19 -172 -64 -41 -31 -62 -32 -118 -6 l-43 19 6 78 c7 81 31 140 75 179 31 28 151 41 223 25z m-470 -451 c10 -10 16 -25 13 -33 -12 -30 -135 -70 -174 -56 -12 4 -29 20 -39 34 -16 24 -16 27 1 45 37 41 162 47 199 10z" />
        <path
            title="guanhuafangyan"
            d="M10410 7908 c0 -29 -4 -38 -17 -39 -15 0 -15 -2 2 -9 11 -5 23 -9 28 -9 10 -1 8 61 -3 79 -7 11 -10 5 -10 -22z" />
        <path
            title="guanhuafangyan"
            d="M10072 7877 c-12 -13 -19 -27 -15 -30 7 -8 53 31 53 45 0 15 -16 8 -38 -15z" />
        <path
            title="guanhuafangyan"
            d="M10160 7860 c0 -22 3 -40 8 -40 4 0 6 18 4 40 -2 22 -6 40 -8 40 -2 0 -4 -18 -4 -40z" />
        <path
            title="guanhuafangyan"
            d="M10328 7848 c-3 -32 -4 -33 -44 -30 -23 2 -45 -1 -49 -7 -4 -7 13 -11 52 -11 l59 0 -4 40 c-5 48 -10 51 -14 8z" />
        <path
            title="guanhuafangyan"
            d="M10193 7810 c-11 -16 -10 -18 1 -14 15 6 30 34 18 34 -4 0 -13 -9 -19 -20z" />
        <path
            title="guanhuafangyan"
            d="M10410 7815 c-20 -24 -6 -28 15 -5 10 11 13 20 8 20 -6 0 -16 -7 -23 -15z" />
        <path
            title="guanhuafangyan"
            d="M10051 7779 c-1 -42 24 -79 70 -103 52 -26 62 -46 22 -46 -24 -1 -26 -2 -10 -11 23 -14 47 5 47 36 0 16 -11 27 -40 40 -46 21 -63 39 -78 80 l-10 30 -1 -26z" />
        <path
            title="guanhuafangyan"
            d="M10670 7678 c0 -20 5 -40 10 -43 13 -8 13 45 0 65 -7 11 -10 6 -10 -22z" />
        <path
            title="guanhuafangyan"
            d="M10076 7623 c-3 -3 -6 -16 -6 -28 0 -11 -5 -26 -12 -33 -17 -17 -2 -27 17 -12 9 8 13 20 9 33 -3 11 -1 23 6 27 7 5 8 10 2 13 -5 4 -12 4 -16 0z" />
        <path
            title="guanhuafangyan"
            d="M10753 7095 c5 -13 90 -12 94 0 2 6 -19 10 -47 10 -29 0 -49 -4 -47 -10z" />
        <path
            title="guanhuafangyan"
            d="M10313 6463 c-8 -3 -13 -22 -13 -45 0 -33 7 -47 38 -78 30 -30 47 -38 90 -44 30 -4 74 -4 98 0 36 5 45 11 50 31 9 33 -13 54 -103 99 -69 34 -129 47 -160 37z" />
        <path
            title="guanhuafangyan"
            d="M9561 1365 c-25 -25 -58 -52 -74 -60 -34 -17 -167 -21 -167 -5 0 6 -30 10 -69 10 l-68 0 -6 -77 c-3 -42 -4 -81 -1 -85 9 -14 44 -8 92 16 52 25 115 37 149 27 12 -3 36 -25 53 -49 17 -23 41 -47 53 -51 12 -5 41 -17 65 -26 31 -14 48 -15 64 -8 18 8 31 5 57 -9 19 -11 45 -18 58 -15 13 2 23 1 23 -3 0 -9 58 -23 85 -20 11 1 24 6 30 11 5 5 23 9 40 9 22 0 40 9 60 30 16 17 34 30 40 30 6 0 23 13 38 28 38 39 38 126 1 200 -23 47 -29 52 -59 52 -19 0 -37 5 -40 10 -3 6 -24 10 -45 10 -21 0 -42 5 -45 10 -4 6 -64 10 -148 10 l-142 0 -44 -45z" />
    </g>
    <g
        fill="#c7ab83"
        id="layer102"
        stroke="none">
        <path
            title="guanhuafangyan"
            d="M9010 8222 c0 -11 43 -75 77 -117 25 -29 25 -31 18 -145 -6 -99 -11 -123 -37 -173 -16 -32 -35 -60 -43 -64 -8 -3 -15 -9 -15 -14 0 -25 43 18 69 69 25 49 30 74 36 173 8 128 6 136 -52 203 -18 22 -33 45 -33 52 0 7 -4 16 -10 19 -5 3 -10 2 -10 -3z" />
        <path
            title="guanhuafangyan"
            d="M10072 7877 c-12 -13 -19 -27 -15 -30 7 -8 53 31 53 45 0 15 -16 8 -38 -15z" />
        <path
            title="guanhuafangyan"
            d="M10051 7779 c-1 -42 24 -79 70 -103 52 -26 62 -46 22 -46 -24 -1 -26 -2 -10 -11 23 -14 47 5 47 36 0 16 -11 27 -40 40 -46 21 -63 39 -78 80 l-10 30 -1 -26z" />
        <path
            title="guanhuafangyan"
            d="M10076 7623 c-3 -3 -6 -16 -6 -28 0 -11 -5 -26 -12 -33 -17 -17 -2 -27 17 -12 9 8 13 20 9 33 -3 11 -1 23 6 27 7 5 8 10 2 13 -5 4 -12 4 -16 0z" />
        <path
            title="guanhuafangyan"
            d="M6436 7498 c-27 -10 -28 -13 -23 -58 5 -44 3 -51 -25 -80 -25 -26 -29 -38 -24 -62 3 -17 12 -36 20 -42 21 -16 37 -80 45 -171 7 -91 23 -106 56 -53 11 17 39 41 62 53 57 28 57 28 34 66 -35 61 -35 76 -4 93 26 13 32 12 68 -10 38 -23 85 -32 85 -16 -1 4 -20 16 -43 27 -42 20 -42 20 -47 85 -5 70 -43 150 -80 170 -24 13 -86 12 -124 -2z m115 -8 c10 -6 32 -34 49 -63 23 -41 30 -64 30 -109 0 -45 -3 -56 -14 -52 -21 8 -76 -24 -76 -44 0 -9 10 -37 21 -62 11 -24 16 -46 12 -47 -35 -12 -81 -45 -99 -71 -12 -17 -24 -28 -28 -25 -3 4 -6 33 -6 66 0 65 -25 166 -45 182 -29 23 -27 53 5 87 29 30 31 36 25 79 -6 45 -5 47 22 57 37 14 80 14 104 2z" />
        <path
            title="guanhuafangyan"
            d="M5380 7424 c0 -19 16 -32 66 -53 62 -27 72 -45 87 -160 l12 -84 52 -38 c29 -22 56 -39 62 -39 18 0 30 61 37 185 7 122 15 151 28 100 16 -63 49 -135 61 -135 19 0 64 61 80 107 17 50 53 63 94 34 36 -26 57 -27 71 -2 9 17 18 19 67 14 32 -3 64 -10 71 -16 7 -5 19 -35 28 -66 9 -31 24 -72 34 -91 10 -19 23 -60 29 -90 6 -30 19 -74 27 -97 15 -38 15 -46 -1 -92 -27 -83 -19 -109 47 -155 l56 -39 -19 -34 c-10 -18 -19 -49 -19 -67 0 -38 18 -96 30 -96 5 0 11 -8 15 -19 6 -21 72 -53 108 -53 34 0 93 20 107 38 23 26 32 15 26 -28 -6 -42 -5 -43 35 -62 22 -10 53 -36 69 -58 l29 -39 -19 -42 c-21 -45 -25 -117 -11 -201 10 -58 42 -90 109 -108 24 -7 42 -18 42 -26 0 -8 -22 -36 -49 -62 -48 -46 -48 -47 -55 -130 -4 -45 -12 -93 -18 -105 -5 -12 -39 -38 -74 -59 -58 -33 -64 -39 -64 -69 0 -39 15 -57 47 -57 34 0 28 -15 -14 -33 -21 -9 -59 -25 -86 -36 -39 -16 -48 -26 -53 -51 l-7 -31 -22 21 c-19 18 -22 29 -18 61 5 35 3 39 -21 49 -15 5 -44 10 -65 10 -35 0 -40 -4 -62 -47 -21 -39 -32 -49 -71 -62 -78 -26 -81 -33 -85 -177 -3 -120 -5 -130 -30 -167 -22 -31 -25 -43 -17 -65 8 -23 16 -27 53 -30 33 -3 41 -7 37 -18 -3 -9 -6 -24 -6 -35 0 -12 -7 -19 -20 -19 -12 0 -32 -11 -45 -25 -32 -31 -34 -93 -6 -119 16 -15 18 -23 9 -46 -11 -32 -80 -100 -102 -100 -7 0 -32 -14 -54 -30 -34 -24 -42 -36 -42 -61 0 -17 9 -42 20 -56 32 -41 13 -40 -28 0 -56 55 -110 48 -177 -23 -16 -18 -52 -43 -80 -57 l-49 -26 -44 24 c-45 24 -55 24 -227 -3 -14 -2 -25 8 -40 37 -21 40 -22 40 -84 43 -102 5 -153 -18 -238 -105 -61 -63 -84 -79 -145 -104 -40 -15 -87 -28 -104 -29 -17 0 -51 -7 -76 -16 -41 -14 -54 -14 -139 1 -51 9 -100 20 -110 25 -30 17 -112 31 -229 40 -326 26 -342 28 -362 47 -25 23 -21 92 9 149 17 33 28 41 72 54 29 8 59 24 68 35 21 29 11 89 -24 128 -61 70 -79 158 -35 174 24 9 32 23 32 59 0 26 -10 39 -62 80 -78 61 -112 63 -208 14 -45 -24 -86 -36 -135 -42 -224 -24 -224 -24 -273 -59 -43 -31 -53 -34 -112 -32 -109 3 -258 38 -333 77 -38 20 -77 36 -88 36 -11 0 -39 10 -62 22 -37 19 -65 22 -222 28 -99 4 -187 5 -195 2 -8 -3 -41 -23 -72 -44 -36 -24 -76 -42 -110 -48 -29 -6 -87 -16 -128 -24 -71 -13 -77 -13 -108 6 -50 30 -112 19 -240 -42 l-107 -51 -50 15 c-90 27 -199 46 -250 45 l-50 -2 60 -7 c91 -10 184 -30 238 -50 l48 -19 112 54 c137 67 183 76 231 46 34 -21 37 -21 113 -7 43 8 99 18 124 21 28 3 71 21 105 42 104 63 94 61 279 54 146 -7 176 -11 212 -29 23 -12 51 -22 62 -22 11 0 50 -16 88 -36 78 -40 226 -74 343 -77 71 -2 78 0 122 32 49 35 49 35 273 59 48 6 90 18 134 41 91 47 115 45 189 -14 34 -26 62 -56 62 -66 0 -28 -11 -49 -27 -49 -8 0 -21 -16 -29 -35 -13 -33 -13 -38 12 -88 15 -28 40 -67 55 -85 52 -59 33 -108 -52 -132 -44 -13 -55 -21 -73 -55 -11 -21 -22 -64 -24 -94 -7 -94 -25 -88 378 -121 117 -9 199 -23 230 -40 9 -5 61 -17 115 -26 91 -15 102 -15 150 0 29 9 65 16 81 16 16 1 62 14 102 29 61 25 84 41 145 104 82 85 137 110 228 105 50 -3 54 -5 74 -43 23 -45 21 -45 148 -24 74 12 80 11 116 -9 21 -12 46 -22 55 -22 28 0 109 46 141 80 34 36 75 60 103 60 10 0 31 -14 48 -31 37 -39 57 -50 74 -39 11 7 8 15 -13 44 -15 19 -27 44 -27 55 0 22 71 81 96 81 24 0 92 70 104 106 11 32 10 38 -9 58 -12 12 -21 35 -21 50 0 32 40 76 70 76 14 0 20 7 20 23 0 12 3 32 6 45 6 20 3 22 -34 22 -32 0 -44 5 -52 21 -10 17 -7 27 14 58 24 34 26 47 30 165 4 145 7 151 84 177 40 13 50 23 71 63 25 48 25 48 69 43 57 -6 68 -18 56 -59 -8 -30 -6 -36 23 -66 l32 -33 11 41 c8 31 18 44 43 55 18 7 64 28 102 46 l70 32 -35 9 c-54 15 -65 23 -68 51 -3 22 5 31 62 63 75 44 82 56 92 169 7 78 8 81 50 120 47 44 73 93 51 100 -6 2 -29 9 -49 15 -21 6 -50 24 -67 39 -25 24 -30 36 -36 107 -6 64 -5 88 9 124 10 25 20 52 22 60 8 24 -50 96 -94 116 -38 18 -39 20 -34 61 4 40 3 43 -31 59 -30 14 -41 15 -62 6 -35 -16 -66 -15 -93 4 -19 13 -22 24 -22 79 0 58 -3 66 -32 97 -18 18 -54 48 -80 65 -54 37 -57 48 -31 130 16 51 16 55 -5 120 -11 38 -24 84 -28 103 -3 19 -14 51 -24 70 -10 19 -23 55 -30 80 -19 72 -35 90 -80 90 -21 0 -50 4 -64 10 -21 8 -28 5 -44 -17 l-19 -26 -33 23 c-27 19 -38 22 -67 14 -28 -7 -38 -16 -48 -47 -7 -20 -25 -53 -40 -73 l-28 -37 -12 24 c-7 13 -21 50 -31 82 -12 39 -23 57 -34 57 -15 0 -18 -18 -24 -125 -4 -69 -12 -138 -17 -155 l-11 -29 -51 38 -51 37 -12 82 c-17 119 -26 136 -87 162 -29 12 -58 29 -64 38 -7 9 -13 12 -13 6z" />
        <path
            title="guanhuafangyan"
            d="M9052 7046 c5 -25 8 -88 6 -141 l-3 -96 37 -9 c37 -10 137 -79 172 -118 l19 -22 29 25 c37 31 69 31 136 0 30 -14 57 -25 62 -25 4 0 19 11 34 25 36 33 34 61 -6 81 -18 9 -34 18 -36 19 -1 1 3 14 9 29 16 35 45 41 113 23 l56 -14 49 54 c35 38 56 53 75 53 32 0 32 -6 2 -50 -19 -28 -24 -52 -28 -121 -4 -80 -7 -92 -47 -158 -23 -40 -41 -76 -39 -82 4 -12 71 103 86 150 7 19 12 63 12 98 0 52 5 71 25 101 36 53 33 72 -11 72 -30 0 -43 -8 -83 -51 l-47 -51 -56 12 c-68 16 -101 8 -116 -25 -19 -41 -14 -53 23 -66 42 -15 44 -32 9 -64 l-25 -23 -52 24 c-63 29 -116 31 -148 5 -23 -19 -23 -19 -73 25 -46 40 -106 75 -148 88 -16 5 -18 19 -18 103 0 105 -8 173 -20 173 -4 0 -3 -20 2 -44z" />
        <path
            title="guanhuafangyan"
            d="M9820 6570 c-23 -23 -25 -50 -5 -105 15 -42 19 -87 9 -98 -13 -13 -64 23 -65 46 0 12 -5 31 -10 42 -7 15 -8 12 -3 -12 6 -37 -1 -40 -36 -16 l-25 17 20 -23 c28 -33 103 -74 120 -67 19 7 19 68 0 121 -19 53 -18 62 5 85 32 32 67 26 87 -15 13 -28 21 -34 37 -29 31 9 41 22 13 17 -20 -4 -29 2 -43 26 -15 25 -25 31 -51 31 -20 0 -41 -8 -53 -20z" />
        <path
            title="guanhuafangyan"
            d="M10650 6040 c0 -9 -11 -11 -35 -7 -26 4 -35 2 -35 -8 0 -21 33 -35 82 -36 24 -1 51 -9 61 -17 15 -14 17 -13 17 1 0 10 8 17 18 17 29 0 34 -11 15 -34 -10 -12 -11 -16 -4 -9 7 6 20 9 27 6 11 -4 13 2 8 28 -8 41 -18 54 -34 44 -9 -6 -9 -10 1 -16 10 -6 10 -9 2 -9 -6 0 -15 4 -18 10 -3 5 -15 15 -27 21 -15 8 -19 8 -14 0 10 -16 -11 -13 -39 5 -18 12 -25 13 -25 4z" />
        <path
            title="guanhuafangyan"
            d="M6855 4713 c-31 -8 -85 -52 -105 -85 -33 -55 -3 -113 129 -253 10 -11 29 -28 42 -37 20 -13 22 -20 13 -35 -6 -10 -24 -19 -40 -21 -58 -6 -60 -10 -20 -51 36 -36 37 -39 20 -56 -14 -14 -29 -16 -70 -12 -50 5 -65 11 -149 62 -45 28 -79 31 -115 10 -35 -20 -93 -19 -119 3 -13 10 -24 33 -27 57 -9 71 -14 83 -30 89 -9 4 -27 0 -40 -9 -13 -8 -34 -15 -46 -15 -15 0 -45 -23 -88 -68 -36 -37 -91 -89 -122 -115 -49 -40 -60 -57 -74 -102 -8 -30 -17 -55 -19 -55 -2 0 -15 4 -30 10 -23 9 -27 7 -36 -17 -16 -43 -4 -69 46 -92 24 -11 52 -32 61 -45 14 -23 14 -30 -1 -81 -19 -68 -42 -82 -102 -66 -22 6 -47 18 -54 27 -7 9 -49 34 -94 55 -44 21 -104 59 -133 84 -44 37 -60 45 -94 45 -59 0 -105 -50 -147 -160 -32 -84 -32 -86 -26 -210 4 -69 14 -160 22 -203 8 -43 12 -84 9 -92 -3 -8 0 -15 5 -15 12 0 6 81 -11 150 -4 19 -11 90 -14 156 -6 119 -6 123 25 205 22 57 44 96 69 122 52 52 84 50 152 -8 29 -25 89 -63 133 -85 44 -22 91 -49 105 -60 14 -11 46 -23 71 -26 60 -8 82 12 100 90 10 48 10 58 -5 81 -9 14 -36 34 -60 46 -48 22 -58 36 -49 68 5 18 11 20 38 15 33 -6 33 -5 49 50 14 46 25 63 74 103 31 26 86 78 122 115 49 51 72 68 92 68 15 0 30 5 33 10 3 6 15 10 25 10 20 0 24 -10 34 -85 3 -24 14 -47 27 -57 27 -23 97 -23 144 -1 34 16 37 16 78 -5 23 -12 56 -32 74 -43 34 -22 117 -35 156 -25 42 10 44 43 6 82 l-33 34 35 0 c71 0 82 55 19 95 -22 14 -40 30 -40 35 0 6 -24 37 -54 69 -86 93 -85 142 1 208 32 25 45 28 109 28 69 0 75 -2 106 -32 28 -28 42 -33 80 -33 26 0 50 -6 57 -14 6 -7 16 -62 21 -122 12 -128 22 -161 66 -231 41 -65 65 -80 134 -87 l55 -6 -57 14 c-68 16 -81 25 -123 91 -43 68 -53 101 -65 229 -12 130 -22 147 -81 139 -36 -5 -44 -2 -75 28 -31 30 -40 34 -102 36 -37 1 -76 -1 -87 -4z" />
        <path
            title="guanhuafangyan"
            d="M1112 4694 c2 -5 16 -36 32 -69 24 -52 28 -71 27 -144 -2 -76 -5 -90 -46 -175 -24 -50 -47 -113 -51 -141 -9 -65 -14 -75 -96 -172 -76 -90 -151 -149 -271 -211 -83 -44 -157 -97 -157 -114 0 -5 19 6 43 25 23 20 78 54 122 78 126 67 198 123 273 212 82 97 87 107 96 172 4 28 27 91 51 142 42 86 44 96 46 185 1 80 -2 101 -24 150 -14 31 -31 59 -38 63 -6 4 -10 4 -7 -1z" />
        <path
            title="guanhuafangyan"
            d="M1638 4191 c-86 -12 -132 -81 -142 -214 l-7 -87 43 -20 c63 -28 96 -25 152 15 63 45 108 59 165 51 25 -3 51 -2 57 2 34 23 45 111 20 160 -46 88 -129 115 -288 93z m166 -10 c91 -22 150 -128 114 -206 -13 -28 -13 -28 -85 -25 -56 2 -114 -19 -172 -64 -41 -31 -62 -32 -118 -6 l-43 19 6 78 c7 81 31 140 75 179 31 28 151 41 223 25z" />
        <path
            title="guanhuafangyan"
            d="M2119 3843 c-104 -5 -111 -13 -96 -115 9 -68 9 -82 -6 -113 -28 -58 -65 -68 -226 -61 -75 3 -159 8 -187 12 -47 5 -51 4 -62 -20 -9 -21 -9 -35 4 -69 32 -85 32 -85 -22 -92 -107 -14 -141 -38 -128 -89 5 -19 -2 -30 -36 -57 -23 -18 -57 -59 -76 -91 -19 -31 -48 -68 -64 -82 -31 -25 -39 -46 -18 -46 6 0 9 3 5 6 -3 3 7 17 23 31 16 13 45 50 64 81 19 32 53 73 76 91 34 27 40 37 38 66 -3 44 14 62 65 70 116 18 109 15 104 49 -2 17 -10 45 -17 62 -8 18 -10 42 -6 58 7 27 9 28 49 22 90 -14 321 -18 359 -6 69 20 92 89 69 208 -12 61 2 72 97 73 101 2 110 0 155 -22 60 -31 122 -98 142 -154 10 -27 29 -77 43 -110 29 -68 32 -132 8 -188 -19 -47 -44 -48 -95 -2 -21 19 -52 38 -68 41 l-29 6 -1 -82 c-1 -115 -17 -123 -136 -65 -75 37 -100 41 -140 26 -27 -11 -47 -56 -47 -107 0 -28 -7 -39 -42 -64 -22 -16 -45 -30 -50 -30 -5 0 -44 -23 -86 -52 -91 -61 -87 -57 -81 -63 3 -2 42 20 87 50 45 30 85 55 90 55 5 0 28 14 50 30 36 26 42 36 42 65 0 59 24 102 59 110 25 5 48 -1 106 -29 129 -62 157 -52 159 63 1 76 2 80 21 75 11 -4 34 -19 50 -34 17 -16 43 -34 60 -40 26 -10 32 -9 47 10 20 24 42 123 35 154 -3 11 -16 48 -30 81 -13 33 -32 83 -42 110 -29 80 -130 165 -210 177 -16 2 -64 3 -106 1z" />
        <path
            title="guanhuafangyan"
            d="M1186 3759 c-71 -17 -92 -52 -60 -97 26 -37 59 -44 125 -27 102 26 136 67 90 109 -23 21 -102 28 -155 15z m148 -29 c10 -10 16 -25 13 -33 -12 -30 -135 -70 -174 -56 -12 4 -29 20 -39 34 -16 24 -16 27 1 45 37 41 162 47 199 10z" />
        <path
            title="guanhuafangyan"
            d="M820 3573 c-66 -11 -92 -27 -146 -89 -68 -77 -172 -148 -245 -168 -34 -9 -45 -15 -28 -15 69 -2 197 76 278 168 60 70 73 78 137 90 64 12 110 -2 129 -40 14 -27 14 -36 0 -92 -9 -34 -23 -72 -31 -85 -9 -13 -13 -26 -11 -29 10 -10 36 43 52 105 18 70 10 118 -24 139 -23 14 -77 22 -111 16z" />
        <path
            title="guanhuafangyan"
            d="M9250 3349 c0 -8 14 -34 31 -59 16 -25 44 -72 61 -105 29 -55 32 -71 39 -196 8 -151 13 -165 81 -242 33 -37 53 -51 87 -58 29 -6 60 -24 88 -49 61 -57 105 -55 135 5 27 53 31 86 13 105 -15 16 -15 21 -1 47 8 16 30 37 49 48 l35 18 98 -31 c55 -18 124 -45 154 -60 51 -25 55 -30 60 -67 4 -32 9 -41 28 -43 28 -4 49 -44 58 -113 4 -30 12 -57 18 -61 6 -4 42 -8 80 -8 67 0 68 0 62 -24 -3 -14 -11 -59 -17 -102 -6 -42 -17 -87 -26 -100 -15 -24 -24 -28 -83 -39 -19 -4 -43 -9 -52 -11 -19 -6 -60 -72 -77 -126 -11 -33 -10 -41 7 -65 11 -16 27 -45 35 -65 19 -45 37 -48 115 -18 78 30 126 27 151 -9 31 -43 26 -57 -31 -88 -44 -23 -59 -39 -88 -92 -26 -48 -45 -70 -74 -85 -64 -34 -81 -66 -81 -149 l0 -72 38 -3 c29 -3 53 5 102 33 36 20 65 34 65 32 0 -3 -29 -23 -65 -46 -65 -40 -74 -56 -59 -96 10 -24 62 -48 93 -40 14 3 43 17 64 31 42 28 32 29 159 -18 29 -11 37 -26 69 -142 18 -60 28 -81 46 -89 23 -10 23 -11 6 -36 -10 -14 -21 -55 -25 -91 -3 -36 -10 -89 -14 -118 -6 -45 -3 -58 13 -81 15 -20 22 -47 24 -103 l4 -76 -39 -5 c-35 -5 -50 -15 -59 -42 -2 -5 -19 -1 -39 8 -20 9 -47 17 -60 17 -12 0 -41 12 -63 25 -22 14 -47 25 -56 25 -9 0 -36 9 -60 20 -24 11 -60 20 -80 20 -40 0 -32 9 -158 -185 -25 -38 -48 -74 -52 -78 -4 -5 -18 -1 -32 8 -23 14 -33 15 -84 5 -78 -16 -113 -35 -113 -62 0 -12 18 -52 40 -90 44 -72 43 -99 0 -113 -11 -3 -20 -11 -20 -16 0 -5 13 -3 30 6 47 25 48 54 1 132 -23 38 -41 74 -41 81 0 16 36 33 99 48 56 13 76 9 100 -20 12 -14 22 -3 74 77 130 200 128 197 156 197 14 0 46 -9 70 -20 24 -11 51 -20 60 -20 9 0 34 -11 56 -25 22 -13 51 -25 65 -25 14 0 43 -9 65 -21 37 -20 39 -20 52 -4 7 10 14 22 15 27 2 5 22 12 45 15 l41 5 -6 87 c-4 64 -10 93 -25 113 -16 22 -18 35 -12 70 4 24 10 72 14 108 3 36 14 76 24 90 23 33 22 45 -6 57 -14 7 -28 26 -34 49 -7 22 -19 65 -28 96 -9 32 -22 64 -30 71 -7 8 -46 24 -85 37 -69 22 -73 22 -99 6 -62 -40 -89 -48 -120 -32 -26 14 -41 34 -41 57 0 5 32 29 70 54 108 69 88 93 -26 29 -41 -23 -73 -34 -91 -32 -27 3 -28 5 -28 65 0 73 20 107 81 139 29 15 48 37 74 84 29 53 45 70 90 95 61 35 67 54 29 106 -18 25 -27 29 -70 29 -27 0 -72 -9 -101 -20 -71 -27 -85 -26 -93 8 -3 16 -16 44 -29 63 -21 31 -22 37 -11 69 17 48 53 107 69 113 7 3 35 9 61 13 66 9 92 39 100 112 4 31 11 75 16 97 16 75 17 75 -58 75 -38 0 -73 4 -79 8 -6 4 -14 31 -18 61 -9 69 -30 109 -58 113 -19 2 -24 10 -26 41 -2 26 -10 42 -26 52 -34 22 -227 93 -273 101 -52 8 -98 -17 -124 -67 -18 -36 -18 -37 0 -54 20 -17 17 -45 -9 -96 -28 -52 -57 -51 -113 1 -28 25 -59 43 -88 49 -34 7 -54 21 -87 58 -68 77 -73 91 -81 242 -7 119 -11 143 -34 188 -38 74 -107 179 -107 162z" />
        <path
            title="guanhuafangyan"
            d="M876 3278 c-3 -13 -8 -36 -12 -53 -13 -53 -10 -163 5 -177 12 -11 13 -10 7 7 -15 42 -18 112 -6 135 7 13 14 43 16 67 3 46 -3 57 -10 21z" />
        <path
            title="guanhuafangyan"
            d="M9560 1364 c-55 -56 -89 -72 -160 -77 -47 -3 -44 -4 21 -5 l76 -2 62 55 c34 30 73 58 87 61 43 11 198 -3 300 -27 l95 -22 25 -48 c47 -93 31 -149 -58 -209 -77 -52 -120 -59 -209 -34 -92 26 -213 24 -185 -3 3 -4 19 -2 34 3 21 8 34 6 61 -9 19 -10 45 -17 58 -14 13 2 23 1 23 -3 0 -9 58 -23 85 -20 11 1 24 6 30 11 5 5 23 9 40 9 22 0 40 9 60 30 16 17 34 30 40 30 6 0 23 13 38 28 38 39 38 126 1 200 -23 47 -29 52 -59 52 -19 0 -37 5 -40 10 -3 6 -24 10 -45 10 -21 0 -42 5 -45 10 -4 6 -64 10 -148 10 l-142 0 -45 -46z" />
        <path
            title="guanhuafangyan"
            d="M9180 1291 c0 -18 2 -19 28 -5 18 9 41 12 70 8 28 -4 42 -3 42 5 0 7 -25 11 -70 11 -63 0 -70 -2 -70 -19z" />
        <path
            title="guanhuafangyan"
            d="M10318 3 c12 -2 30 -2 40 0 9 3 -1 5 -23 4 -22 0 -30 -2 -17 -4z" />
    </g>
    <g
        fill="#fbda8d"
        id="layer101"
        stroke="none">
        <path
            title="ganfangyanz"
            d="M9075 7920 c3 -5 1 -10 -4 -10 -7 0 -11 -23 -11 -55 0 -43 -7 -70 -31 -115 -17 -33 -37 -60 -45 -60 -25 0 -15 -32 25 -75 38 -41 39 -45 28 -80 -6 -20 -19 -40 -28 -46 -22 -11 -11 -65 13 -61 11 2 14 -8 12 -40 -1 -24 -4 -50 -6 -58 -2 -9 3 -14 11 -12 10 2 12 -6 6 -35 -3 -21 -7 -52 -8 -69 -3 -40 -24 -40 -33 0 -10 47 -40 101 -48 87 -9 -14 12 -83 28 -93 8 -6 8 -8 -1 -8 -6 0 -9 -9 -6 -20 3 -11 9 -20 13 -20 17 0 23 -43 27 -215 3 -99 6 -181 8 -183 2 -2 9 -5 17 -6 25 -5 53 -20 84 -43 17 -13 34 -23 39 -23 4 0 21 -16 38 -35 34 -40 65 -45 92 -15 24 27 71 25 120 -5 41 -26 71 -32 77 -16 2 5 10 11 18 13 23 5 39 30 40 61 0 22 -6 30 -31 39 -23 8 -29 16 -27 32 2 17 9 20 31 18 15 -2 34 1 41 7 10 8 21 7 42 -4 39 -20 40 -20 89 20 26 22 46 32 50 25 3 -5 3 -15 0 -21 -4 -6 -7 -45 -7 -88 0 -62 -4 -86 -24 -126 -14 -27 -33 -54 -42 -62 -9 -7 -12 -13 -7 -13 6 0 4 -4 -4 -9 -20 -13 -32 -90 -17 -115 13 -24 37 -44 49 -42 5 0 13 -7 18 -16 11 -19 73 -42 94 -34 20 7 20 80 0 136 -14 39 -14 46 0 67 22 33 57 30 73 -7 12 -25 19 -30 49 -30 l36 0 -6 98 c-3 53 -8 105 -12 114 -9 22 59 92 97 101 19 5 30 16 34 35 3 15 9 38 14 52 l8 25 9 -24 10 -25 7 27 c3 16 10 25 15 23 5 -3 8 2 7 11 0 10 6 18 14 18 14 0 46 52 37 61 -2 2 -21 -7 -41 -21 -20 -14 -44 -25 -53 -25 -12 0 -13 -3 -4 -14 9 -11 9 -16 0 -22 -7 -4 -9 -3 -6 3 4 6 0 16 -8 23 -12 10 -15 10 -15 0 0 -8 -3 -11 -6 -8 -8 9 23 78 36 78 7 0 8 -6 0 -19 -13 -25 -13 -31 1 -31 5 0 8 4 5 9 -3 5 1 14 8 20 12 10 13 8 9 -10 -5 -17 8 -8 50 33 53 52 56 57 47 87 -5 18 -6 39 -3 48 5 12 3 14 -7 8 -9 -6 -11 -4 -5 4 4 7 1 25 -6 39 -22 43 -108 119 -141 126 -26 5 -29 9 -24 28 11 37 29 229 22 235 -3 3 -59 8 -125 10 l-119 4 -21 -27 c-12 -15 -19 -34 -17 -41 3 -7 1 -13 -4 -13 -6 0 -10 5 -10 11 0 6 -8 7 -22 3 -27 -9 -61 -9 -120 0 -38 6 -48 14 -88 69 -82 113 -98 127 -146 127 -39 0 -44 -3 -50 -27 -5 -17 -3 -28 5 -31 27 -9 41 -33 31 -53 -14 -25 -46 -24 -53 1 -4 16 -14 20 -51 20 l-46 0 0 -40 c0 -38 -1 -40 -21 -30 -11 7 -23 9 -27 6 -3 -3 0 -6 6 -6 7 0 12 -7 12 -15 0 -22 -17 -18 -23 5 -3 10 4 36 15 57 18 34 19 43 8 85 -6 26 -9 62 -5 79 4 17 4 56 0 86 -6 50 -9 56 -41 69 -39 16 -78 19 -69 4z" />
        <path
            title="ganfangyanz"
            d="M8970 7355 c0 -17 -2 -17 -10 -5 -8 13 -10 12 -10 -4 0 -11 5 -16 14 -13 9 4 17 -3 21 -16 3 -12 8 -17 11 -11 2 6 -2 24 -11 40 -12 23 -15 25 -15 9z" />
    </g>
</svg>