<?xml version="1.0" encoding="UTF-8" ?><!DOCTYPE svg PUBLIC "-//W3C//DTD SVG 1.1//EN"
    "http://www.w3.org/Graphics/SVG/1.1/DTD/svg11.dtd">
<svg height="1015pt"
    version="1.1"
    viewBox="0 0 1280 1015"
    width="1280pt"
    xmlns="http://www.w3.org/2000/svg">
    <g id="#fbda8dff">
        <path
            d=" M 952.60 646.19 C 957.83 643.05 962.79 639.23 968.75 637.55 C 969.15 644.07 967.12 650.33 966.52 656.75 C 967.43 660.00 970.93 661.26 973.57 662.81 C 975.16 659.94 976.74 657.06 978.33 654.18 C 980.21 654.53 982.10 654.88 984.00 655.22 C 983.13 662.67 981.66 670.10 981.64 677.63 C 984.38 681.97 990.30 684.16 991.43 689.59 C 993.60 695.91 991.91 704.53 998.39 708.50 C 1002.76 711.02 1006.49 714.48 1008.73 719.06 C 1006.01 722.16 1002.94 725.02 998.96 726.39 C 992.82 728.58 989.17 735.42 990.61 741.78 C 991.66 749.18 992.38 756.63 993.50 764.02 C 985.58 764.69 977.62 764.98 969.70 765.25 C 967.33 760.59 965.47 755.69 963.53 750.86 C 962.00 752.77 960.89 755.17 958.82 756.57 C 954.09 758.10 948.76 757.85 944.41 760.53 C 938.53 765.37 934.95 772.30 929.95 777.97 C 928.25 777.95 924.86 777.93 923.17 777.92 C 922.77 776.93 922.39 775.95 922.01 774.98 C 923.96 773.27 925.88 771.52 927.80 769.76 C 926.18 767.70 924.51 765.70 922.74 763.79 C 919.64 767.16 915.44 768.74 910.94 769.22 C 910.77 765.61 910.48 762.01 910.07 758.44 C 909.36 755.41 906.52 753.63 904.29 751.79 C 903.99 755.96 903.48 760.33 903.98 764.55 C 904.62 768.05 906.46 771.38 906.10 775.04 C 905.55 782.40 905.61 789.79 905.12 797.16 C 902.00 798.37 898.84 799.45 895.64 800.42 C 896.48 790.51 892.76 781.18 886.42 773.77 C 889.06 770.25 893.83 767.16 893.32 762.16 C 893.17 758.96 893.35 755.77 893.76 752.60 C 894.09 745.36 893.06 738.11 893.56 730.88 C 893.93 726.79 895.98 723.06 896.61 719.03 C 896.64 715.14 892.16 713.64 889.80 711.36 C 890.68 702.46 891.11 693.49 890.30 684.58 C 898.99 681.60 906.82 676.40 912.64 669.26 C 916.06 671.49 919.46 674.45 923.95 673.67 C 928.17 673.14 931.82 670.67 935.88 669.53 C 938.32 671.21 943.12 673.00 941.82 676.71 C 939.42 679.13 936.67 681.15 934.11 683.38 C 937.13 684.87 939.85 688.67 943.62 687.59 C 946.66 686.93 949.77 686.15 952.78 685.27 C 956.98 690.14 961.07 696.08 968.16 696.74 C 965.29 690.42 961.35 684.23 962.40 676.95 C 962.80 665.43 951.92 657.77 952.60 646.19 Z"
            fill="#fbda8d"
            opacity="1.00"
            title="gan" />
    </g>

    <g id="#ad8762ff">
        <path
            d=" M 995.61 4.10 C 1005.52 3.81 1015.44 3.91 1025.36 4.11 C 1027.85 5.84 1030.92 5.89 1033.71 6.80 C 1036.33 7.00 1038.97 6.99 1041.61 7.00 C 1043.88 9.48 1046.61 11.60 1048.36 14.51 C 1049.91 16.97 1051.83 19.17 1053.35 21.65 C 1056.05 24.63 1058.95 27.41 1061.81 30.24 C 1064.74 32.98 1065.84 36.99 1067.67 40.45 C 1069.64 44.53 1072.87 47.77 1075.35 51.52 C 1076.84 54.31 1077.70 57.66 1080.27 59.70 C 1085.40 63.19 1089.43 67.99 1093.84 72.31 C 1094.07 73.73 1094.34 75.16 1094.73 76.56 C 1094.83 77.02 1095.04 77.95 1095.15 78.42 C 1095.89 79.43 1096.65 80.46 1097.35 81.53 C 1098.11 83.18 1098.91 84.81 1099.66 86.48 C 1101.01 88.64 1102.72 90.61 1104.85 92.05 C 1105.28 91.83 1106.15 91.39 1106.59 91.17 C 1107.86 91.02 1109.17 90.89 1110.48 90.75 C 1111.82 90.18 1113.18 89.67 1114.53 89.09 C 1117.47 88.96 1120.42 88.93 1123.37 89.14 C 1125.86 90.30 1128.69 89.88 1131.36 90.18 C 1133.25 91.10 1135.38 90.97 1137.44 91.16 C 1139.08 92.02 1140.78 92.79 1142.60 93.28 C 1143.58 93.79 1144.57 94.32 1145.57 94.85 C 1146.07 94.90 1147.09 95.01 1147.60 95.06 C 1148.56 95.66 1149.53 96.25 1150.52 96.85 C 1151.02 96.91 1152.03 97.04 1152.54 97.11 C 1158.26 99.42 1162.30 104.34 1165.36 109.52 C 1166.14 111.16 1166.92 112.80 1167.74 114.42 C 1168.03 115.46 1168.34 116.48 1168.69 117.51 C 1169.11 119.57 1169.79 121.58 1170.62 123.52 C 1170.96 124.76 1171.27 126.08 1172.33 126.95 C 1174.74 127.20 1177.24 127.10 1179.58 126.30 C 1181.26 126.02 1183.00 125.81 1184.62 125.17 C 1186.84 125.01 1189.08 124.94 1191.33 124.81 C 1193.00 124.19 1194.78 123.84 1196.53 123.39 C 1199.80 122.20 1202.54 119.94 1205.05 117.58 C 1204.89 116.59 1204.74 115.61 1204.60 114.63 C 1203.90 112.63 1203.98 110.49 1203.94 108.41 C 1204.73 107.69 1205.53 106.97 1206.34 106.24 C 1207.42 105.91 1208.50 105.55 1209.58 105.16 C 1210.83 105.06 1212.11 104.99 1213.41 104.91 C 1214.46 104.09 1215.56 103.29 1216.70 102.56 C 1216.96 102.07 1217.48 101.10 1217.74 100.61 C 1218.28 99.31 1218.84 98.02 1219.39 96.71 C 1220.75 96.97 1222.15 97.23 1223.50 97.66 C 1227.04 99.47 1230.84 97.50 1234.59 97.93 C 1237.71 100.86 1240.55 104.05 1243.05 107.53 C 1243.14 109.50 1243.09 111.47 1242.93 113.44 C 1242.04 115.08 1241.32 116.80 1240.70 118.55 C 1239.98 120.20 1239.30 121.87 1238.69 123.56 C 1237.92 125.18 1237.21 126.82 1236.57 128.48 C 1235.88 130.46 1235.82 132.61 1236.66 134.56 C 1236.95 135.89 1237.25 137.23 1237.63 138.56 C 1237.98 139.92 1238.35 141.29 1238.88 142.61 C 1238.96 144.53 1238.97 146.45 1238.89 148.37 C 1237.51 151.59 1238.19 155.18 1237.99 158.57 C 1238.51 159.04 1239.55 159.96 1240.07 160.42 C 1240.04 163.73 1239.95 167.05 1240.13 170.36 C 1240.56 171.36 1241.00 172.38 1241.43 173.40 C 1241.82 175.07 1242.59 176.94 1241.85 178.64 C 1238.93 182.60 1234.81 185.39 1230.50 187.61 C 1227.98 189.37 1225.92 191.66 1223.71 193.76 C 1222.58 194.09 1221.47 194.46 1220.39 194.88 C 1218.33 194.97 1216.29 195.00 1214.25 195.00 C 1212.24 196.66 1211.69 199.03 1211.85 201.54 C 1211.57 202.09 1211.02 203.17 1210.74 203.71 C 1210.18 203.99 1209.06 204.56 1208.50 204.85 C 1208.03 204.93 1207.10 205.10 1206.63 205.18 C 1205.97 205.47 1204.66 206.04 1204.00 206.32 L 1204.00 206.69 C 1205.51 207.29 1207.03 207.94 1208.56 208.58 C 1210.53 209.51 1211.19 211.58 1211.92 213.48 C 1211.99 215.43 1212.06 217.38 1212.20 219.33 C 1212.78 221.04 1213.16 222.81 1213.68 224.55 C 1214.00 225.90 1214.34 227.27 1214.80 228.60 C 1214.93 229.86 1215.07 231.11 1215.26 232.37 C 1216.18 234.46 1215.86 236.78 1216.24 238.98 C 1216.85 240.92 1217.89 242.70 1218.85 244.50 C 1218.96 245.44 1219.11 246.37 1219.27 247.32 C 1220.42 249.96 1219.58 253.01 1220.83 255.64 C 1220.91 256.97 1220.98 258.31 1221.07 259.65 C 1220.23 260.39 1219.41 261.12 1218.59 261.85 C 1217.19 262.71 1215.82 263.60 1214.44 264.47 C 1213.37 265.01 1212.31 265.56 1211.27 266.13 C 1211.01 267.26 1210.75 268.39 1210.48 269.52 C 1209.93 271.07 1209.34 272.60 1208.82 274.15 C 1206.37 272.34 1203.90 270.55 1201.65 268.50 C 1202.22 266.21 1203.25 264.05 1204.96 262.39 C 1204.96 261.74 1204.97 260.43 1204.98 259.77 C 1201.66 260.39 1197.30 260.55 1196.18 264.44 C 1195.99 265.89 1195.83 267.36 1195.23 268.71 C 1194.97 271.36 1195.41 274.17 1194.30 276.68 C 1193.98 278.33 1193.73 279.99 1193.32 281.63 C 1193.22 282.09 1193.01 283.00 1192.91 283.46 C 1190.10 287.86 1186.18 291.32 1182.61 295.07 C 1182.10 295.13 1181.10 295.24 1180.59 295.30 C 1179.58 295.69 1178.57 296.07 1177.57 296.45 C 1173.79 297.24 1170.01 298.19 1166.12 298.17 C 1166.12 298.72 1166.12 299.81 1166.12 300.35 C 1171.05 303.03 1174.07 307.96 1176.03 313.06 C 1174.58 315.92 1171.01 317.10 1168.53 319.03 C 1166.45 319.04 1164.30 319.23 1162.35 318.37 C 1160.62 318.09 1158.84 317.97 1157.26 317.20 C 1154.68 317.03 1152.07 317.13 1149.56 316.52 C 1148.54 315.94 1147.52 315.36 1146.53 314.79 C 1144.92 314.00 1143.26 313.32 1141.58 312.75 C 1141.20 313.47 1140.45 314.93 1140.08 315.65 C 1140.04 319.22 1140.09 322.79 1139.92 326.35 C 1139.46 327.40 1139.05 328.47 1138.70 329.56 C 1138.24 330.53 1137.80 331.51 1137.38 332.49 C 1135.65 335.82 1132.44 338.15 1128.64 338.38 C 1126.60 339.25 1124.36 339.13 1122.21 339.14 C 1121.28 341.21 1120.91 343.44 1120.93 345.71 C 1118.41 348.30 1115.69 350.67 1113.29 353.37 C 1111.47 355.70 1110.02 358.30 1108.14 360.59 C 1108.06 361.05 1107.91 361.97 1107.83 362.43 C 1107.26 364.15 1106.82 365.91 1106.27 367.64 C 1106.14 368.86 1106.02 370.09 1105.91 371.33 C 1105.18 372.76 1105.08 374.37 1104.93 375.94 C 1104.52 376.16 1103.69 376.60 1103.27 376.82 C 1100.64 376.10 1097.78 376.38 1095.31 375.15 C 1094.04 375.09 1092.78 375.05 1091.55 375.02 C 1089.86 376.15 1088.18 377.29 1086.48 378.37 C 1085.11 379.02 1083.75 379.66 1082.40 380.30 C 1082.13 380.84 1081.60 381.93 1081.33 382.47 C 1080.42 384.49 1079.25 386.38 1077.78 388.04 C 1077.25 388.07 1076.17 388.15 1075.64 388.19 C 1074.59 388.61 1073.55 389.00 1072.51 389.38 C 1071.98 389.59 1070.90 390.01 1070.36 390.22 C 1067.98 391.49 1066.05 393.38 1064.21 395.31 C 1063.97 396.39 1063.72 397.47 1063.46 398.55 C 1063.05 399.58 1062.63 400.61 1062.20 401.63 C 1062.17 402.16 1062.11 403.22 1062.08 403.75 C 1060.89 404.65 1059.72 405.55 1058.48 406.35 C 1056.72 407.22 1055.09 408.30 1053.42 409.29 C 1051.72 410.25 1050.11 411.33 1048.45 412.34 C 1047.45 412.86 1046.48 413.40 1045.51 413.95 C 1044.14 413.97 1042.78 413.99 1041.44 414.01 C 1042.29 412.40 1043.43 410.97 1044.58 409.56 C 1045.94 407.26 1047.91 405.43 1049.86 403.64 C 1050.94 401.28 1051.04 398.69 1051.04 396.15 C 1049.31 395.91 1047.10 396.53 1046.13 394.64 C 1045.90 393.31 1045.81 391.96 1045.68 390.63 C 1044.54 387.99 1045.04 385.06 1044.93 382.28 C 1047.07 380.54 1049.69 379.20 1050.93 376.59 C 1050.99 376.10 1051.10 375.10 1051.15 374.60 C 1051.74 372.85 1052.17 371.04 1052.81 369.31 C 1052.84 365.91 1053.73 362.19 1051.96 359.08 C 1051.35 359.07 1050.13 359.06 1049.51 359.06 C 1048.51 358.40 1047.51 357.75 1046.52 357.10 C 1045.98 357.08 1044.89 357.02 1044.34 357.00 C 1043.90 356.51 1043.02 355.55 1042.57 355.06 C 1039.53 355.01 1036.50 355.00 1033.47 355.03 C 1031.44 356.40 1029.20 357.74 1028.01 359.96 C 1026.58 362.30 1027.31 365.20 1026.33 367.70 C 1026.20 368.65 1026.10 369.61 1026.01 370.58 C 1024.32 374.10 1020.83 375.97 1017.60 377.81 C 1013.80 379.32 1009.94 381.43 1008.27 385.39 C 1006.60 389.95 1002.69 393.14 1000.77 397.54 C 1000.26 398.50 999.75 399.46 999.26 400.43 C 998.98 401.45 998.69 402.47 998.41 403.49 C 997.66 404.85 996.91 406.20 996.16 407.55 C 996.13 408.08 996.07 409.15 996.05 409.68 C 994.33 411.26 992.54 412.74 990.57 413.99 C 987.82 414.07 984.93 413.64 982.35 414.78 C 980.36 414.99 978.32 414.98 976.46 415.75 C 974.83 416.32 973.19 416.85 971.54 417.30 C 970.39 418.08 969.25 418.84 968.09 419.55 C 968.06 419.87 968.02 420.51 968.00 420.83 C 966.28 421.39 964.57 421.95 962.84 422.42 C 963.17 424.49 963.73 426.52 964.30 428.55 C 965.43 429.83 966.52 431.16 967.47 432.59 C 972.32 435.49 976.23 439.72 981.57 441.85 C 982.85 441.89 984.15 441.93 985.47 441.97 C 986.46 441.31 987.45 440.65 988.46 439.99 C 989.77 440.00 991.10 440.03 992.44 440.07 C 994.08 440.99 995.77 441.82 997.48 442.63 C 998.37 443.15 999.23 443.74 1000.07 444.38 C 1000.68 446.68 999.23 448.67 998.22 450.58 C 998.13 451.02 997.93 451.89 997.84 452.33 C 996.77 454.22 997.04 456.41 996.97 458.49 C 998.17 460.40 999.60 462.17 1001.42 463.55 C 1006.41 463.95 1011.70 464.67 1016.57 463.21 C 1017.56 463.07 1018.56 462.94 1019.57 462.82 C 1020.60 461.77 1021.64 460.73 1022.67 459.68 C 1023.62 457.93 1024.70 456.26 1025.66 454.51 C 1026.83 452.74 1028.23 451.13 1029.29 449.28 C 1030.56 447.89 1031.94 446.60 1033.43 445.43 C 1036.12 444.84 1039.02 444.49 1041.66 445.60 C 1042.99 445.97 1044.34 446.32 1045.67 446.78 C 1047.67 446.97 1049.75 446.94 1051.67 447.67 C 1052.11 447.82 1052.98 448.11 1053.42 448.25 C 1055.13 448.78 1056.89 449.16 1058.64 449.65 C 1060.01 449.98 1061.40 450.28 1062.73 450.86 C 1063.90 450.87 1065.10 450.88 1066.31 450.86 C 1067.59 450.26 1069.00 449.96 1070.39 449.64 C 1071.40 449.31 1072.43 448.99 1073.47 448.69 C 1074.43 448.31 1075.41 447.94 1076.40 447.58 C 1079.01 445.70 1079.91 449.07 1081.23 450.70 C 1079.09 453.49 1076.64 457.12 1078.84 460.63 C 1078.92 461.85 1079.00 463.08 1079.08 464.31 C 1077.80 464.00 1076.54 463.64 1075.31 463.25 C 1073.27 463.02 1071.10 463.24 1069.30 462.12 C 1067.67 462.05 1066.05 462.04 1064.45 462.04 C 1064.13 462.68 1063.50 463.94 1063.18 464.58 C 1063.10 465.06 1062.93 466.01 1062.84 466.49 C 1062.56 467.10 1062.01 468.34 1061.73 468.95 C 1059.76 469.70 1057.69 470.10 1055.63 470.38 C 1054.23 470.76 1052.82 470.99 1051.42 471.20 C 1047.97 473.06 1045.13 475.97 1043.24 479.39 C 1043.00 480.85 1042.80 482.33 1042.23 483.71 C 1042.17 486.27 1042.54 490.54 1038.74 490.03 C 1035.98 488.24 1032.54 489.16 1029.49 489.18 C 1030.95 491.84 1033.50 493.60 1035.28 496.02 C 1032.99 498.60 1030.26 501.01 1029.73 504.63 C 1028.00 505.67 1026.34 506.80 1024.55 507.70 C 1022.47 508.59 1021.22 510.46 1020.21 512.38 C 1019.96 513.45 1019.70 514.52 1019.43 515.60 C 1019.00 516.61 1018.56 517.63 1018.11 518.64 C 1018.01 521.32 1018.00 524.01 1017.96 526.70 C 1019.53 528.32 1021.49 529.29 1023.80 529.09 C 1025.35 530.87 1026.42 533.14 1028.52 534.39 C 1029.51 534.82 1030.51 535.27 1031.51 535.75 C 1032.87 535.98 1034.25 536.22 1035.62 536.53 C 1036.62 536.94 1037.62 537.37 1038.63 537.82 C 1039.12 537.88 1040.11 538.01 1040.60 538.08 C 1044.86 540.22 1047.25 544.54 1049.79 548.37 C 1050.43 549.74 1051.13 551.10 1051.89 552.44 C 1052.40 553.77 1052.91 555.12 1053.33 556.51 C 1053.79 557.47 1054.26 558.44 1054.75 559.41 C 1055.09 560.49 1055.47 561.56 1055.89 562.63 C 1055.93 563.11 1056.03 564.06 1056.08 564.54 C 1057.18 567.29 1059.89 568.34 1062.28 569.71 C 1063.02 570.87 1063.34 572.26 1063.92 573.52 C 1063.99 575.83 1064.04 578.13 1064.12 580.45 C 1065.33 581.71 1066.50 583.06 1067.42 584.59 C 1068.22 585.91 1070.30 586.92 1070.01 588.64 C 1068.42 590.02 1066.42 590.76 1064.60 591.73 C 1062.84 592.57 1061.11 593.44 1059.34 594.22 C 1056.20 595.75 1054.00 598.52 1051.60 600.95 C 1050.60 601.01 1049.62 601.08 1048.65 601.17 C 1046.32 602.49 1043.56 601.75 1041.03 602.13 C 1039.11 602.80 1037.33 603.82 1035.48 604.64 C 1033.43 605.91 1031.76 607.66 1030.08 609.36 C 1029.98 611.13 1030.06 612.97 1029.26 614.62 C 1029.02 616.26 1028.83 617.91 1028.54 619.55 C 1027.51 621.45 1025.89 622.48 1023.70 622.00 C 1022.12 620.11 1020.06 621.41 1018.40 622.28 C 1016.82 623.11 1015.18 623.84 1013.45 624.28 C 1010.36 625.90 1008.18 628.55 1006.71 631.67 C 1004.62 633.92 1002.23 635.94 1000.60 638.57 C 999.55 639.88 998.50 641.19 997.65 642.64 C 996.54 643.89 995.41 645.11 994.30 646.35 C 992.25 649.75 990.05 653.07 987.64 656.22 C 986.21 655.99 984.79 655.76 983.42 655.38 C 981.70 654.97 980.01 654.47 978.36 653.92 C 977.72 655.44 977.05 656.95 976.39 658.46 C 975.52 659.75 974.57 660.97 973.63 662.21 C 972.55 661.97 971.47 661.73 970.42 661.48 C 968.87 660.39 967.56 659.05 966.43 657.56 C 966.03 655.82 965.61 653.90 966.82 652.37 C 966.90 651.38 966.99 650.40 967.08 649.42 C 967.44 648.93 968.15 647.95 968.51 647.46 C 969.16 644.82 969.19 642.06 968.89 639.38 C 967.46 636.56 964.51 638.76 962.55 639.63 C 959.28 641.71 956.18 644.04 953.10 646.39 C 952.85 649.40 952.72 652.51 953.53 655.46 C 955.63 659.27 958.40 662.66 960.37 666.56 C 961.28 668.41 962.01 670.35 962.36 672.40 C 963.42 675.26 962.96 678.36 962.89 681.34 C 961.68 682.58 961.81 684.28 962.78 685.62 C 962.87 686.08 963.04 687.00 963.12 687.46 C 964.65 689.39 966.01 691.46 967.38 693.52 C 967.61 694.17 968.06 695.47 968.29 696.12 C 966.33 696.02 964.38 695.94 962.47 695.57 C 960.56 694.13 958.66 692.56 957.67 690.35 C 955.88 688.52 954.31 686.20 952.07 685.02 C 951.69 685.19 950.93 685.54 950.56 685.71 C 948.76 686.83 946.68 687.08 944.63 687.28 C 943.01 688.06 941.20 687.97 939.48 688.09 C 938.02 686.53 936.52 685.03 935.00 683.56 C 935.00 682.99 935.00 681.86 934.99 681.29 C 936.20 680.81 937.40 680.30 938.63 679.82 C 940.99 678.88 942.65 677.16 942.12 674.47 C 940.28 672.74 938.48 670.99 936.53 669.41 C 935.51 669.16 934.50 669.21 933.53 669.56 C 933.02 669.83 932.02 670.38 931.52 670.65 C 930.46 671.34 929.44 672.09 928.46 672.87 C 928.01 672.97 927.09 673.16 926.64 673.26 C 924.08 674.51 921.14 674.06 918.47 673.57 C 916.31 672.24 914.95 669.44 912.43 668.95 C 910.48 671.76 908.56 674.83 905.35 676.36 C 904.44 677.12 903.54 677.89 902.65 678.67 C 901.22 679.52 899.85 680.45 898.47 681.36 C 896.84 682.09 895.22 682.81 893.55 683.40 C 892.30 683.72 891.05 684.02 889.81 684.29 C 890.00 685.77 890.10 687.31 890.83 688.67 C 891.00 694.22 891.02 699.78 890.83 705.34 C 889.48 707.37 890.84 710.41 888.63 711.90 C 885.56 712.15 882.47 711.97 879.40 712.00 C 878.08 710.61 876.76 709.23 875.49 707.83 C 874.05 708.02 872.59 708.15 871.32 708.88 C 870.09 708.90 868.88 708.91 867.68 708.90 C 865.16 707.24 861.88 707.86 859.38 709.19 C 855.19 710.98 852.10 714.37 848.44 716.97 C 844.76 716.76 840.82 717.74 837.35 716.22 C 836.85 716.15 835.87 716.02 835.37 715.95 C 834.67 715.17 833.98 714.40 833.30 713.64 C 831.75 711.32 830.72 708.03 827.58 707.55 C 826.19 707.02 824.66 706.80 823.39 707.77 C 822.94 707.86 822.02 708.05 821.57 708.15 C 820.51 708.90 819.45 709.66 818.34 710.33 C 816.30 712.13 814.38 714.05 812.55 716.06 C 810.48 716.00 808.43 715.93 806.40 715.60 C 805.36 714.66 804.39 713.67 803.56 712.57 C 803.35 711.92 802.95 710.63 802.74 709.98 C 801.61 709.98 800.50 709.98 799.39 710.00 C 799.06 710.65 798.40 711.95 798.07 712.59 C 797.93 717.27 798.01 721.94 798.00 726.62 C 798.64 726.93 799.93 727.56 800.57 727.87 C 801.07 727.91 802.08 728.00 802.58 728.05 C 804.10 729.59 805.64 731.12 807.23 732.61 C 806.90 733.61 806.57 734.60 806.22 735.60 C 806.14 736.07 805.99 737.02 805.91 737.49 C 805.06 738.47 804.24 739.48 803.44 740.50 C 803.10 741.82 802.84 743.22 803.65 744.45 C 804.24 745.63 804.83 746.82 805.38 748.05 C 807.39 747.97 809.52 748.20 811.43 747.36 C 812.74 746.70 814.08 746.08 815.45 745.53 C 816.47 745.23 817.52 745.17 818.58 745.36 C 819.59 746.31 820.59 747.30 821.44 748.44 C 821.63 749.01 822.03 750.15 822.23 750.72 C 820.63 751.09 818.98 752.54 817.39 751.28 C 816.95 751.14 816.06 750.87 815.61 750.73 C 813.20 748.67 812.14 751.61 811.31 753.50 C 810.22 755.59 808.49 757.29 806.37 758.35 C 805.56 759.02 804.76 759.71 803.97 760.40 C 804.12 763.32 802.96 767.12 806.45 768.45 C 807.81 768.81 809.19 769.17 810.58 769.55 C 813.03 771.20 814.24 774.00 815.87 776.37 C 816.71 778.27 817.06 780.31 817.29 782.38 C 817.79 783.74 817.97 785.20 818.17 786.65 C 820.09 788.61 822.03 790.56 824.05 792.45 C 823.97 794.51 824.20 796.69 823.28 798.63 C 823.01 800.33 822.98 802.12 822.14 803.68 C 822.06 804.89 822.03 806.12 822.01 807.36 C 822.83 808.41 823.65 809.51 824.36 810.68 C 824.99 811.36 825.64 812.03 826.30 812.72 C 828.39 813.91 830.40 815.23 832.52 816.39 C 833.51 816.68 834.52 816.96 835.55 817.23 C 836.00 816.65 836.91 815.50 837.36 814.92 C 838.35 814.98 839.35 815.06 840.36 815.16 C 842.58 816.77 845.52 816.24 846.37 813.49 C 846.62 812.98 847.11 811.96 847.35 811.45 C 847.83 809.80 848.18 808.11 848.66 806.47 C 848.97 805.45 849.30 804.44 849.64 803.45 C 850.02 802.40 850.44 801.38 850.90 800.38 C 851.04 797.73 851.14 795.05 850.57 792.46 C 848.11 789.26 844.88 786.75 842.44 783.53 C 841.68 780.78 841.72 777.85 843.13 775.32 C 844.09 773.83 845.11 772.38 846.23 771.01 C 846.76 770.96 847.81 770.85 848.34 770.80 C 850.54 769.55 853.13 770.08 855.54 769.99 C 856.42 770.85 857.31 771.71 858.23 772.58 C 857.92 773.52 857.61 774.46 857.29 775.40 C 856.41 776.99 855.93 778.73 855.80 780.55 C 856.66 781.23 857.53 781.93 858.41 782.63 C 861.07 784.20 863.02 786.67 865.46 788.55 C 867.81 789.99 868.96 787.53 869.39 785.55 C 869.82 783.83 870.18 782.09 870.71 780.41 C 870.96 779.05 871.20 777.71 871.50 776.39 C 872.43 774.97 873.71 773.86 875.43 773.53 C 878.05 772.79 880.94 772.61 883.53 773.64 C 884.54 773.94 885.55 774.25 886.58 774.58 C 888.15 775.54 889.49 776.86 890.37 778.51 C 891.12 780.16 891.89 781.81 892.70 783.46 C 892.98 783.93 893.53 784.88 893.80 785.36 C 896.10 789.66 894.53 794.69 895.12 799.32 C 896.82 803.09 896.00 807.53 895.57 811.52 C 893.16 814.73 889.88 817.16 887.54 820.44 C 887.26 821.45 887.00 822.47 886.76 823.50 C 886.49 824.09 885.97 825.27 885.70 825.86 C 884.27 826.02 882.85 826.19 881.45 826.46 C 876.16 828.71 881.40 835.78 877.64 838.89 C 873.91 838.99 870.01 839.53 866.41 838.35 C 865.06 838.02 863.72 837.72 862.42 837.34 C 861.06 837.01 859.71 836.71 858.41 836.29 C 857.95 836.15 857.04 835.85 856.59 835.71 C 855.26 835.27 853.91 834.97 852.58 834.66 C 851.26 834.26 849.92 833.96 848.60 833.66 C 846.65 832.72 844.43 832.79 842.47 833.60 C 841.07 834.10 839.70 834.63 838.33 835.16 C 833.63 838.07 829.82 842.32 826.98 847.03 C 825.66 848.93 824.66 851.23 822.52 852.37 C 821.14 852.97 819.79 853.62 818.45 854.29 C 817.48 854.67 816.51 855.04 815.55 855.41 C 813.23 856.14 810.48 856.56 808.34 855.13 C 806.11 855.01 803.89 854.98 801.67 854.86 C 800.44 854.09 799.02 854.03 797.65 853.94 C 797.03 854.30 795.77 855.01 795.14 855.37 C 794.50 857.06 793.92 858.79 793.40 860.54 C 792.36 863.62 789.23 863.06 786.61 863.03 C 787.39 863.84 788.19 864.65 789.00 865.47 C 788.99 867.31 788.99 869.16 789.00 871.02 C 786.44 870.89 783.69 871.47 781.34 870.20 C 779.34 869.99 777.27 870.09 775.40 869.30 C 774.94 869.16 774.03 868.89 773.57 868.75 C 772.55 868.37 771.53 868.02 770.51 867.70 C 768.47 867.02 766.45 866.28 764.57 865.26 C 762.53 864.35 760.43 863.60 758.38 862.74 C 755.99 861.87 753.66 860.88 751.40 859.74 C 749.81 858.87 748.17 858.10 746.56 857.28 C 746.08 857.02 745.12 856.49 744.65 856.22 C 743.27 855.66 741.90 855.11 740.51 854.65 C 739.16 854.21 737.81 853.81 736.48 853.39 C 734.68 852.07 733.01 850.59 731.08 849.49 C 731.02 851.10 731.01 852.74 731.03 854.38 C 731.85 855.42 732.65 856.51 733.32 857.69 C 735.09 860.11 737.75 861.51 740.39 862.81 C 742.06 863.48 743.78 864.05 745.50 864.62 C 747.46 866.01 749.25 867.66 751.42 868.74 C 755.28 870.64 758.27 873.72 761.34 876.67 C 763.16 877.72 764.74 879.15 766.47 880.38 C 767.22 880.66 768.72 881.21 769.47 881.48 C 768.47 883.07 767.17 884.44 765.56 885.42 C 764.54 885.73 763.53 886.05 762.53 886.37 C 760.93 887.00 759.20 886.98 757.53 887.07 C 756.72 885.52 755.69 884.12 754.65 882.74 C 753.28 882.97 751.91 883.22 750.59 883.62 C 748.14 885.78 744.98 885.07 742.61 883.24 C 739.52 880.96 735.82 882.16 732.90 884.02 C 730.99 882.48 729.15 880.68 726.49 880.89 C 726.02 881.42 725.08 882.49 724.60 883.02 C 723.54 882.99 722.48 882.98 721.44 882.97 C 720.45 882.34 719.46 881.72 718.49 881.11 C 717.49 881.00 716.50 880.90 715.52 880.82 C 714.44 880.44 713.36 880.10 712.29 879.80 C 710.12 877.63 708.08 875.29 705.48 873.64 C 704.47 873.20 703.46 872.76 702.47 872.32 C 701.41 871.95 700.38 871.56 699.36 871.16 C 696.77 871.04 694.19 871.01 691.62 870.85 C 690.09 870.05 688.35 870.14 686.70 870.18 C 685.09 870.99 683.27 871.02 681.54 871.25 C 678.84 872.66 676.09 873.98 673.54 875.63 C 670.65 877.80 667.83 880.06 664.66 881.80 C 663.58 882.08 662.51 882.39 661.46 882.74 C 659.79 882.99 658.12 883.24 656.48 883.65 C 654.13 884.18 651.83 884.88 649.56 885.65 C 648.50 886.04 647.45 886.46 646.42 886.92 C 642.10 887.49 637.48 886.16 633.36 887.84 C 631.14 887.97 628.91 888.02 626.70 888.20 C 625.37 888.71 623.97 888.99 622.59 889.29 C 620.54 890.00 618.51 890.77 616.54 891.70 C 615.49 892.02 614.46 892.38 613.44 892.78 C 612.97 892.88 612.02 893.10 611.54 893.21 C 609.53 894.01 607.50 894.77 605.50 895.59 C 601.15 897.66 600.83 903.14 601.16 907.34 C 601.60 908.37 602.02 909.43 602.41 910.50 C 603.26 912.77 603.95 915.10 604.38 917.49 C 604.57 917.98 604.95 918.97 605.14 919.46 C 603.18 922.65 600.50 925.32 597.53 927.59 C 596.16 927.84 594.76 928.21 593.38 927.99 C 590.60 926.12 593.10 922.17 590.83 919.96 C 588.87 917.90 586.46 916.35 584.00 914.98 C 579.27 917.63 576.91 923.07 571.60 924.80 C 568.59 925.71 565.64 926.95 562.47 927.18 C 560.99 925.64 559.52 924.12 558.04 922.61 C 557.98 921.58 557.93 920.57 557.88 919.58 C 556.77 916.92 555.70 914.22 553.82 912.01 C 552.42 911.97 551.02 911.92 549.64 911.85 C 547.38 910.74 544.83 911.01 542.41 910.94 C 541.26 910.23 540.11 909.55 538.98 908.85 C 538.59 903.83 538.54 898.57 541.82 894.42 C 541.92 893.96 542.14 893.02 542.25 892.56 C 542.63 891.21 542.92 889.84 543.23 888.50 C 543.77 887.43 546.27 885.83 544.25 884.89 C 541.87 883.82 539.32 883.03 537.41 881.15 C 536.93 881.08 535.96 880.94 535.47 880.87 C 534.92 880.59 533.81 880.02 533.26 879.74 C 533.00 879.20 532.48 878.10 532.22 877.56 C 531.23 874.02 530.84 870.38 530.77 866.72 C 529.71 864.51 530.04 862.02 529.77 859.68 C 529.06 857.99 529.07 856.15 528.74 854.40 C 527.90 853.33 526.59 852.81 525.52 852.06 C 524.24 852.09 522.97 852.14 521.71 852.23 C 519.10 853.42 516.10 852.70 513.42 853.66 C 512.99 853.83 512.12 854.17 511.69 854.35 C 510.29 854.73 508.88 855.00 507.47 855.27 C 505.79 856.15 504.10 857.02 502.48 858.00 C 501.10 858.03 499.72 858.14 498.36 857.98 C 497.46 856.94 496.74 855.78 495.98 854.66 C 495.99 853.23 496.00 851.81 496.01 850.41 C 497.56 847.79 499.73 845.65 501.91 843.57 C 501.99 842.57 502.07 841.58 502.16 840.60 C 502.75 838.87 503.18 837.09 503.76 835.37 C 503.89 833.78 504.02 832.19 504.20 830.62 C 504.78 828.94 504.96 827.18 505.20 825.45 C 505.72 824.09 506.22 822.73 506.79 821.40 C 506.88 820.93 507.06 819.98 507.15 819.50 C 507.65 818.48 508.14 817.46 508.62 816.44 C 509.65 814.50 511.37 813.14 513.31 812.18 C 513.83 811.96 514.87 811.51 515.39 811.29 C 517.43 810.25 519.46 809.21 521.46 808.11 C 521.95 808.05 522.93 807.95 523.42 807.89 C 527.04 805.35 530.74 802.62 532.83 798.60 C 532.93 797.25 533.04 795.90 533.19 794.58 C 534.16 792.74 533.90 790.64 533.76 788.67 C 532.06 785.02 533.11 780.84 534.79 777.40 C 535.07 773.64 535.00 769.87 535.01 766.11 C 534.41 766.03 533.19 765.87 532.59 765.79 C 531.42 765.41 530.25 765.07 529.08 764.80 C 526.39 761.16 525.27 756.75 524.24 752.43 C 523.95 749.29 523.20 746.22 522.77 743.10 C 521.88 742.37 521.01 741.66 520.16 740.93 C 521.17 741.64 522.17 742.38 523.17 743.14 C 524.59 742.96 526.04 742.86 527.41 742.35 C 529.03 741.49 530.78 740.89 532.55 740.39 C 534.11 739.32 535.49 738.03 536.84 736.71 C 537.06 735.61 537.31 734.52 537.59 733.45 C 537.99 732.41 538.42 731.39 538.88 730.38 C 539.09 728.02 538.56 725.45 539.88 723.33 C 539.98 721.33 540.00 719.33 540.00 717.34 C 541.45 715.98 542.88 714.57 544.67 713.66 C 546.47 712.09 547.98 710.17 549.98 708.84 C 551.98 709.37 552.00 712.04 552.91 713.59 C 553.01 716.83 552.95 720.08 553.12 723.33 C 554.75 726.27 553.76 729.78 553.99 732.99 C 554.27 735.31 553.05 738.41 555.39 739.98 C 557.42 740.61 557.88 737.91 558.38 736.53 C 558.68 735.51 558.98 734.50 559.27 733.50 C 559.76 732.20 560.22 730.90 560.75 729.63 C 561.39 728.12 561.95 726.59 562.31 725.00 C 563.38 724.99 564.45 724.99 565.53 725.00 C 566.78 727.29 568.22 729.49 569.87 731.53 C 569.97 731.99 570.16 732.92 570.26 733.38 C 570.61 734.49 570.93 735.63 571.21 736.78 C 572.28 737.72 573.37 738.65 574.49 739.57 C 576.12 739.87 577.77 739.97 579.44 740.07 C 581.12 738.27 583.01 736.33 585.57 735.94 C 587.08 737.96 588.13 740.98 591.27 739.96 C 594.91 737.14 601.31 741.57 603.43 736.51 C 604.10 734.85 604.77 733.20 605.33 731.51 C 605.79 730.16 606.20 728.81 606.68 727.48 C 606.99 726.50 607.34 725.53 607.71 724.57 C 608.62 722.54 609.37 720.45 610.27 718.42 C 610.66 717.45 611.04 716.48 611.41 715.51 C 611.90 713.49 612.08 711.41 612.64 709.41 C 612.96 708.06 613.27 706.71 613.71 705.40 C 613.85 704.95 614.14 704.04 614.29 703.58 C 614.70 702.26 615.01 700.92 615.35 699.59 C 616.20 697.95 616.11 696.12 615.42 694.46 C 615.04 693.51 614.65 692.56 614.27 691.63 C 613.67 690.27 613.11 688.92 612.61 687.54 C 612.32 686.53 612.06 685.53 611.83 684.52 C 613.29 681.78 615.98 680.22 618.53 678.64 C 619.55 677.95 620.59 677.29 621.67 676.69 C 623.83 674.69 625.89 672.60 628.00 670.56 C 628.10 666.51 627.50 662.38 628.52 658.41 C 628.92 656.74 629.90 655.38 631.41 654.57 C 632.42 654.25 633.43 653.94 634.46 653.65 C 635.47 653.12 636.51 653.08 637.58 653.54 C 638.92 654.08 640.24 654.69 641.56 655.34 C 642.79 656.13 644.18 655.90 645.52 655.57 C 647.08 654.31 648.57 652.95 650.06 651.62 C 649.99 650.29 649.93 648.97 649.86 647.66 C 649.43 646.59 649.04 645.52 648.70 644.44 C 650.30 643.77 651.89 643.07 653.49 642.40 C 656.97 639.96 659.86 636.77 662.57 633.52 C 663.26 631.72 662.69 630.00 661.79 628.41 C 657.73 623.32 659.11 616.67 659.13 610.66 C 660.38 608.79 659.91 606.48 660.03 604.37 C 661.75 602.69 663.42 600.90 665.51 599.65 C 666.88 599.01 668.23 598.31 669.56 597.59 C 671.36 596.95 673.29 596.98 675.18 596.87 C 675.11 594.62 674.40 592.51 673.43 590.52 C 672.46 588.85 671.13 587.42 669.34 586.66 C 667.85 585.34 666.43 583.97 665.00 582.61 C 665.00 580.30 664.99 577.99 664.86 575.69 C 663.23 572.58 664.26 568.90 663.95 565.54 C 663.63 565.02 662.98 563.98 662.66 563.47 C 662.44 562.95 661.99 561.90 661.76 561.38 C 660.28 560.52 658.87 559.57 657.42 558.67 C 656.46 558.22 655.51 557.78 654.56 557.34 C 652.69 556.16 650.78 555.05 649.09 553.64 C 648.91 551.81 648.95 549.98 648.93 548.16 C 650.73 547.59 652.55 547.05 654.41 546.65 C 655.60 546.30 656.79 545.98 658.00 545.69 C 658.00 545.36 658.00 544.69 658.00 544.36 C 656.79 543.84 655.60 543.29 654.41 542.76 C 653.09 542.05 651.76 541.35 650.45 540.67 C 649.12 540.19 647.79 539.78 646.48 539.33 C 645.43 538.97 644.39 538.59 643.38 538.19 C 642.88 538.13 641.89 538.00 641.39 537.94 C 640.31 536.84 639.24 535.74 638.17 534.65 C 637.97 533.20 637.80 531.74 637.25 530.39 C 637.14 529.67 636.91 528.23 636.80 527.51 C 635.09 530.03 633.28 532.50 630.97 534.51 C 631.02 534.97 631.13 535.90 631.18 536.36 C 632.22 537.93 632.13 539.86 631.97 541.67 C 631.06 542.64 629.77 543.01 628.58 543.49 C 626.91 543.86 625.21 544.02 623.53 544.18 C 623.00 544.46 621.95 545.01 621.42 545.29 C 621.14 544.60 620.56 543.21 620.28 542.52 C 619.98 541.52 619.69 540.52 619.39 539.54 C 618.45 538.11 617.47 536.71 616.60 535.25 C 616.09 535.01 615.06 534.54 614.54 534.31 C 614.04 534.04 613.03 533.49 612.52 533.21 C 611.15 533.00 609.79 532.79 608.45 532.52 C 606.90 531.32 605.45 530.00 604.03 528.67 C 603.97 528.16 603.85 527.15 603.79 526.64 C 602.63 524.40 602.51 521.48 603.90 519.32 C 603.93 517.77 603.94 516.23 603.90 514.69 C 601.85 510.62 603.81 505.79 602.57 501.46 C 601.17 499.70 599.62 498.08 598.00 496.54 C 597.99 495.49 597.99 494.46 598.00 493.43 C 598.81 492.62 599.63 491.81 600.44 491.00 C 603.06 491.00 605.67 490.99 608.30 490.96 C 607.98 489.74 607.62 488.54 607.23 487.36 C 606.87 485.58 607.54 483.22 605.62 482.18 C 604.58 482.02 603.54 481.89 602.50 481.80 C 601.95 481.53 600.84 480.99 600.29 480.71 C 599.61 479.32 598.93 477.95 598.20 476.61 C 597.67 475.28 597.17 473.94 596.74 472.59 C 598.29 470.36 603.19 468.70 601.37 465.47 C 601.03 464.48 600.69 463.50 600.35 462.52 C 598.97 459.14 596.29 456.65 593.66 454.24 C 591.87 453.84 590.19 453.13 588.55 452.38 C 585.77 451.12 583.58 448.98 580.97 447.48 C 580.97 445.46 581.01 443.44 581.42 441.47 C 582.82 439.72 584.43 438.17 585.88 436.46 C 586.66 434.58 583.91 433.98 582.58 433.77 C 579.63 436.90 576.65 440.01 573.50 442.94 C 572.98 442.79 571.95 442.50 571.43 442.35 C 570.42 442.05 569.42 441.74 568.43 441.42 C 565.13 439.12 562.63 435.92 559.65 433.27 C 557.93 432.32 556.29 431.23 554.58 430.28 C 553.16 429.59 551.76 428.86 550.40 428.09 C 549.09 428.04 547.80 428.02 546.51 428.01 C 544.79 429.12 543.11 430.30 541.46 431.51 C 538.59 432.28 535.59 432.04 532.66 431.86 C 530.41 430.71 527.81 431.10 525.43 430.47 C 524.40 430.03 523.39 429.59 522.39 429.13 C 521.91 429.09 520.95 429.01 520.47 428.97 C 518.99 429.91 517.54 430.94 516.53 432.40 C 516.26 433.43 516.00 434.47 515.76 435.51 C 515.48 436.14 514.94 437.38 514.67 438.00 C 509.94 437.80 505.08 438.62 500.46 437.42 C 499.49 437.05 498.52 436.68 497.56 436.30 C 496.21 435.64 494.86 434.98 493.50 434.37 C 489.60 431.73 486.60 428.01 483.33 424.66 C 482.34 422.47 480.53 420.83 478.49 419.63 C 477.49 419.20 476.51 418.77 475.53 418.33 C 473.80 417.81 472.14 417.09 470.53 416.31 C 469.49 416.00 468.46 415.69 467.44 415.37 C 466.40 414.98 465.37 414.56 464.36 414.12 C 461.72 413.96 458.99 414.30 456.46 413.39 C 455.45 413.04 454.45 412.69 453.46 412.34 C 452.40 411.96 451.37 411.54 450.35 411.09 C 448.46 411.02 446.57 411.03 444.69 411.13 C 443.14 411.99 441.35 412.03 439.65 412.29 C 437.10 413.38 434.27 412.92 431.59 413.11 C 429.74 414.29 427.71 415.12 425.50 415.27 C 423.65 416.27 421.69 417.03 419.61 417.38 C 416.94 418.45 413.86 417.38 411.33 418.87 C 406.38 419.59 401.05 417.95 396.35 419.85 C 394.00 420.10 391.44 419.58 389.33 420.87 C 384.45 421.18 379.55 420.84 374.68 421.13 C 373.10 422.17 371.18 421.96 369.40 422.09 C 368.27 423.21 367.14 424.33 366.00 425.44 C 365.98 428.08 365.99 430.72 366.11 433.37 C 366.70 434.72 367.20 436.11 367.76 437.48 C 368.01 438.50 368.27 439.53 368.55 440.55 C 369.70 442.11 371.01 443.54 372.34 444.96 C 372.85 445.02 373.88 445.15 374.39 445.21 C 376.04 445.79 377.75 446.15 379.42 446.67 C 380.50 447.19 381.57 447.74 382.66 448.27 C 382.99 448.84 383.64 450.00 383.97 450.57 C 384.03 452.89 384.07 455.24 383.58 457.53 C 381.43 460.33 378.58 462.52 376.64 465.49 C 375.75 467.56 374.75 469.60 373.60 471.55 C 373.06 472.52 373.08 473.49 373.68 474.44 C 374.43 476.02 374.94 477.70 375.73 479.27 C 377.52 480.02 379.56 480.49 380.48 482.42 C 380.72 483.43 380.94 484.45 381.17 485.47 C 379.33 487.20 377.62 489.13 375.37 490.35 C 374.11 491.44 372.89 492.57 371.64 493.68 C 370.18 494.52 368.81 495.51 367.42 496.49 C 365.79 497.11 364.06 497.13 362.46 496.41 C 361.48 496.05 360.50 495.69 359.54 495.32 C 358.22 494.63 356.91 493.96 355.60 493.28 C 353.57 492.31 351.55 491.31 349.60 490.20 C 345.24 487.65 339.98 490.08 335.40 488.38 C 334.03 488.01 332.64 487.69 331.33 487.14 C 327.00 486.64 322.39 487.85 318.32 485.90 C 316.30 484.57 314.47 483.00 312.46 481.66 C 311.49 481.19 310.54 480.71 309.59 480.22 C 307.20 478.70 304.37 478.90 301.69 479.11 C 299.15 480.74 295.91 479.29 293.34 480.83 C 291.01 481.05 288.55 480.71 286.38 481.75 C 285.47 481.91 284.56 482.09 283.66 482.27 C 281.33 483.28 278.65 482.68 276.35 483.79 C 275.43 483.90 274.51 484.01 273.59 484.13 C 272.34 485.11 271.00 485.99 269.58 486.71 C 268.48 487.37 267.44 488.11 266.43 488.89 C 265.95 488.96 265.01 489.11 264.54 489.19 C 261.92 491.17 258.63 490.96 255.56 491.48 C 254.21 492.47 252.86 493.45 251.48 494.39 C 250.50 494.72 249.53 495.05 248.55 495.38 C 246.15 496.27 243.55 495.97 241.05 496.02 C 233.92 496.01 226.79 495.88 219.66 496.13 C 216.80 497.95 213.26 496.91 210.50 495.42 C 209.14 494.47 207.87 493.41 206.62 492.33 C 205.20 491.47 203.82 490.56 202.41 489.72 C 201.46 489.21 200.52 488.70 199.60 488.17 C 197.29 487.05 194.67 487.10 192.32 486.16 C 189.67 485.90 186.88 486.37 184.37 485.29 C 182.70 485.03 181.02 484.84 179.38 484.40 C 177.97 484.02 176.51 483.77 175.25 483.00 C 174.01 483.10 172.78 483.24 171.56 483.47 C 170.19 484.48 168.85 485.51 167.49 486.53 C 164.86 487.19 162.03 487.35 159.46 486.39 C 158.45 486.05 157.45 485.70 156.45 485.35 C 155.08 484.87 153.75 484.33 152.43 483.76 C 150.56 482.72 148.57 481.97 146.54 481.34 C 145.16 480.47 143.82 479.55 142.44 478.70 C 141.45 478.18 140.47 477.66 139.49 477.13 C 139.00 477.09 138.00 476.99 137.51 476.94 C 136.22 474.73 134.24 474.83 132.38 476.28 C 130.82 477.09 129.21 477.81 127.57 478.47 C 125.65 478.95 123.66 479.04 121.69 479.24 C 120.35 479.71 118.96 480.00 117.58 480.30 C 116.56 480.67 115.55 481.03 114.54 481.40 C 109.61 482.67 104.44 481.70 99.41 482.03 C 98.68 481.23 97.94 480.44 97.21 479.65 C 96.89 478.60 96.56 477.57 96.21 476.54 C 95.99 475.10 95.77 473.66 95.54 472.23 C 95.78 472.46 96.25 472.91 96.49 473.14 C 97.34 471.50 98.36 469.97 99.31 468.41 C 99.55 467.91 100.01 466.90 100.25 466.40 C 100.96 465.08 101.66 463.76 102.38 462.45 C 102.74 461.17 103.02 459.87 103.32 458.60 C 104.08 457.46 104.01 456.38 103.11 455.34 C 102.89 451.11 103.08 446.88 102.88 442.66 C 102.44 441.60 102.04 440.54 101.68 439.47 C 101.44 438.95 100.96 437.93 100.73 437.42 C 99.36 434.75 98.04 432.06 96.66 429.41 C 95.89 427.83 95.19 426.20 94.66 424.53 C 94.29 423.53 93.94 422.54 93.59 421.55 C 92.67 418.90 93.42 415.96 92.27 413.38 C 92.17 412.92 91.96 412.00 91.86 411.54 C 91.08 410.52 90.32 409.49 89.62 408.43 C 88.56 407.12 87.50 405.81 86.67 404.35 C 84.63 402.05 82.38 399.95 80.33 397.66 C 79.02 395.08 76.74 393.20 74.64 391.29 C 72.16 389.88 69.86 388.18 67.42 386.72 C 64.20 384.80 61.00 382.85 57.59 381.28 C 55.58 380.30 53.59 379.29 51.57 378.33 C 50.17 377.44 48.79 376.53 47.39 375.65 C 46.08 374.53 44.76 373.38 43.16 372.67 C 42.30 371.70 41.48 370.70 40.71 369.67 C 40.29 370.32 39.89 370.98 39.49 371.65 C 38.89 368.30 38.98 364.87 38.98 361.48 C 36.53 357.14 32.10 354.04 27.32 352.78 C 25.03 351.92 23.47 350.19 23.70 347.63 C 22.22 341.92 23.50 335.79 21.82 330.03 C 21.77 333.39 25.31 333.06 27.54 333.60 C 28.56 333.99 29.57 334.39 30.57 334.81 C 31.04 334.89 31.98 335.05 32.44 335.12 C 33.45 335.89 34.49 336.64 35.57 337.31 C 39.96 339.79 44.38 342.45 47.77 346.25 C 50.00 348.68 52.84 350.67 54.31 353.70 C 55.72 355.38 57.40 356.80 59.34 357.83 C 60.72 358.35 62.09 358.89 63.47 359.41 C 67.71 360.47 72.22 360.17 76.52 359.57 C 78.06 358.33 79.52 357.00 80.96 355.66 C 81.02 355.16 81.15 354.14 81.21 353.64 C 81.89 352.43 81.95 351.06 82.01 349.73 C 80.82 347.83 81.01 345.49 80.34 343.42 C 80.04 342.13 79.77 340.84 79.44 339.56 C 78.51 338.17 77.53 336.81 76.61 335.42 C 74.97 334.71 73.88 333.33 73.55 331.58 C 72.27 329.24 73.97 326.91 73.62 324.52 C 72.76 323.49 71.90 322.47 71.02 321.48 C 71.06 318.12 70.64 314.70 71.52 311.42 C 71.99 310.12 72.52 308.84 73.40 307.76 C 74.59 308.12 75.52 308.96 76.54 309.64 C 77.65 310.05 78.74 310.51 79.81 311.02 C 81.07 310.84 82.32 310.63 83.55 310.30 C 84.01 310.18 84.93 309.92 85.39 309.79 C 85.94 309.54 87.04 309.03 87.59 308.78 C 90.30 307.41 92.42 305.21 94.44 303.00 C 97.07 302.98 99.72 302.98 102.36 303.12 C 104.91 304.65 107.92 304.26 110.74 304.44 C 109.00 305.15 107.00 304.28 105.17 304.35 C 102.53 307.14 106.43 308.27 108.11 309.88 C 109.33 311.35 110.42 312.92 111.66 314.39 C 112.53 315.80 113.46 317.17 114.36 318.57 C 114.78 319.54 115.19 320.51 115.61 321.49 C 116.59 323.09 117.89 324.45 119.29 325.69 C 121.58 326.75 123.22 328.71 125.01 330.42 C 125.29 333.59 123.66 337.95 127.44 339.49 C 128.76 339.78 130.09 340.03 131.41 340.31 C 134.02 341.55 137.12 340.37 139.66 341.83 C 140.89 341.93 142.12 342.04 143.36 342.14 C 142.68 343.58 141.98 345.01 141.24 346.42 C 140.66 347.76 140.10 349.10 139.56 350.46 C 138.81 352.75 138.99 355.18 138.98 357.56 C 139.80 358.36 140.62 359.18 141.44 360.00 C 144.17 359.89 147.09 360.51 149.63 359.24 C 150.54 359.07 151.46 358.92 152.37 358.76 C 157.02 357.10 162.15 358.39 166.99 358.00 C 172.16 358.39 177.78 356.81 182.49 359.58 C 184.13 360.52 185.47 361.87 186.42 363.51 C 188.64 367.09 188.04 371.34 187.87 375.34 C 186.31 378.17 187.07 381.59 187.09 384.68 C 187.95 385.67 189.23 386.02 190.42 386.47 C 194.98 387.59 199.71 386.69 204.34 387.09 C 205.37 388.02 206.45 388.10 207.59 387.33 C 209.65 387.02 211.59 386.30 213.45 385.39 C 215.84 383.79 218.16 382.11 220.68 380.71 C 222.07 379.42 223.42 378.08 224.70 376.68 C 225.51 375.22 226.48 373.85 227.38 372.45 C 227.70 371.47 228.01 370.49 228.31 369.51 C 228.66 368.52 228.99 367.52 229.32 366.52 C 229.67 365.52 230.00 364.52 230.33 363.53 C 230.66 362.52 230.98 361.51 231.28 360.50 C 232.00 358.48 232.74 356.47 233.58 354.51 C 234.35 353.44 235.16 352.41 236.01 351.41 C 236.00 349.39 236.15 347.31 235.36 345.40 C 235.02 344.05 234.69 342.70 234.26 341.38 C 234.04 339.73 233.84 338.08 233.54 336.45 C 232.32 333.41 229.06 333.59 226.42 334.54 C 222.97 335.45 221.75 339.44 218.48 340.91 C 218.00 340.97 217.03 341.09 216.55 341.14 C 215.92 341.45 214.67 342.06 214.04 342.36 C 213.96 337.06 214.02 331.75 214.00 326.45 C 213.17 325.61 212.34 324.76 211.53 323.91 C 209.80 324.00 208.04 324.00 206.41 324.62 C 204.69 325.01 203.01 325.51 201.38 326.16 C 200.46 326.70 199.53 327.22 198.60 327.74 C 194.82 329.71 190.85 332.19 186.42 330.59 C 185.35 329.67 184.37 328.66 183.56 327.52 C 181.45 324.15 182.27 320.17 181.59 316.46 C 180.46 314.94 179.16 313.55 177.49 312.63 C 176.12 312.01 174.76 311.37 173.40 310.73 C 172.46 310.25 171.51 309.78 170.55 309.32 C 165.70 306.11 160.78 302.99 156.04 299.62 C 154.81 296.53 158.47 295.97 160.54 295.08 C 161.02 295.08 161.99 295.07 162.48 295.07 C 163.85 295.67 165.22 296.27 166.58 296.90 C 169.59 297.01 172.59 297.01 175.60 297.01 C 177.30 295.26 179.05 293.53 180.42 291.50 C 182.26 288.50 182.07 285.01 182.12 281.63 C 182.55 280.58 182.94 279.53 183.29 278.46 C 184.10 276.83 184.87 275.19 185.70 273.58 C 186.87 271.69 187.95 269.73 188.76 267.65 C 189.30 266.27 189.84 264.90 190.31 263.50 C 190.69 262.50 191.05 261.50 191.40 260.50 C 192.34 257.30 191.89 253.93 192.13 250.65 C 193.03 249.09 192.99 247.26 193.23 245.54 C 193.59 244.50 193.94 243.46 194.27 242.42 C 194.77 241.10 195.24 239.76 195.77 238.44 C 195.89 237.97 196.13 237.03 196.26 236.56 C 197.03 233.91 197.65 231.22 198.34 228.55 C 200.94 223.27 196.24 219.04 194.21 214.63 C 193.89 213.55 193.54 212.48 193.16 211.43 C 193.08 210.43 193.01 209.43 192.95 208.44 C 194.73 206.73 196.48 204.97 198.45 203.47 C 200.07 203.16 201.71 202.93 203.34 202.67 C 204.60 202.17 205.95 202.07 207.29 202.00 C 209.73 203.70 212.83 202.62 215.55 203.32 C 220.09 204.36 224.78 203.87 229.39 204.07 C 230.41 204.52 231.44 204.95 232.48 205.36 C 233.47 205.67 234.48 205.98 235.49 206.27 C 236.74 207.13 238.06 207.88 239.45 208.51 C 240.82 209.04 242.30 208.91 243.59 208.20 C 244.13 208.14 245.21 208.01 245.75 207.95 C 246.04 206.59 246.36 205.24 246.73 203.90 C 246.43 203.92 245.83 203.96 245.53 203.98 C 244.40 202.47 243.11 201.09 241.94 199.62 C 242.00 198.61 242.08 197.60 242.16 196.60 C 242.56 195.52 242.92 194.43 243.25 193.32 C 245.26 191.31 247.13 189.16 248.83 186.87 C 251.35 184.00 254.10 181.17 255.47 177.52 C 256.11 174.84 256.06 172.06 255.98 169.32 C 257.75 166.43 261.06 165.17 263.57 163.05 C 264.57 163.02 265.57 163.00 266.58 162.99 C 269.24 165.82 271.91 168.80 275.57 170.37 C 277.20 171.07 278.83 171.76 280.50 172.35 C 281.81 172.71 283.13 173.02 284.45 173.34 C 286.07 173.81 287.74 174.02 289.40 174.30 C 291.06 174.81 292.79 174.99 294.52 175.19 C 297.16 176.51 300.87 177.63 300.30 181.37 C 300.87 181.04 302.01 180.37 302.58 180.04 C 304.52 180.01 306.47 180.02 308.42 180.05 C 309.02 180.38 310.23 181.04 310.83 181.37 C 310.94 180.14 311.06 178.90 311.19 177.68 C 312.36 175.51 311.92 172.99 312.16 170.64 C 313.20 168.46 312.96 165.98 313.20 163.65 C 313.98 161.98 313.98 160.12 314.11 158.33 C 314.56 157.90 315.47 157.04 315.92 156.61 C 316.00 156.10 316.16 155.08 316.24 154.57 C 316.66 153.17 316.91 151.74 317.16 150.32 C 318.34 147.08 321.76 146.13 324.52 144.65 C 325.50 144.33 326.49 144.02 327.48 143.73 C 329.82 142.51 332.20 141.37 334.52 140.10 C 335.10 140.07 336.25 140.00 336.83 139.97 C 337.41 138.16 337.92 136.34 338.21 134.46 C 339.62 132.35 341.05 130.19 343.37 128.98 C 347.04 128.93 350.72 128.90 354.38 129.14 C 357.06 130.49 360.14 129.89 363.02 129.99 C 364.76 130.07 366.93 129.48 367.93 131.38 C 368.04 132.69 367.95 134.01 367.91 135.33 C 366.08 139.50 367.37 144.26 366.98 148.67 C 371.38 151.03 373.30 155.95 377.58 158.42 C 379.07 160.84 381.11 162.87 383.50 164.41 C 385.34 165.69 387.37 166.68 389.51 167.37 C 390.53 167.66 391.56 167.94 392.60 168.21 C 397.44 170.08 400.76 174.17 404.32 177.75 C 405.95 179.31 406.77 181.45 407.75 183.44 C 408.06 184.49 408.42 185.53 408.80 186.56 C 408.87 187.07 409.00 188.09 409.06 188.61 C 409.96 189.49 410.86 190.39 411.77 191.30 C 412.43 192.70 413.13 194.09 413.86 195.47 C 413.96 195.95 414.14 196.91 414.23 197.39 C 415.18 199.72 415.96 202.12 416.80 204.50 C 416.92 204.95 417.16 205.87 417.28 206.32 C 419.02 210.85 417.96 215.84 417.94 220.56 C 416.85 222.25 415.72 223.91 414.70 225.64 C 414.31 226.09 413.54 227.00 413.15 227.46 C 413.04 227.95 412.84 228.93 412.74 229.43 C 411.29 234.28 412.45 239.46 412.01 244.46 C 414.34 246.84 415.88 250.21 419.54 250.79 C 420.02 250.90 420.99 251.12 421.47 251.23 C 423.19 251.79 424.96 252.20 426.67 252.81 C 428.58 252.95 430.50 253.02 432.42 253.14 C 433.44 253.55 434.48 253.94 435.53 254.30 C 436.52 254.67 437.52 255.03 438.53 255.39 C 440.14 255.79 441.79 256.01 443.44 256.27 C 444.77 256.67 446.14 256.96 447.50 257.27 C 449.13 258.04 450.79 258.74 452.49 259.38 C 453.85 259.69 455.23 259.94 456.62 260.19 C 457.55 260.67 458.50 261.16 459.44 261.65 C 461.69 263.13 464.00 264.54 466.45 265.67 C 471.29 268.12 475.89 271.50 478.85 276.13 C 479.71 277.38 481.16 278.00 482.41 278.80 C 483.46 279.04 484.50 279.29 485.54 279.57 C 486.56 279.95 487.58 280.34 488.60 280.76 C 489.54 280.91 490.48 281.07 491.44 281.24 C 493.24 281.96 495.58 281.70 496.93 283.34 C 497.05 285.78 497.46 288.46 496.15 290.68 C 496.15 293.44 495.32 296.56 497.07 298.98 C 498.89 301.71 500.41 304.61 501.94 307.52 C 501.97 309.20 501.99 310.89 502.02 312.59 C 504.20 316.17 508.00 318.47 509.82 322.31 C 509.67 324.71 511.61 325.97 513.49 326.95 C 516.56 327.10 519.89 326.32 522.73 327.84 C 524.15 327.94 525.57 328.01 527.00 328.08 C 526.91 331.25 527.42 334.53 526.39 337.60 C 526.03 338.94 525.69 340.29 525.27 341.62 C 525.02 343.32 524.98 345.10 524.15 346.66 C 523.39 351.95 525.09 357.63 523.14 362.66 C 523.19 366.62 522.28 370.82 523.73 374.61 C 523.85 375.08 524.10 376.00 524.22 376.47 C 525.05 378.08 525.80 379.74 526.39 381.47 C 526.69 382.49 526.98 383.52 527.25 384.57 C 527.74 385.51 528.22 386.46 528.70 387.43 C 529.56 388.84 530.47 390.23 531.29 391.68 C 532.58 393.08 533.93 394.43 535.31 395.76 C 536.79 396.11 538.22 396.65 539.62 397.28 C 540.48 397.59 541.36 397.87 542.25 398.14 C 543.49 396.98 544.89 396.00 546.44 395.28 C 548.24 394.17 549.83 392.75 551.66 391.66 C 553.55 389.94 555.28 387.98 557.53 386.68 C 559.30 385.84 560.90 384.71 562.53 383.63 C 563.49 383.29 564.46 382.97 565.44 382.68 C 566.45 382.34 567.46 382.02 568.49 381.73 C 569.52 381.00 570.58 380.30 571.68 379.68 C 572.95 378.50 574.18 377.29 575.42 376.07 C 575.90 376.00 576.87 375.84 577.36 375.76 C 579.63 374.60 582.24 375.07 584.70 374.95 C 585.62 376.09 586.54 377.24 587.42 378.43 C 587.71 379.45 587.99 380.47 588.27 381.49 C 588.66 382.46 589.04 383.44 589.42 384.42 C 589.93 386.08 589.99 387.81 590.11 389.54 C 588.31 391.23 586.58 393.02 584.51 394.40 C 583.50 394.80 582.49 395.19 581.49 395.60 C 579.86 396.72 578.39 398.06 576.92 399.39 C 576.99 400.37 577.08 401.35 577.19 402.34 C 577.62 403.56 578.01 404.78 578.36 406.03 C 579.36 405.98 580.37 405.93 581.38 405.88 C 582.85 405.08 584.36 404.33 585.88 403.62 C 586.02 405.94 585.75 408.38 586.69 410.58 C 586.96 411.89 587.22 413.22 587.52 414.54 C 589.47 417.22 591.91 419.48 594.34 421.72 C 595.80 422.53 597.21 423.44 598.68 424.27 C 601.92 427.70 605.91 430.55 608.35 434.66 C 609.65 436.13 611.02 437.54 612.40 438.95 C 614.42 438.96 616.47 438.97 618.45 439.48 C 619.77 440.45 621.09 441.41 622.43 442.37 C 623.48 441.08 624.53 439.79 625.55 438.47 C 626.17 435.51 625.84 432.45 626.43 429.49 C 627.66 427.92 629.00 426.45 630.36 424.98 C 633.39 424.99 636.43 425.00 639.47 425.01 C 640.45 425.87 641.48 426.73 642.52 427.56 C 644.46 428.00 646.45 428.00 648.44 427.98 C 652.64 425.82 656.31 422.80 660.52 420.65 C 661.47 420.29 662.44 419.93 663.42 419.60 C 666.69 418.54 670.18 419.10 673.56 419.00 C 674.36 419.81 675.17 420.63 676.00 421.44 C 676.00 421.95 676.00 422.99 676.00 423.51 C 673.89 424.48 672.17 426.06 670.67 427.79 C 669.27 428.77 670.17 430.29 671.39 430.89 C 673.10 431.08 674.84 431.01 676.57 431.02 C 677.37 431.82 678.18 432.62 679.00 433.42 C 678.99 434.50 678.99 435.59 679.00 436.68 C 677.49 437.30 676.00 437.96 674.52 438.61 C 673.28 439.44 672.11 440.36 670.96 441.28 C 670.97 441.85 671.00 442.99 671.01 443.56 C 667.51 447.16 663.57 450.38 660.61 454.46 C 660.16 455.83 659.74 457.22 659.26 458.59 C 659.13 459.04 658.86 459.94 658.73 460.39 C 658.12 461.37 658.04 462.38 658.51 463.43 C 659.50 464.83 660.53 466.23 661.28 467.79 C 662.31 468.73 663.40 469.61 664.58 470.39 C 666.09 471.63 667.64 472.82 669.34 473.82 C 670.81 474.00 672.34 474.09 673.68 474.86 C 676.89 475.07 680.11 475.05 683.33 474.87 C 684.43 474.44 685.55 474.06 686.69 473.75 C 688.88 471.58 691.01 469.34 693.45 467.44 C 694.89 467.05 696.41 466.75 697.67 467.87 C 698.95 467.94 700.24 467.98 701.55 468.03 C 702.34 467.20 703.15 466.38 703.97 465.57 C 704.09 463.14 703.49 460.49 704.88 458.31 C 705.31 454.67 704.27 450.78 705.77 447.33 C 705.96 445.33 705.93 443.27 706.65 441.37 C 706.94 440.07 707.23 438.78 707.58 437.50 C 708.72 435.42 710.04 433.45 711.25 431.41 C 712.78 428.13 715.56 425.66 718.45 423.58 C 719.44 423.25 720.44 422.93 721.45 422.62 C 724.12 421.64 727.01 422.05 729.79 421.99 C 729.97 423.50 730.18 425.03 730.56 426.52 C 729.96 428.78 729.93 431.14 729.54 433.44 C 728.50 434.80 727.49 436.17 726.46 437.54 C 725.82 442.12 725.47 447.01 726.64 451.53 C 726.93 452.54 727.25 453.54 727.58 454.56 C 728.95 456.54 730.68 458.24 732.37 459.95 C 732.88 460.01 733.90 460.15 734.41 460.21 C 736.78 460.94 739.19 461.55 741.49 462.54 C 743.73 464.05 745.59 466.02 747.42 468.00 C 750.16 468.00 752.91 467.99 755.66 468.00 C 755.94 468.63 756.51 469.90 756.79 470.53 C 756.43 473.16 757.99 474.99 760.42 475.73 C 761.35 476.24 762.25 476.79 763.17 477.35 C 760.78 481.27 757.22 484.22 754.00 487.42 C 753.99 488.48 753.98 489.54 753.99 490.62 C 755.48 491.29 756.96 491.99 758.41 492.75 C 760.74 493.73 763.12 494.57 765.42 495.62 C 766.82 496.53 768.20 497.47 769.65 498.33 C 770.54 499.10 771.44 499.89 772.35 500.68 C 774.60 501.97 776.79 503.41 778.74 505.15 C 779.68 504.88 780.63 504.58 781.59 504.26 C 782.04 504.13 782.95 503.86 783.40 503.73 C 784.41 503.02 785.42 503.01 786.43 503.67 C 788.93 505.48 793.16 506.05 794.45 502.57 C 794.72 501.54 794.99 500.52 795.25 499.50 C 795.51 498.90 796.02 497.71 796.27 497.12 C 799.46 495.64 803.18 495.57 806.53 496.57 C 807.88 497.09 809.23 497.65 810.59 498.22 C 811.90 498.94 813.23 499.64 814.58 500.34 C 816.17 501.09 817.79 501.80 819.44 502.45 C 821.72 503.26 824.19 503.13 826.52 502.56 C 829.45 500.29 831.99 497.57 834.50 494.86 C 835.83 495.02 837.18 495.20 838.52 495.46 C 840.67 497.07 842.56 499.00 844.41 500.95 C 845.37 501.01 846.35 501.09 847.33 501.18 C 848.66 501.87 850.16 501.97 851.63 502.17 C 852.42 502.92 853.23 503.68 854.05 504.43 C 854.23 507.24 853.85 510.02 852.41 512.49 C 851.31 514.04 849.98 515.41 848.90 516.97 C 850.88 520.37 853.57 523.25 856.40 525.96 C 857.37 526.01 858.35 526.08 859.35 526.17 C 863.16 527.51 867.90 527.59 871.68 526.12 C 874.97 525.80 878.42 526.50 881.60 525.35 C 882.91 525.02 884.25 524.72 885.57 524.34 C 887.31 524.01 889.01 523.48 890.64 522.76 C 892.29 522.06 893.99 521.45 895.65 520.76 C 896.13 520.49 897.08 519.97 897.56 519.71 C 899.17 518.89 900.81 518.11 902.45 517.32 C 906.08 514.93 909.91 512.75 913.01 509.66 C 912.77 506.57 913.72 503.17 912.14 500.34 C 912.07 497.42 911.42 494.33 912.66 491.56 C 913.29 490.24 913.90 488.90 914.46 487.55 C 915.22 484.63 915.44 481.42 914.36 478.56 C 913.74 477.33 913.16 476.09 912.65 474.84 C 911.44 475.87 910.52 477.47 909.02 478.02 C 907.83 477.50 906.72 476.85 905.61 476.22 C 903.71 475.11 901.56 474.87 899.41 474.90 C 898.22 473.72 897.01 472.56 895.79 471.44 C 895.93 467.95 900.13 467.14 902.03 464.68 C 901.86 461.59 902.53 458.32 901.31 455.39 C 901.15 454.94 900.84 454.05 900.68 453.60 C 899.73 451.27 900.33 448.62 899.21 446.35 C 899.15 445.83 899.02 444.80 898.96 444.28 C 897.81 443.31 896.67 442.36 895.50 441.45 C 892.90 440.83 890.21 440.96 887.58 441.06 C 886.96 441.39 885.73 442.05 885.11 442.38 C 885.07 441.79 885.00 440.61 884.96 440.02 C 884.57 440.01 883.79 440.00 883.40 440.00 C 883.06 439.34 882.37 438.02 882.03 437.36 C 883.11 436.37 884.18 435.38 885.29 434.41 C 884.82 433.04 884.27 431.71 883.71 430.39 C 883.34 429.35 883.01 428.30 882.72 427.25 C 884.34 427.03 886.01 426.86 887.60 426.38 C 889.32 426.00 891.00 425.47 892.65 424.82 C 893.14 424.54 894.11 423.97 894.60 423.69 C 895.28 422.59 896.01 421.53 896.77 420.48 C 897.01 419.08 897.22 417.65 897.81 416.34 C 897.88 414.70 897.93 413.07 897.99 411.44 C 897.21 410.28 896.51 409.07 895.61 408.02 C 894.16 407.79 892.68 408.03 891.40 408.73 C 890.94 408.86 890.03 409.12 889.57 409.25 C 888.58 409.60 887.60 409.92 886.62 410.23 C 885.74 409.32 884.86 408.41 883.99 407.52 C 883.97 406.48 883.97 405.44 883.99 404.40 C 884.77 403.68 885.55 402.95 886.35 402.23 C 887.80 401.84 889.24 401.36 890.69 400.89 C 894.34 398.88 895.81 394.53 899.49 392.44 C 901.73 391.38 903.49 392.37 904.56 394.46 C 904.93 395.89 905.26 397.43 904.11 398.66 C 904.00 400.77 903.98 402.89 903.97 405.01 C 905.83 405.00 907.70 405.00 909.58 405.00 C 910.34 404.19 911.13 403.39 911.93 402.60 C 912.00 402.11 912.16 401.13 912.24 400.64 C 913.21 398.35 912.99 395.82 913.41 393.42 C 914.31 392.37 915.30 391.40 916.42 390.57 C 917.78 390.17 919.16 389.79 920.54 389.37 C 921.80 389.02 923.08 388.63 924.04 387.66 C 923.97 386.60 923.79 385.55 923.53 384.53 C 922.50 383.17 921.48 381.81 920.46 380.46 C 920.06 379.40 920.14 378.38 920.71 377.39 C 920.99 375.86 920.83 374.05 922.34 373.10 C 923.88 372.93 925.43 372.97 927.00 372.94 C 926.98 369.44 927.24 365.90 926.58 362.45 C 924.92 359.68 921.36 358.74 920.20 355.62 C 919.72 354.53 919.22 353.45 918.75 352.37 C 918.48 351.89 917.93 350.92 917.66 350.44 C 916.72 348.48 915.96 346.45 915.18 344.44 C 915.04 343.50 914.91 342.56 914.79 341.63 C 913.28 338.80 914.07 335.47 913.98 332.42 C 914.41 331.99 915.27 331.12 915.70 330.69 C 916.91 328.62 918.25 326.62 919.29 324.44 C 920.09 322.80 920.91 321.17 921.82 319.58 C 922.62 317.54 923.11 315.40 923.87 313.35 C 924.17 306.79 923.86 300.22 924.16 293.67 C 925.26 291.42 924.95 288.85 925.44 286.45 C 927.05 284.41 928.91 282.59 930.64 280.65 C 931.96 278.34 934.05 276.60 935.43 274.32 C 935.95 274.03 936.99 273.45 937.51 273.16 C 939.18 273.01 940.90 272.92 942.52 272.37 C 943.53 272.06 944.54 271.74 945.56 271.42 C 948.86 269.11 951.29 265.83 954.48 263.38 C 955.49 263.27 956.52 263.26 957.55 263.37 C 959.01 264.55 960.38 265.87 961.48 267.41 C 961.72 268.47 961.96 269.52 962.21 270.59 C 962.50 271.07 963.10 272.05 963.40 272.53 C 963.67 273.52 963.94 274.52 964.21 275.52 C 963.04 276.51 961.89 277.52 960.74 278.53 C 961.05 279.56 961.41 280.58 961.81 281.60 C 961.87 282.10 962.00 283.10 962.06 283.60 C 963.81 285.31 965.54 287.04 967.32 288.74 C 968.45 289.06 969.57 289.44 970.67 289.89 C 971.87 289.91 973.08 289.91 974.31 289.90 C 975.58 289.20 977.03 288.99 978.45 288.70 C 979.44 288.34 980.44 287.99 981.46 287.66 C 982.47 287.33 983.50 287.02 984.55 286.74 C 985.05 286.47 986.05 285.93 986.55 285.67 C 987.86 285.21 989.17 284.75 990.50 284.30 C 991.47 283.99 992.45 283.67 993.44 283.34 C 995.41 282.29 997.42 281.29 999.40 280.24 C 1000.49 279.75 1001.57 279.24 1002.68 278.76 C 1002.99 278.18 1003.60 277.02 1003.90 276.44 C 1003.94 274.72 1003.91 273.00 1004.10 271.30 C 1005.87 269.27 1009.43 270.69 1010.42 267.57 C 1010.73 266.55 1011.05 265.52 1011.38 264.50 C 1012.11 262.17 1011.79 259.63 1012.76 257.36 C 1013.09 255.54 1012.47 253.22 1014.35 252.09 C 1018.75 251.72 1023.18 252.27 1027.59 251.89 C 1029.58 251.05 1029.20 248.79 1028.15 247.35 C 1028.02 245.78 1027.93 244.22 1027.83 242.66 C 1026.79 240.82 1027.00 238.67 1026.80 236.65 C 1025.71 234.74 1026.02 232.51 1025.92 230.42 C 1024.62 228.03 1022.79 225.99 1020.54 224.49 C 1018.49 224.10 1016.40 223.95 1014.42 223.31 C 1013.06 223.04 1011.72 222.79 1010.39 222.50 C 1008.02 220.77 1006.71 218.07 1005.24 215.62 C 1004.99 215.12 1004.50 214.13 1004.25 213.64 C 1003.66 212.28 1003.08 210.93 1002.55 209.56 C 1002.20 208.55 1002.16 207.54 1002.43 206.51 C 1003.76 204.87 1005.16 203.27 1006.37 201.53 C 1006.83 200.14 1007.26 198.74 1007.81 197.38 C 1007.88 196.77 1008.01 195.56 1008.08 194.95 C 1010.65 194.93 1013.35 194.76 1015.60 196.26 C 1016.54 196.66 1017.49 197.03 1018.47 197.39 C 1019.76 197.75 1021.08 198.03 1022.41 198.34 C 1025.33 199.48 1028.57 199.07 1031.59 198.59 C 1033.33 197.11 1034.57 195.18 1036.01 193.42 C 1035.99 191.74 1036.06 190.05 1035.93 188.38 C 1034.94 187.46 1033.75 186.87 1032.63 186.19 C 1031.52 185.74 1030.43 185.26 1029.34 184.82 C 1025.48 182.95 1022.88 179.43 1021.16 175.60 C 1020.59 174.15 1020.09 172.68 1019.79 171.15 C 1018.49 170.04 1017.10 169.05 1015.66 168.16 C 1015.12 167.98 1014.03 167.62 1013.49 167.43 C 1011.08 165.79 1009.11 163.64 1007.06 161.61 C 1006.98 161.12 1006.83 160.15 1006.75 159.66 C 1005.59 157.26 1006.02 154.53 1005.93 151.96 C 1006.02 150.23 1005.50 148.07 1007.38 147.08 C 1009.39 146.86 1011.57 146.73 1013.45 147.68 C 1014.78 148.32 1016.15 148.89 1017.59 149.30 C 1018.84 150.37 1020.12 151.44 1021.52 152.33 C 1022.55 152.84 1023.57 153.37 1024.59 153.93 C 1025.89 153.93 1027.21 153.90 1028.53 153.87 C 1027.75 152.55 1026.80 151.36 1025.78 150.26 C 1023.35 148.94 1021.05 147.39 1018.49 146.33 C 1016.82 145.31 1015.38 143.99 1013.97 142.66 C 1013.97 141.59 1013.98 140.52 1014.00 139.44 C 1015.14 138.33 1016.27 137.19 1017.41 136.06 C 1017.90 135.99 1018.88 135.86 1019.37 135.80 C 1020.67 134.80 1022.33 134.82 1023.65 135.80 C 1024.15 135.86 1025.15 135.99 1025.65 136.05 C 1026.55 137.03 1027.47 138.01 1028.40 139.00 C 1028.96 139.00 1030.09 139.00 1030.66 138.99 C 1031.09 139.51 1031.95 140.55 1032.38 141.07 C 1032.88 141.01 1033.90 140.88 1034.40 140.82 C 1035.40 140.42 1036.42 140.04 1037.46 139.69 C 1038.81 139.19 1040.18 138.74 1041.55 138.23 C 1042.02 138.11 1042.96 137.86 1043.43 137.74 C 1044.48 137.38 1045.56 137.06 1046.67 136.77 C 1047.75 135.71 1048.84 134.65 1049.96 133.61 C 1050.00 132.60 1050.06 131.61 1050.14 130.61 C 1050.56 129.60 1050.96 128.57 1051.34 127.54 C 1051.68 126.54 1052.02 125.53 1052.36 124.53 C 1052.72 123.22 1053.02 121.90 1053.35 120.59 C 1053.77 119.21 1053.96 117.78 1054.17 116.36 C 1055.25 115.24 1056.34 114.12 1057.43 113.00 C 1058.08 113.00 1059.38 112.99 1060.03 112.99 C 1060.00 112.39 1059.94 111.19 1059.92 110.59 C 1058.58 109.03 1057.55 107.25 1056.52 105.49 C 1055.24 101.56 1056.85 97.25 1055.31 93.40 C 1055.15 92.95 1054.85 92.05 1054.70 91.60 C 1053.47 88.69 1054.11 85.45 1054.00 82.39 C 1055.33 81.12 1056.67 79.84 1058.03 78.57 C 1057.96 77.27 1057.91 75.96 1057.85 74.66 C 1056.63 73.08 1056.81 71.01 1057.72 69.35 C 1057.96 67.65 1057.99 65.87 1058.82 64.31 C 1058.90 63.23 1058.98 62.14 1059.07 61.05 C 1056.89 61.03 1054.72 61.01 1052.56 60.93 C 1051.97 60.62 1050.79 59.99 1050.20 59.68 C 1050.00 59.13 1049.61 58.03 1049.41 57.48 C 1048.55 56.68 1048.07 54.22 1046.59 55.21 C 1045.49 55.91 1044.48 56.67 1043.43 57.39 C 1040.73 59.16 1037.53 59.18 1034.42 59.05 C 1032.21 60.34 1030.30 62.06 1028.57 63.93 C 1026.54 63.98 1024.49 63.93 1022.56 64.55 C 1021.53 65.16 1020.50 65.76 1019.49 66.35 C 1018.50 66.71 1017.51 67.06 1016.54 67.41 C 1014.19 68.25 1011.67 68.02 1009.25 68.06 C 1006.02 63.73 1003.00 59.24 1000.27 54.59 C 999.43 53.17 998.52 51.79 997.67 50.39 C 996.34 48.93 995.10 47.38 994.27 45.58 C 993.64 44.53 992.96 43.51 992.28 42.51 C 992.21 40.75 991.15 39.49 989.70 38.62 C 988.76 40.79 987.10 42.48 985.55 44.20 C 984.12 43.99 982.70 43.78 981.36 43.30 C 979.71 43.04 978.06 42.83 976.45 42.44 C 975.42 42.03 974.41 41.60 973.42 41.16 C 972.92 41.11 971.91 41.00 971.41 40.95 C 970.59 40.14 969.77 39.34 968.95 38.55 C 968.96 37.57 968.99 36.59 969.03 35.62 C 969.82 34.60 970.61 33.56 971.30 32.46 C 972.17 30.71 973.26 29.09 974.28 27.43 C 974.96 26.08 975.66 24.75 976.42 23.44 C 976.74 22.48 976.80 21.50 976.60 20.50 C 975.32 18.94 973.97 17.46 972.63 15.98 C 971.98 15.98 970.68 15.99 970.03 16.00 C 969.99 15.61 969.91 14.83 969.87 14.44 C 971.89 13.58 973.88 12.59 975.56 11.13 C 976.01 11.05 976.92 10.87 977.38 10.79 C 978.38 10.39 979.40 10.02 980.44 9.67 C 981.42 9.30 982.42 8.94 983.44 8.60 C 984.77 8.24 986.13 7.97 987.52 7.71 C 988.46 7.22 989.42 6.74 990.40 6.27 C 992.21 5.78 993.96 5.03 995.61 4.10 Z"
            fill="#ad8762"
            opacity="1.00"
            title="guanhua" />
        <path
            d=" M 1133.60 427.40 C 1132.58 425.97 1134.62 423.78 1136.03 425.01 C 1137.18 426.33 1134.84 428.75 1133.60 427.40 Z"
            fill="#ad8762"
            opacity="1.00"
            title="guanhua" />
        <path
            d=" M 1264.22 501.48 C 1267.50 502.02 1262.29 504.18 1264.22 501.48 Z"
            fill="#ad8762"
            opacity="1.00"
            title="guanhua" />
        <path
            d=" M 1258.11 530.02 C 1261.40 530.25 1256.51 532.97 1258.11 530.02 Z"
            fill="#ad8762"
            opacity="1.00"
            title="guanhua" />
        <path
            d=" M 1262.20 560.20 C 1262.84 560.85 1262.84 560.85 1262.20 560.20 Z"
            fill="#ad8762"
            opacity="1.00"
            title="guanhua" />
        <path
            d=" M 1264.56 585.96 C 1265.50 588.36 1265.33 591.16 1263.77 593.27 C 1263.17 590.76 1262.92 588.14 1264.56 585.96 Z"
            fill="#ad8762"
            opacity="1.00"
            title="guanhua" />
        <path
            d=" M 1077.74 835.75 C 1078.33 838.67 1078.69 841.81 1077.44 844.62 C 1076.96 841.66 1077.15 838.67 1077.74 835.75 Z"
            fill="#ad8762"
            opacity="1.00"
            title="guanhua" />
    </g>
    <g id="#a4805e31">
        <path
            d=" M 499.29 10.08 C 502.27 8.57 499.38 13.41 499.29 10.08 Z"
            fill="#a4805e"
            opacity="0.19"
            title="guanhua" />
        <path
            d=" M 1125.17 394.79 C 1124.25 393.59 1124.47 392.87 1125.81 392.62 C 1126.70 393.82 1126.49 394.54 1125.17 394.79 Z"
            fill="#a4805e"
            opacity="0.19"
            title="guanhua" />
        <path
            d=" M 1233.77 512.61 C 1235.18 512.79 1236.58 512.98 1238.03 513.19 C 1237.97 513.90 1237.85 515.30 1237.79 516.00 C 1236.42 514.89 1235.07 513.77 1233.77 512.61 Z"
            fill="#a4805e"
            opacity="0.19"
            title="guanhua" />
        <path
            d=" M 1185.26 519.25 C 1185.79 519.82 1185.79 519.82 1185.26 519.25 Z"
            fill="#a4805e"
            opacity="0.19"
            title="guanhua" />
        <path
            d=" M 1067.22 647.24 C 1067.77 647.71 1067.77 647.71 1067.22 647.24 Z"
            fill="#a4805e"
            opacity="0.19"
            title="guanhua" />
    </g>
    <g id="#edb36aff">
        <path
            d=" M 958.81 756.73 C 960.81 755.17 961.99 752.84 963.52 750.86 C 965.47 755.65 967.33 760.49 969.64 765.14 C 980.59 764.81 991.57 764.89 1002.53 764.34 C 1002.58 765.87 1002.70 768.91 1002.75 770.44 C 998.38 772.80 992.53 775.05 991.63 780.65 C 990.17 785.53 994.03 789.13 996.12 793.05 C 994.52 796.42 992.83 799.75 991.61 803.30 C 991.06 809.94 998.22 814.08 997.51 820.91 C 997.87 826.70 999.96 832.16 1000.76 837.87 C 996.45 842.60 987.46 838.99 984.47 845.26 C 981.80 850.69 977.39 854.61 971.95 857.21 C 961.90 866.92 948.61 872.20 937.44 880.43 C 934.04 882.89 929.28 885.24 925.26 882.78 C 920.00 879.51 916.96 873.70 912.91 869.18 C 913.67 865.79 914.43 862.42 915.21 859.05 C 919.12 858.38 923.07 857.80 926.99 857.08 C 926.96 856.36 926.89 854.92 926.86 854.20 C 922.32 852.10 918.16 849.08 913.28 847.83 C 908.58 847.28 904.88 850.79 900.79 852.36 C 896.95 842.88 895.40 830.70 885.72 825.13 C 887.73 821.16 890.55 817.71 893.20 814.17 C 896.33 810.31 895.46 804.86 896.60 800.35 C 899.43 799.32 902.25 798.23 905.05 797.12 C 904.83 786.77 907.76 776.04 904.45 765.97 C 903.54 761.74 903.48 757.39 903.43 753.10 C 904.55 753.00 906.79 752.80 907.92 752.70 C 910.24 758.21 911.11 764.10 911.32 770.05 C 915.90 769.54 919.56 766.87 922.67 763.73 C 924.49 765.65 926.19 767.68 927.80 769.79 C 925.89 771.52 923.96 773.22 922.01 774.90 C 922.51 776.24 923.02 777.59 923.53 778.96 C 934.00 777.79 937.36 766.56 944.33 760.38 C 948.67 757.71 954.28 758.95 958.81 756.73 Z"
            fill="#edb36a"
            opacity="1.00"
            title="kejia" />
    </g>
    <g id="#fcf5c7ff">
        <path
            d=" M 962.29 19.27 C 964.67 16.94 968.44 14.20 971.82 16.15 C 974.13 17.42 975.74 19.59 977.47 21.52 C 974.18 27.23 970.64 32.85 968.27 39.03 C 973.23 41.35 978.46 43.43 983.98 43.79 C 986.72 43.32 988.46 40.74 990.52 39.06 C 996.44 49.12 1003.01 58.78 1009.30 68.62 C 1022.68 66.63 1034.45 59.34 1047.25 55.38 C 1049.91 59.44 1054.29 61.16 1059.03 61.69 C 1057.77 70.53 1056.07 79.28 1054.43 88.04 C 1054.57 96.13 1056.94 104.08 1059.64 111.66 C 1050.89 116.66 1053.54 128.66 1047.70 135.68 C 1042.38 137.96 1035.72 142.79 1029.94 139.10 C 1026.27 137.42 1022.29 133.87 1018.08 136.02 C 1015.49 137.00 1012.35 140.56 1014.89 143.10 C 1019.13 147.13 1024.16 150.24 1028.51 154.19 C 1020.65 152.78 1014.48 146.62 1006.15 146.82 C 1006.08 150.79 1006.19 154.76 1006.48 158.72 C 1007.40 163.11 1011.94 165.25 1015.07 167.95 C 1021.25 171.58 1022.26 179.75 1028.08 183.77 C 1030.89 185.56 1033.88 187.12 1036.84 188.70 C 1035.59 192.18 1034.88 197.44 1030.63 198.69 C 1023.08 199.31 1015.99 196.07 1008.64 194.99 C 1007.34 201.08 999.96 206.55 1003.92 213.01 C 1005.63 217.11 1007.98 222.05 1013.17 222.42 C 1017.26 224.13 1023.54 224.66 1025.14 229.69 C 1026.92 236.85 1027.88 244.18 1028.91 251.48 C 1023.81 251.77 1018.79 252.00 1013.74 252.32 C 1012.24 257.99 1012.68 264.82 1008.22 269.26 C 1005.44 271.98 1004.30 275.90 1001.63 278.68 C 992.99 284.39 982.89 287.60 972.84 289.77 C 968.73 290.35 965.17 287.17 962.72 284.27 C 959.92 280.17 964.31 275.61 962.79 271.31 C 961.87 267.61 959.16 264.82 956.42 262.35 C 951.74 266.09 947.50 270.79 941.56 272.46 C 934.19 273.64 930.07 280.50 926.12 286.05 C 922.03 297.98 927.01 311.85 919.82 322.90 C 916.48 328.90 912.01 335.88 914.91 343.04 C 916.56 353.77 928.22 359.92 927.35 371.43 C 925.98 373.46 921.06 372.86 920.87 376.04 C 919.74 380.25 922.90 383.93 924.25 387.69 C 921.04 389.17 917.15 389.82 914.69 392.49 C 912.50 397.75 912.62 405.95 904.65 405.91 C 904.59 400.93 904.53 395.91 903.21 391.08 C 896.50 395.23 890.55 400.51 883.64 404.35 C 884.31 406.31 885.03 408.27 885.81 410.20 C 889.39 409.28 892.97 408.37 896.59 407.61 C 897.24 412.87 898.95 419.38 894.51 423.46 C 891.12 425.50 887.08 426.15 883.44 427.54 C 884.25 432.23 883.11 437.02 884.25 441.68 C 887.93 441.59 891.75 440.67 895.37 441.67 C 899.53 443.01 899.53 448.42 900.58 451.78 C 901.33 455.72 902.33 459.79 901.73 463.81 C 900.25 466.73 897.39 468.62 895.16 470.91 C 900.19 474.93 907.22 479.04 913.60 475.69 C 916.16 487.22 910.27 498.48 912.98 510.08 C 897.99 521.94 878.75 528.65 859.56 526.51 C 854.89 525.29 851.95 521.07 848.99 517.56 C 851.31 513.31 853.20 508.84 854.79 504.27 C 848.17 502.07 842.59 497.54 836.07 495.30 C 830.88 496.79 827.72 504.43 821.17 502.58 C 813.51 500.76 806.66 494.62 798.30 496.26 C 795.46 498.18 794.48 501.71 792.83 504.55 C 787.90 503.54 782.80 504.74 777.92 503.81 C 770.02 498.77 762.00 493.86 753.33 490.20 C 756.22 485.75 759.73 481.77 762.93 477.55 C 754.81 466.66 740.42 464.63 729.84 457.12 C 725.01 453.03 726.04 445.67 726.43 440.13 C 728.23 434.00 730.61 427.90 730.53 421.40 C 725.03 421.87 718.66 422.20 714.74 426.73 C 704.11 437.23 705.79 453.35 703.36 466.87 C 700.39 467.16 697.39 467.03 694.54 467.87 C 689.48 470.48 685.37 475.86 678.98 474.91 C 670.99 475.98 663.30 471.39 659.29 464.66 C 657.36 461.47 659.28 457.69 660.84 454.78 C 666.03 447.77 671.63 440.84 678.95 435.92 C 678.97 435.12 679.03 433.54 679.05 432.75 C 675.93 431.75 672.79 430.83 669.68 429.86 C 672.09 426.80 674.64 423.84 676.90 420.66 C 671.38 419.74 665.20 418.11 660.11 421.19 C 655.89 423.20 651.93 425.70 647.91 428.07 C 641.90 426.57 635.79 425.40 629.68 424.44 C 626.56 430.03 626.08 436.58 623.26 442.29 C 618.07 439.75 612.06 438.39 608.07 433.97 C 602.64 428.35 596.79 423.17 590.93 418.03 C 586.63 414.73 586.44 408.97 585.46 404.17 C 583.04 404.92 580.61 405.65 578.17 406.32 C 577.72 403.91 577.26 401.52 576.84 399.12 C 581.45 396.03 586.04 392.93 590.63 389.81 C 589.40 384.34 587.53 379.04 585.00 374.04 C 577.10 374.74 571.16 380.23 564.14 383.22 C 556.85 386.55 551.18 392.40 544.40 396.51 C 539.77 399.65 534.35 394.96 531.44 391.59 C 528.02 386.61 525.56 380.92 524.02 375.08 C 521.46 359.35 525.57 343.69 527.29 328.10 C 536.69 328.76 546.13 329.05 555.47 330.43 C 562.38 331.14 569.05 333.46 576.05 333.51 C 583.73 334.28 591.35 331.41 599.00 333.11 C 606.64 334.22 614.10 336.41 621.41 338.88 C 625.25 340.59 627.56 344.48 631.17 346.57 C 635.04 347.64 639.17 347.32 643.11 348.16 C 649.76 349.70 655.36 354.04 661.93 355.83 C 668.00 356.80 674.41 355.95 680.30 358.08 C 689.88 362.40 698.25 354.52 706.89 351.73 C 717.81 345.68 730.99 345.92 741.66 339.38 C 745.60 338.84 749.62 340.19 753.58 339.14 C 763.82 336.68 774.33 340.04 784.61 338.30 C 789.64 335.28 795.03 333.10 800.61 331.25 C 805.65 326.82 807.59 319.99 812.24 315.19 C 816.82 308.48 826.22 307.43 830.64 300.66 C 831.69 293.74 826.48 287.68 821.08 284.11 C 822.05 275.95 823.56 267.60 828.79 260.96 C 840.45 263.45 851.53 268.51 863.73 268.26 C 869.66 261.99 876.68 256.75 881.28 249.35 C 889.30 247.68 898.81 248.45 905.25 242.25 C 911.75 238.50 909.56 229.53 914.76 224.76 C 920.06 219.23 928.03 217.57 934.04 213.01 C 939.71 208.53 946.89 206.72 953.62 204.49 C 961.50 202.99 969.62 203.94 977.59 203.02 C 977.61 191.40 970.19 180.22 960.17 174.73 C 953.47 170.86 947.54 165.13 939.90 163.27 C 932.00 162.92 929.59 171.61 925.95 177.01 C 920.62 176.42 915.25 175.81 910.17 174.06 C 904.37 171.85 900.65 178.69 896.41 181.51 C 894.13 177.51 889.19 173.39 891.49 168.44 C 894.01 161.73 895.10 154.63 896.68 147.66 C 898.02 141.51 900.99 135.90 902.83 129.91 C 904.06 125.66 902.72 121.20 902.64 116.92 C 910.77 118.29 918.11 123.21 926.57 122.73 C 930.50 119.75 932.90 114.99 937.30 112.54 C 939.33 111.27 941.67 110.38 943.42 108.68 C 945.18 104.22 946.44 99.55 948.07 95.02 C 951.18 86.30 951.42 76.87 954.34 68.09 C 956.47 62.71 961.39 59.20 964.14 54.22 C 966.83 48.07 963.31 42.04 960.63 36.71 C 957.49 37.13 954.84 37.58 951.82 37.99 C 955.39 31.80 958.23 25.16 962.29 19.27 Z"
            fill="#fcf5c7"
            opacity="1.00"
            title="kongbai" />
        <path
            d=" M 154.99 299.05 C 161.02 302.02 166.27 306.44 172.21 309.62 C 175.31 311.85 180.24 313.17 181.05 317.50 C 183.03 322.76 182.90 333.66 191.65 330.28 C 198.66 328.11 205.26 324.66 212.53 323.33 C 213.40 329.68 214.02 336.05 214.47 342.45 C 220.51 339.56 225.28 334.37 232.07 333.01 C 233.95 339.75 237.13 347.14 234.23 354.08 C 229.84 364.66 227.62 377.65 216.44 383.50 C 207.91 389.96 197.00 387.34 187.32 385.79 C 187.18 379.09 187.74 372.36 187.18 365.68 C 186.49 361.62 182.61 359.09 178.84 358.28 C 166.32 357.21 153.76 358.37 141.35 360.04 C 140.39 359.20 139.43 358.37 138.47 357.54 C 139.10 352.23 140.96 347.22 142.77 342.24 C 137.28 341.28 131.82 340.18 126.37 339.10 C 125.33 335.25 124.83 331.06 121.78 328.17 C 115.34 321.04 110.57 312.59 103.99 305.58 C 114.94 304.89 125.95 306.44 136.83 304.60 C 143.01 303.26 148.53 299.09 154.99 299.05 Z"
            fill="#fcf5c7"
            opacity="1.00"
            title="kongbai" />
        <path
            d=" M 35.59 309.49 C 45.58 300.61 59.69 301.45 72.18 301.72 C 71.91 311.79 71.16 322.21 74.33 331.91 C 77.57 337.91 81.43 344.02 81.82 351.02 C 81.96 356.53 76.54 361.17 70.98 360.03 C 64.46 361.15 58.20 357.76 54.13 352.89 C 45.84 343.66 35.72 335.17 23.31 332.45 C 22.92 331.34 22.52 330.23 22.13 329.13 C 29.00 324.45 31.41 316.24 35.59 309.49 Z"
            fill="#fcf5c7"
            opacity="1.00"
            title="kongbai" />
        <path
            d=" M 39.93 370.08 C 51.46 379.83 66.61 383.94 77.67 394.33 C 84.31 401.33 91.82 408.92 93.22 418.96 C 94.84 426.75 99.45 433.45 101.95 440.93 C 102.91 446.41 103.69 452.08 103.36 457.68 C 102.34 463.26 99.36 468.24 96.67 473.16 C 91.97 466.40 87.43 459.27 80.89 454.12 C 76.21 450.48 71.68 446.69 67.39 442.62 C 62.31 437.60 55.39 435.22 49.31 431.72 C 49.65 425.48 49.89 419.24 50.10 413.01 C 45.69 408.99 41.85 404.45 38.08 399.84 C 32.78 395.09 25.52 393.68 19.40 390.32 C 16.17 385.36 21.37 383.21 24.98 384.07 C 28.94 384.98 32.83 386.15 36.78 387.14 C 37.80 381.45 38.82 375.75 39.93 370.08 Z"
            fill="#fcf5c7"
            opacity="1.00"
            title="kongbai" />
        <path
            d=" M 444.45 411.74 C 450.46 410.79 456.22 413.03 462.06 413.94 C 469.65 415.53 477.47 418.24 482.81 424.17 C 487.78 429.21 492.73 435.13 499.87 437.09 C 504.65 437.89 509.56 437.88 514.41 438.08 C 516.00 435.14 516.56 430.52 520.31 429.59 C 527.72 429.44 535.36 433.59 542.58 430.45 C 546.22 429.27 550.57 427.16 553.98 430.01 C 560.99 433.22 565.15 441.10 572.95 442.76 C 576.63 440.12 579.84 436.88 583.20 433.86 C 584.17 434.26 585.15 434.67 586.13 435.08 C 583.65 438.78 581.40 442.65 579.98 446.90 C 588.61 451.93 598.72 456.28 602.11 466.61 C 600.64 469.62 595.34 472.22 598.02 476.02 C 598.93 480.43 603.20 481.86 606.77 483.44 C 606.99 485.57 607.66 488.06 608.00 490.29 C 604.37 490.92 600.80 491.63 597.30 492.73 C 598.62 495.86 600.51 498.73 601.82 501.87 C 603.72 509.90 603.09 518.23 603.78 526.39 C 604.39 531.65 611.06 532.21 614.55 534.69 C 618.57 536.55 619.81 541.21 621.56 544.90 C 624.70 544.13 627.87 543.39 631.01 542.57 C 630.26 536.96 632.80 532.08 636.19 527.94 C 637.44 530.81 637.87 534.38 640.39 536.49 C 646.22 539.53 652.38 541.94 658.25 544.92 C 654.80 547.40 645.70 546.71 649.41 553.57 C 653.14 557.00 658.37 558.42 661.86 562.16 C 666.03 569.00 662.23 578.80 668.18 584.88 C 670.96 588.26 673.34 591.94 675.54 595.74 C 669.10 598.36 658.77 600.45 659.48 609.63 C 657.00 617.78 661.01 625.08 662.60 632.72 C 659.81 638.05 654.61 641.45 649.69 644.59 C 649.16 648.40 650.14 654.05 645.36 655.26 C 640.38 655.75 634.94 651.65 630.35 655.31 C 627.14 660.05 628.73 666.50 626.58 671.72 C 622.39 676.47 615.85 678.89 612.39 684.30 C 612.48 689.46 616.27 694.05 615.36 699.32 C 612.93 713.24 607.34 726.30 602.03 739.30 C 596.22 739.47 589.49 741.08 584.83 736.59 C 581.19 737.82 576.16 741.79 572.91 738.12 C 569.76 734.27 568.22 729.35 565.79 725.08 C 564.65 725.09 563.51 725.10 562.38 725.12 C 560.66 730.14 558.73 735.07 556.89 740.05 C 556.30 739.92 555.13 739.65 554.54 739.52 C 553.61 729.11 553.82 718.47 551.14 708.31 C 546.72 712.11 539.63 714.93 540.03 721.97 C 538.82 727.22 538.88 733.13 535.69 737.72 C 531.50 742.40 524.30 743.84 518.80 740.49 C 513.90 737.49 509.62 742.57 505.04 743.58 C 499.13 743.74 492.91 741.64 489.35 736.68 C 486.55 729.54 490.62 721.44 487.55 714.45 C 484.72 711.66 481.27 709.52 477.84 707.55 C 469.41 705.50 460.13 708.64 452.00 705.06 C 449.36 704.06 446.73 702.82 443.90 702.53 C 441.77 702.69 440.09 704.22 438.28 705.19 C 436.70 704.64 435.16 703.84 433.47 703.77 C 427.50 706.16 422.92 711.28 416.60 712.87 C 411.86 714.60 405.73 713.93 402.38 718.33 C 397.86 723.03 395.09 730.23 388.43 732.50 C 382.46 734.44 376.31 736.12 370.07 736.80 C 364.70 736.11 362.94 729.92 359.79 726.24 C 352.06 726.80 343.99 729.44 336.45 726.43 C 330.95 724.96 327.25 719.30 321.01 720.08 C 315.36 720.47 310.12 723.34 305.68 726.71 C 301.52 730.77 298.05 735.94 292.31 737.94 C 289.26 732.22 286.49 726.37 284.10 720.36 C 278.44 720.20 272.39 721.41 267.09 718.81 C 256.75 715.21 247.82 707.76 236.68 706.58 C 233.38 706.37 230.30 708.07 227.02 707.93 C 224.48 705.81 222.42 703.21 220.50 700.55 C 216.65 694.84 210.91 690.78 206.36 685.70 C 204.16 683.09 202.88 679.84 200.69 677.23 C 197.60 673.96 193.00 671.79 191.66 667.19 C 189.47 662.29 191.37 656.87 191.72 651.84 C 188.18 653.59 185.05 656.41 181.17 657.39 C 176.77 656.79 173.95 652.97 170.60 650.48 C 164.59 646.03 159.02 640.82 152.07 637.84 C 144.38 633.95 135.19 630.27 131.96 621.53 C 125.87 621.16 119.79 620.79 113.71 620.44 C 110.24 616.19 106.33 612.34 102.77 608.19 C 99.28 604.23 100.54 598.36 99.48 593.58 C 92.88 591.06 86.67 587.37 81.47 582.59 C 78.02 577.85 78.47 571.65 78.92 566.11 C 80.87 554.42 75.37 542.63 78.99 531.07 C 83.83 532.71 87.59 536.22 91.76 539.01 C 94.58 539.17 97.40 538.98 100.19 538.56 C 98.18 529.49 95.45 520.43 96.07 511.03 C 97.57 505.43 104.58 502.45 103.81 495.97 C 103.42 491.35 102.14 486.91 101.02 482.44 C 112.96 482.83 124.25 478.67 135.66 475.97 C 146.35 479.39 156.61 489.64 168.54 485.40 C 175.62 481.54 183.65 485.31 190.99 486.03 C 199.69 487.07 206.31 493.23 214.25 496.24 C 225.09 496.66 236.03 496.55 246.82 495.57 C 256.21 492.54 265.50 489.07 274.28 484.53 C 283.11 481.85 292.33 480.60 301.48 479.62 C 306.15 478.26 310.16 481.08 314.17 482.88 C 323.78 488.37 335.36 487.35 345.89 489.54 C 352.89 490.92 358.68 496.33 365.87 496.78 C 371.66 494.34 376.47 489.83 381.01 485.57 C 380.00 480.52 374.06 478.22 373.26 473.00 C 375.16 466.68 380.68 462.35 383.39 456.46 C 383.33 454.30 385.09 450.96 382.95 449.12 C 379.25 446.10 373.88 445.92 370.31 442.70 C 366.83 438.72 366.26 433.01 365.95 427.97 C 365.48 423.98 369.97 421.24 373.57 421.70 C 386.51 420.48 399.51 419.88 412.41 418.24 C 423.17 416.49 433.52 412.59 444.45 411.74 Z"
            fill="#fcf5c7"
            opacity="1.00"
            title="kongbai" />
    </g>
    <g id="#b1bab7ff">
        <path
            d=" M 1007.88 720.09 C 1012.02 721.27 1015.92 723.04 1020.09 724.20 C 1023.53 723.71 1026.89 722.69 1030.30 721.91 C 1031.20 725.25 1032.01 728.63 1032.90 731.99 C 1035.34 732.45 1037.79 732.91 1040.26 733.38 C 1042.32 730.93 1044.42 728.50 1046.44 726.02 C 1055.95 726.94 1065.79 730.46 1075.14 726.80 C 1075.75 730.07 1076.42 733.39 1077.07 736.70 C 1074.59 737.62 1071.99 738.34 1069.72 739.72 C 1068.12 741.86 1067.68 744.63 1066.64 747.06 C 1062.81 747.92 1057.67 747.55 1055.17 751.29 C 1054.52 760.86 1060.91 769.90 1057.59 779.47 C 1055.29 787.19 1053.87 795.14 1051.93 802.96 C 1049.95 802.70 1047.99 802.44 1046.02 802.22 C 1044.02 807.13 1039.41 809.77 1034.79 811.81 C 1027.30 826.11 1017.02 839.42 1002.83 847.54 C 1000.09 848.40 997.20 848.26 994.39 848.59 C 992.70 854.37 990.60 860.03 988.52 865.69 C 983.96 866.78 979.49 868.12 975.17 869.92 C 969.88 872.10 963.47 871.67 959.11 875.72 C 956.56 874.65 954.03 873.52 951.51 872.41 C 954.72 869.56 958.01 866.74 961.90 864.83 C 967.24 862.43 970.58 857.31 975.76 854.65 C 980.84 852.42 982.19 846.59 985.99 843.02 C 990.41 840.11 996.92 841.78 1000.83 837.87 C 1000.17 832.36 997.54 827.24 997.58 821.59 C 998.53 814.65 991.05 810.81 991.23 804.08 C 992.43 800.25 994.38 796.73 996.09 793.12 C 994.12 789.39 990.78 785.84 991.32 781.32 C 992.78 773.95 1002.83 772.95 1003.85 765.12 C 1000.64 764.70 997.32 764.88 994.22 763.89 C 991.32 757.14 992.25 749.59 990.76 742.53 C 989.21 737.75 991.32 732.93 994.22 729.24 C 998.52 725.74 1004.48 724.81 1007.88 720.09 Z"
            fill="#b1bab7"
            opacity="1.00"
            title="min" />
        <path
            d=" M 1093.92 795.11 C 1100.03 791.94 1105.74 788.02 1112.01 785.14 C 1113.70 790.85 1115.15 796.64 1116.45 802.47 C 1117.23 805.24 1115.29 807.72 1114.56 810.29 C 1110.27 823.30 1113.27 837.46 1109.45 850.59 C 1106.44 855.32 1100.09 857.87 1099.43 864.04 C 1098.04 870.49 1098.16 877.20 1096.49 883.61 C 1094.91 880.24 1093.73 876.66 1092.47 873.23 C 1088.38 871.24 1084.03 868.98 1082.43 864.38 C 1076.07 855.44 1076.66 844.03 1077.78 833.68 C 1079.73 826.67 1083.73 820.35 1085.23 813.17 C 1087.25 806.87 1087.53 798.89 1093.92 795.11 Z"
            fill="#b1bab7"
            opacity="1.00"
            title="min" />
        <path
            d=" M 812.75 921.18 C 820.12 922.11 827.53 921.63 834.28 918.21 C 833.83 924.04 831.43 929.20 828.43 934.07 C 831.12 938.85 834.89 943.42 834.78 949.25 C 829.66 949.84 823.31 952.10 819.23 947.80 C 811.08 941.68 813.81 929.89 812.75 921.18 Z"
            fill="#b1bab7"
            opacity="1.00"
            title="min" />
        <path
            d=" M 824.86 960.10 C 831.04 960.97 837.24 959.60 842.91 957.18 C 845.51 959.77 848.18 962.41 850.74 965.10 C 847.05 968.98 842.50 971.94 838.91 975.89 C 835.94 981.04 838.57 988.07 835.08 993.07 C 829.47 999.33 822.38 1003.96 815.30 1008.36 C 813.23 1009.80 810.62 1009.23 808.31 1009.03 C 801.83 1008.03 794.80 1007.81 789.30 1003.77 C 787.17 995.88 784.21 986.57 789.07 979.04 C 790.16 977.05 791.69 975.08 793.90 974.29 C 797.61 975.41 800.80 977.73 804.22 979.51 C 806.92 974.75 809.06 969.75 811.00 964.65 C 814.04 960.50 819.94 959.01 824.86 960.10 Z"
            fill="#b1bab7"
            opacity="1.00"
            title="min" />
    </g>
    <g id="#c8c7a8ff">
        <path
            d=" M 1070.09 588.65 C 1076.91 593.30 1087.28 593.48 1090.64 602.28 C 1090.29 604.97 1088.90 607.36 1087.91 609.85 C 1084.33 609.06 1080.65 608.37 1077.07 607.77 C 1077.02 609.19 1076.99 610.62 1076.97 612.06 C 1081.48 614.10 1086.01 616.12 1090.54 618.17 C 1088.98 622.69 1087.55 627.28 1085.54 631.62 C 1080.19 640.22 1070.92 644.96 1063.25 651.13 C 1065.31 651.25 1067.45 651.72 1069.51 651.22 C 1074.27 648.75 1077.42 643.58 1082.85 642.32 C 1086.90 645.63 1090.40 650.38 1096.20 649.99 C 1097.29 657.11 1098.76 664.20 1101.20 671.00 C 1097.61 672.54 1094.06 674.10 1090.47 675.58 C 1091.68 679.67 1094.97 683.05 1095.40 687.40 C 1095.70 691.30 1096.33 695.20 1097.02 699.05 C 1091.53 702.56 1085.23 704.93 1080.43 709.43 C 1076.09 714.44 1076.24 721.62 1072.99 727.12 C 1064.77 731.09 1055.67 726.76 1047.19 726.01 C 1043.46 730.06 1038.86 732.84 1033.23 732.72 C 1032.29 728.99 1031.50 725.27 1030.35 721.62 C 1026.63 722.51 1023.07 724.47 1019.20 724.44 C 1014.04 722.63 1008.90 719.72 1005.92 714.97 C 1003.08 710.48 997.10 709.16 994.66 704.39 C 992.50 698.96 993.14 692.72 990.41 687.48 C 987.82 683.94 983.30 681.83 981.69 677.60 C 981.59 671.05 982.12 664.18 984.14 657.99 C 993.12 648.57 1001.01 638.21 1009.03 627.98 C 1013.43 622.33 1021.27 622.82 1027.42 620.49 C 1029.61 615.81 1030.29 610.48 1033.09 606.07 C 1039.02 602.44 1046.52 602.89 1052.40 599.14 C 1058.21 595.52 1064.09 591.98 1070.09 588.65 Z"
            fill="#c8c7a8"
            opacity="1.00"
            title="wu" />
    </g>
    <g id="#a6ae87ff">
        <path
            d=" M 811.51 715.43 C 816.30 712.81 820.19 707.76 825.92 707.18 C 832.87 708.46 834.83 718.98 842.99 716.98 C 850.05 716.67 855.05 710.84 861.52 708.74 C 866.74 707.99 872.26 707.79 877.30 709.58 C 883.42 711.59 890.16 711.88 895.83 715.19 C 898.32 721.04 893.53 726.56 893.54 732.40 C 893.44 741.36 894.24 750.34 893.28 759.27 C 894.52 765.13 890.71 770.74 885.57 773.25 C 881.43 774.03 877.19 773.54 873.02 773.88 C 871.24 779.13 869.74 784.50 867.53 789.60 C 863.59 786.66 859.75 783.62 855.80 780.72 C 856.57 777.57 857.46 774.46 858.28 771.34 C 852.84 770.15 844.84 768.77 842.93 775.95 C 839.14 783.41 848.08 787.40 850.41 793.51 C 852.01 800.21 848.84 806.61 846.64 812.72 C 845.46 816.65 840.52 815.48 837.42 816.14 C 831.58 817.29 825.45 813.36 822.93 808.24 C 822.30 803.28 823.19 798.25 823.39 793.29 C 818.91 788.29 817.28 781.86 815.22 775.69 C 813.37 770.31 807.62 768.53 802.98 766.36 C 804.28 759.91 809.52 755.60 813.14 750.46 C 816.36 750.94 819.62 751.24 822.89 751.14 C 821.39 749.18 820.33 746.38 817.75 745.66 C 813.28 745.84 808.99 747.57 804.60 748.23 C 802.44 742.56 805.32 737.15 807.41 731.98 C 804.29 730.06 801.21 728.17 798.01 726.42 C 798.25 720.66 798.56 714.93 799.11 709.21 C 803.21 711.42 806.11 716.80 811.51 715.43 Z"
            fill="#a6ae87"
            opacity="1.00"
            title="xiang" />
    </g>
    <g id="#bf6f7cff">
        <path
            d=" M 879.52 827.06 C 882.33 826.90 885.22 826.20 888.02 826.93 C 891.55 828.32 892.73 832.26 894.02 835.46 C 896.87 841.05 898.58 847.12 901.08 852.88 C 904.12 851.54 906.83 849.56 909.03 847.08 C 915.61 847.50 921.11 851.20 926.68 854.31 C 926.79 854.94 926.99 856.20 927.10 856.84 C 923.10 857.49 919.15 858.21 915.20 859.00 C 914.43 862.36 913.67 865.75 912.92 869.15 C 917.44 875.01 922.29 880.76 928.59 884.83 C 928.63 887.34 928.67 889.87 928.70 892.41 C 921.45 890.66 917.60 883.18 910.34 881.23 C 910.69 885.07 911.25 889.01 911.73 892.86 C 907.02 894.70 902.36 897.68 897.09 896.88 C 894.53 905.81 884.09 905.52 876.78 907.27 C 868.66 907.07 864.05 915.12 856.37 916.24 C 846.68 918.95 836.31 917.22 826.81 920.63 C 821.75 922.17 816.41 921.90 811.41 920.30 C 806.66 919.01 801.95 921.37 797.32 921.98 C 792.83 917.34 787.24 914.04 781.22 911.85 C 780.49 913.25 779.04 916.06 778.32 917.46 C 767.63 921.53 756.20 918.27 745.47 916.38 C 741.78 913.04 737.59 910.36 733.79 907.18 C 731.22 902.40 729.30 896.93 729.50 891.41 C 730.67 887.67 733.66 884.85 735.93 881.75 C 740.51 882.91 745.18 884.78 750.00 883.99 C 754.11 883.25 757.78 885.67 761.71 886.36 C 764.74 886.18 767.14 884.02 769.58 882.45 C 759.62 875.27 750.51 866.60 739.01 861.90 C 733.78 860.20 731.86 854.64 730.39 849.86 C 742.76 855.99 755.37 861.65 768.16 866.84 C 774.74 869.63 781.92 870.32 788.94 871.23 C 787.76 867.86 788.64 866.75 788.07 864.11 C 792.80 862.47 793.79 857.23 797.28 854.35 C 804.46 853.60 812.18 857.54 819.04 854.09 C 828.24 850.71 829.89 838.66 839.01 835.00 C 843.57 832.22 849.19 833.83 853.95 835.13 C 861.91 837.46 870.13 838.98 878.45 838.94 C 878.80 834.96 879.15 831.00 879.52 827.06 Z"
            fill="#bf6f7c"
            opacity="1.00"
            title="yue" />
    </g>
</svg>
